{"glyphs":{"0":{"ha":918,"x_min":43,"x_max":875,"o":"m 458 -25 q 141 92 239 -25 q 43 442 43 210 q 141 790 43 672 q 458 908 239 908 q 776 790 678 908 q 875 442 875 672 q 776 92 875 210 q 458 -25 678 -25 m 458 167 q 603 234 560 167 q 646 442 646 301 q 603 649 646 582 q 458 717 560 717 q 314 649 357 717 q 271 442 271 582 q 314 234 271 301 q 458 167 357 167 z "},"1":{"ha":485,"x_min":43,"x_max":414,"o":"m 190 689 l 43 665 l 43 853 l 414 908 l 414 0 l 190 0 l 190 689 z "},"2":{"ha":718,"x_min":43,"x_max":675,"o":"m 43 104 q 129 231 76 174 q 268 367 182 289 l 297 393 q 386 477 360 450 q 426 533 413 504 q 439 603 439 563 q 292 717 439 717 q 74 671 189 717 l 74 864 q 202 897 129 885 q 346 908 275 908 q 584 829 501 908 q 667 607 667 750 q 631 472 667 531 q 517 343 596 413 l 493 322 q 400 239 433 271 q 343 172 367 207 l 675 172 l 675 0 l 43 0 l 43 104 z "},"3":{"ha":735,"x_min":43,"x_max":690,"o":"m 322 -14 q 174 -1 258 -14 q 43 32 90 13 l 43 218 q 162 181 97 193 q 288 169 226 169 q 420 194 378 169 q 463 279 463 218 q 426 350 463 328 q 319 372 390 372 l 174 372 l 189 529 l 310 529 q 413 552 381 529 q 444 626 444 575 q 406 701 444 676 q 283 725 367 725 q 163 712 224 725 q 57 678 103 699 l 57 861 q 180 895 107 882 q 325 908 253 908 q 515 876 436 908 q 633 786 593 843 q 674 654 674 729 q 646 533 674 588 q 564 451 618 479 q 658 380 626 429 q 690 258 690 331 q 591 54 690 122 q 322 -14 492 -14 z "},"4":{"ha":760,"x_min":15,"x_max":743,"o":"m 436 178 l 15 178 l 15 326 l 464 894 l 660 894 l 660 358 l 743 358 l 743 178 l 660 178 l 660 0 l 436 0 l 436 178 m 474 350 l 474 649 l 231 350 l 474 350 z "},"5":{"ha":724,"x_min":43,"x_max":679,"o":"m 318 -14 q 174 -2 251 -14 q 47 31 97 10 l 47 217 q 163 183 94 196 q 283 171 231 171 q 411 198 371 171 q 451 288 451 225 q 422 371 451 346 q 314 396 392 396 l 43 396 l 43 508 l 67 894 l 622 894 l 606 722 l 258 722 l 249 560 l 365 560 q 602 489 525 560 q 679 279 679 418 q 588 65 679 143 q 318 -14 496 -14 z "},"6":{"ha":810,"x_min":43,"x_max":767,"o":"m 407 -14 q 133 75 224 -14 q 43 343 43 164 l 43 525 q 92 723 43 636 q 234 859 142 810 q 451 908 326 908 q 576 900 522 908 q 679 872 629 892 l 679 690 q 469 728 592 728 q 309 685 365 728 q 253 571 253 642 l 253 536 q 348 578 292 563 q 454 593 404 593 q 767 294 767 593 q 678 69 767 151 q 407 -14 590 -14 m 408 147 q 526 184 486 147 q 567 286 567 221 q 531 392 567 357 q 411 428 494 428 q 253 378 333 428 l 253 303 q 292 185 253 224 q 408 147 331 147 z "},"7":{"ha":692,"x_min":29,"x_max":661,"o":"m 413 722 l 29 722 l 29 894 l 661 894 l 661 761 l 339 0 l 106 0 l 413 722 z "},"8":{"ha":838,"x_min":43,"x_max":794,"o":"m 418 -14 q 135 53 228 -14 q 43 254 43 119 q 78 381 43 324 q 174 463 113 438 q 92 537 119 490 q 65 640 65 583 q 152 838 65 767 q 418 908 239 908 q 685 838 600 908 q 771 640 771 768 q 744 531 771 581 q 660 454 717 482 q 794 254 794 399 q 701 53 794 119 q 418 -14 608 -14 m 453 518 q 534 561 510 535 q 558 636 558 588 q 524 715 558 689 q 418 740 489 740 q 313 715 347 740 q 278 636 278 690 q 368 535 278 553 l 453 518 m 418 153 q 541 178 501 153 q 581 258 581 203 q 555 329 581 306 q 468 365 529 353 l 367 386 q 283 346 311 374 q 256 265 256 318 q 295 179 256 206 q 418 153 335 153 z "},"9":{"ha":810,"x_min":43,"x_max":767,"o":"m 358 -14 q 233 -6 286 -14 q 131 19 179 1 l 131 201 q 340 165 221 165 q 501 208 444 165 q 557 322 557 251 l 557 357 q 462 315 518 331 q 356 300 406 300 q 43 599 43 300 q 131 825 43 742 q 403 908 219 908 q 677 819 588 908 q 767 551 767 731 l 767 369 q 717 170 767 257 q 576 35 668 83 q 358 -14 483 -14 m 399 465 q 479 479 438 465 q 557 517 521 493 l 557 590 q 518 708 557 669 q 401 746 479 746 q 283 709 324 746 q 243 607 243 672 q 278 501 243 536 q 399 465 314 465 z "},"\r":{"ha":556,"x_min":0,"x_max":0,"o":""}," ":{"ha":486,"x_min":0,"x_max":0,"o":""},"A":{"ha":1011,"x_min":43,"x_max":968,"o":"m 385 894 l 626 894 l 968 0 l 735 0 l 654 203 l 356 203 l 276 0 l 43 0 l 385 894 m 624 368 l 504 679 l 386 368 l 624 368 z "},"Á":{"ha":1011,"x_min":43,"x_max":968,"o":"m 529 1228 l 713 1228 l 585 956 l 413 956 l 529 1228 m 385 894 l 626 894 l 968 0 l 735 0 l 654 203 l 356 203 l 276 0 l 43 0 l 385 894 m 624 368 l 504 679 l 386 368 l 624 368 z "},"Ă":{"ha":1011,"x_min":43,"x_max":968,"o":"m 504 956 q 329 1019 394 956 q 264 1194 264 1082 l 411 1194 q 434 1112 411 1143 q 504 1081 457 1081 q 576 1112 553 1081 q 600 1194 600 1143 l 747 1194 q 681 1019 747 1082 q 504 956 614 956 m 385 894 l 626 894 l 968 0 l 735 0 l 654 203 l 356 203 l 276 0 l 43 0 l 385 894 m 624 368 l 504 679 l 386 368 l 624 368 z "},"Ắ":{"ha":1011,"x_min":43,"x_max":968,"o":"m 521 1369 l 678 1369 l 569 1163 l 429 1163 l 521 1369 m 506 956 q 329 1012 394 956 q 264 1183 264 1068 l 393 1183 q 422 1099 393 1129 q 506 1068 451 1068 q 588 1099 558 1068 q 617 1183 617 1129 l 744 1183 q 680 1012 744 1068 q 506 956 615 956 m 385 894 l 626 894 l 968 0 l 735 0 l 654 203 l 356 203 l 276 0 l 43 0 l 385 894 m 624 368 l 504 679 l 386 368 l 624 368 z "},"Ặ":{"ha":1011,"x_min":43,"x_max":968,"o":"m 503 956 q 328 1019 393 956 q 263 1194 263 1082 l 410 1194 q 433 1112 410 1143 q 503 1081 456 1081 q 575 1112 551 1081 q 599 1194 599 1143 l 746 1194 q 679 1019 746 1082 q 503 956 613 956 m 385 894 l 626 894 l 968 0 l 735 0 l 654 203 l 356 203 l 276 0 l 43 0 l 385 894 m 624 368 l 504 679 l 386 368 l 624 368 m 422 -97 l 586 -97 l 586 -249 l 422 -249 l 422 -97 z "},"Ằ":{"ha":1011,"x_min":43,"x_max":968,"o":"m 331 1369 l 489 1369 l 581 1163 l 439 1163 l 331 1369 m 504 956 q 329 1012 394 956 q 264 1183 264 1068 l 393 1183 q 422 1099 393 1129 q 504 1068 450 1068 q 588 1099 558 1068 q 617 1183 617 1129 l 744 1183 q 679 1012 744 1068 q 504 956 614 956 m 385 894 l 626 894 l 968 0 l 735 0 l 654 203 l 356 203 l 276 0 l 43 0 l 385 894 m 624 368 l 504 679 l 386 368 l 624 368 z "},"Ẳ":{"ha":1011,"x_min":43,"x_max":968,"o":"m 428 1257 q 510 1272 486 1258 q 535 1311 535 1286 q 519 1344 535 1335 q 467 1353 503 1353 q 394 1338 431 1353 l 394 1424 q 526 1442 446 1442 q 640 1410 599 1442 q 681 1326 681 1378 q 656 1253 681 1279 q 575 1215 632 1228 l 575 1172 l 428 1172 l 428 1257 m 504 956 q 329 1012 394 956 q 264 1183 264 1068 l 393 1183 q 422 1099 393 1129 q 504 1068 450 1068 q 588 1099 558 1068 q 617 1183 617 1129 l 744 1183 q 679 1012 744 1068 q 504 956 614 956 m 385 894 l 626 894 l 968 0 l 735 0 l 654 203 l 356 203 l 276 0 l 43 0 l 385 894 m 624 368 l 504 679 l 386 368 l 624 368 z "},"Ẵ":{"ha":1011,"x_min":43,"x_max":968,"o":"m 629 1208 q 573 1215 600 1208 q 503 1238 546 1222 q 443 1257 468 1250 q 394 1264 418 1264 q 267 1213 315 1264 l 267 1339 q 320 1371 286 1358 q 390 1383 354 1383 q 444 1376 419 1383 q 513 1354 469 1369 q 575 1333 551 1340 q 625 1326 599 1326 q 696 1341 665 1326 q 744 1381 726 1356 l 744 1253 q 699 1221 731 1233 q 629 1208 668 1208 m 504 956 q 329 1012 394 956 q 264 1183 264 1068 l 393 1183 q 422 1099 393 1129 q 504 1068 450 1068 q 588 1099 558 1068 q 617 1183 617 1129 l 744 1183 q 679 1012 744 1068 q 504 956 614 956 m 385 894 l 626 894 l 968 0 l 735 0 l 654 203 l 356 203 l 276 0 l 43 0 l 385 894 m 624 368 l 504 679 l 386 368 l 624 368 z "},"Ǎ":{"ha":1011,"x_min":43,"x_max":968,"o":"m 233 1215 l 404 1215 l 504 1071 l 608 1215 l 775 1215 l 574 956 l 435 956 l 233 1215 m 385 894 l 626 894 l 968 0 l 735 0 l 654 203 l 356 203 l 276 0 l 43 0 l 385 894 m 624 368 l 504 679 l 386 368 l 624 368 z "},"Â":{"ha":1011,"x_min":43,"x_max":968,"o":"m 435 1214 l 574 1214 l 775 954 l 608 954 l 504 1099 l 404 954 l 233 954 l 435 1214 m 385 894 l 626 894 l 968 0 l 735 0 l 654 203 l 356 203 l 276 0 l 43 0 l 385 894 m 624 368 l 504 679 l 386 368 l 624 368 z "},"Ấ":{"ha":1011,"x_min":43,"x_max":968,"o":"m 751 1331 l 918 1331 l 814 1124 l 656 1124 l 751 1331 m 417 1156 l 585 1156 l 771 956 l 592 956 l 501 1067 l 411 956 l 231 956 l 417 1156 m 385 894 l 626 894 l 968 0 l 735 0 l 654 203 l 356 203 l 276 0 l 43 0 l 385 894 m 624 368 l 504 679 l 386 368 l 624 368 z "},"Ậ":{"ha":1011,"x_min":43,"x_max":968,"o":"m 435 1215 l 574 1215 l 775 956 l 608 956 l 504 1100 l 404 956 l 233 956 l 435 1215 m 385 894 l 626 894 l 968 0 l 735 0 l 654 203 l 356 203 l 276 0 l 43 0 l 385 894 m 624 368 l 504 679 l 386 368 l 624 368 m 422 -97 l 586 -97 l 586 -249 l 422 -249 l 422 -97 z "},"Ầ":{"ha":1011,"x_min":43,"x_max":968,"o":"m 89 1331 l 256 1331 l 351 1124 l 193 1124 l 89 1331 m 422 1156 l 590 1156 l 776 956 l 596 956 l 506 1067 l 415 956 l 236 956 l 422 1156 m 385 894 l 626 894 l 968 0 l 735 0 l 654 203 l 356 203 l 276 0 l 43 0 l 385 894 m 624 368 l 504 679 l 386 368 l 624 368 z "},"Ẩ":{"ha":1011,"x_min":43,"x_max":968,"o":"m 672 1192 q 752 1204 731 1193 q 774 1238 774 1215 q 714 1272 774 1272 q 640 1258 675 1272 l 640 1351 q 767 1368 694 1368 q 885 1337 844 1368 q 926 1253 926 1306 q 824 1139 926 1156 l 824 1093 l 672 1093 l 672 1192 m 419 1156 l 588 1156 l 774 956 l 594 956 l 504 1067 l 414 956 l 233 956 l 419 1156 m 385 894 l 626 894 l 968 0 l 735 0 l 654 203 l 356 203 l 276 0 l 43 0 l 385 894 m 624 368 l 504 679 l 386 368 l 624 368 z "},"Ẫ":{"ha":1011,"x_min":43,"x_max":968,"o":"m 639 1176 q 583 1183 610 1176 q 513 1206 556 1190 q 453 1225 478 1218 q 404 1232 428 1232 q 276 1181 325 1232 l 276 1307 q 330 1339 296 1326 q 400 1351 364 1351 q 454 1344 429 1351 q 522 1322 479 1338 q 585 1301 561 1308 q 635 1294 608 1294 q 706 1309 675 1294 q 754 1349 736 1324 l 754 1221 q 709 1189 740 1201 q 639 1176 678 1176 m 419 1156 l 588 1156 l 774 956 l 594 956 l 504 1067 l 414 956 l 233 956 l 419 1156 m 385 894 l 626 894 l 968 0 l 735 0 l 654 203 l 356 203 l 276 0 l 43 0 l 385 894 m 624 368 l 504 679 l 386 368 l 624 368 z "},"Ä":{"ha":1011,"x_min":43,"x_max":968,"o":"m 279 1142 l 443 1142 l 443 990 l 279 990 l 279 1142 m 565 1142 l 729 1142 l 729 990 l 565 990 l 565 1142 m 385 894 l 626 894 l 968 0 l 735 0 l 654 203 l 356 203 l 276 0 l 43 0 l 385 894 m 624 368 l 504 679 l 386 368 l 624 368 z "},"Ạ":{"ha":1011,"x_min":43,"x_max":968,"o":"m 385 894 l 626 894 l 968 0 l 735 0 l 654 203 l 356 203 l 276 0 l 43 0 l 385 894 m 624 368 l 504 679 l 386 368 l 624 368 m 422 -97 l 586 -97 l 586 -249 l 422 -249 l 422 -97 z "},"À":{"ha":1011,"x_min":43,"x_max":968,"o":"m 288 1228 l 471 1228 l 588 956 l 417 956 l 288 1228 m 385 894 l 626 894 l 968 0 l 735 0 l 654 203 l 356 203 l 276 0 l 43 0 l 385 894 m 624 368 l 504 679 l 386 368 l 624 368 z "},"Ả":{"ha":1011,"x_min":43,"x_max":968,"o":"m 421 1068 q 518 1088 492 1072 q 544 1132 544 1103 q 454 1182 544 1182 q 371 1169 411 1182 l 371 1269 q 519 1289 426 1289 q 659 1251 610 1289 q 708 1151 708 1214 q 681 1063 708 1093 q 590 1017 653 1032 l 590 956 l 421 956 l 421 1068 m 385 894 l 626 894 l 968 0 l 735 0 l 654 203 l 356 203 l 276 0 l 43 0 l 385 894 m 624 368 l 504 679 l 386 368 l 624 368 z "},"Ā":{"ha":1011,"x_min":43,"x_max":968,"o":"m 283 1113 l 725 1113 l 725 978 l 283 978 l 283 1113 m 385 894 l 626 894 l 968 0 l 735 0 l 654 203 l 356 203 l 276 0 l 43 0 l 385 894 m 624 368 l 504 679 l 386 368 l 624 368 z "},"Ą":{"ha":1011,"x_min":43,"x_max":968,"o":"m 818 -135 q 879 -187 818 -187 q 917 -183 897 -187 q 949 -172 936 -179 l 949 -285 q 892 -299 928 -293 q 818 -306 856 -306 q 695 -272 743 -306 q 647 -175 647 -239 q 674 -78 647 -124 q 749 0 701 -32 l 735 0 l 654 203 l 356 203 l 276 0 l 43 0 l 385 894 l 626 894 l 968 0 l 906 0 q 818 -135 818 -67 m 624 368 l 504 679 l 386 368 l 624 368 z "},"Å":{"ha":1011,"x_min":43,"x_max":968,"o":"m 968 0 l 735 0 l 654 203 l 356 203 l 276 0 l 43 0 l 375 868 q 322 996 322 917 q 372 1122 322 1072 q 504 1171 421 1171 q 638 1122 589 1171 q 688 996 688 1072 q 674 925 688 958 q 636 869 661 892 l 968 0 m 504 1074 q 447 1051 468 1074 q 425 996 425 1029 q 447 941 425 963 q 504 919 468 919 q 563 941 542 919 q 585 996 585 963 q 563 1051 585 1029 q 504 1074 542 1074 m 624 368 l 504 679 l 386 368 l 624 368 z "},"Ǻ":{"ha":1011,"x_min":43,"x_max":968,"o":"m 576 1204 l 404 1204 l 521 1463 l 704 1463 l 576 1204 m 968 0 l 735 0 l 654 203 l 356 203 l 276 0 l 43 0 l 375 868 q 322 996 322 917 q 372 1122 322 1072 q 504 1171 421 1171 q 638 1122 589 1171 q 688 996 688 1072 q 674 925 688 958 q 636 869 661 892 l 968 0 m 504 1074 q 447 1051 468 1074 q 425 996 425 1029 q 447 941 425 963 q 504 919 468 919 q 563 941 542 919 q 585 996 585 963 q 563 1051 585 1029 q 504 1074 542 1074 m 624 368 l 504 679 l 386 368 l 624 368 z "},"Ã":{"ha":1011,"x_min":43,"x_max":968,"o":"m 631 958 q 572 966 601 958 q 501 989 542 974 q 442 1008 467 1001 q 393 1015 417 1015 q 263 963 315 1015 l 263 1111 q 317 1143 283 1131 q 389 1156 351 1156 q 444 1149 419 1156 q 513 1126 469 1142 q 576 1106 551 1113 q 626 1099 600 1099 q 698 1113 667 1099 q 747 1153 729 1128 l 747 1003 q 701 971 733 983 q 631 958 669 958 m 385 894 l 626 894 l 968 0 l 735 0 l 654 203 l 356 203 l 276 0 l 43 0 l 385 894 m 624 368 l 504 679 l 386 368 l 624 368 z "},"Æ":{"ha":1186,"x_min":43,"x_max":1143,"o":"m 385 894 l 1143 894 l 1143 722 l 781 722 l 781 535 l 1092 535 l 1092 360 l 781 360 l 781 172 l 1143 172 l 1143 0 l 558 0 l 558 204 l 361 204 l 282 0 l 43 0 l 385 894 m 558 378 l 558 722 l 542 722 l 413 378 l 558 378 z "},"Ǽ":{"ha":1186,"x_min":43,"x_max":1143,"o":"m 697 1228 l 881 1228 l 753 956 l 581 956 l 697 1228 m 385 894 l 1143 894 l 1143 722 l 781 722 l 781 535 l 1092 535 l 1092 360 l 781 360 l 781 172 l 1143 172 l 1143 0 l 558 0 l 558 204 l 361 204 l 282 0 l 43 0 l 385 894 m 558 378 l 558 722 l 542 722 l 413 378 l 558 378 z "},"B":{"ha":890,"x_min":71,"x_max":847,"o":"m 71 894 l 543 894 q 746 831 676 894 q 815 650 815 768 q 789 533 815 582 q 717 457 763 483 q 815 388 782 433 q 847 263 847 343 q 772 67 847 135 q 557 0 697 0 l 71 0 l 71 894 m 476 531 q 588 631 588 531 q 560 708 588 683 q 465 733 532 733 l 294 733 l 294 531 l 476 531 m 499 160 q 590 185 561 160 q 619 274 619 211 q 590 351 619 326 q 490 376 560 376 l 294 376 l 294 160 l 499 160 z "},"C":{"ha":838,"x_min":43,"x_max":794,"o":"m 524 -14 q 167 106 292 -14 q 43 440 43 225 q 164 788 43 667 q 522 908 285 908 q 665 897 600 908 q 793 863 729 885 l 793 667 q 539 717 672 717 q 335 650 400 717 q 271 440 271 583 q 338 241 271 306 q 542 176 406 176 q 794 225 676 176 l 794 28 q 524 -14 672 -14 z "},"Ć":{"ha":838,"x_min":43,"x_max":794,"o":"m 532 1228 l 715 1228 l 588 956 l 415 956 l 532 1228 m 524 -14 q 167 106 292 -14 q 43 440 43 225 q 164 788 43 667 q 522 908 285 908 q 665 897 600 908 q 793 863 729 885 l 793 667 q 539 717 672 717 q 335 650 400 717 q 271 440 271 583 q 338 241 271 306 q 542 176 406 176 q 794 225 676 176 l 794 28 q 524 -14 672 -14 z "},"Č":{"ha":838,"x_min":43,"x_max":794,"o":"m 239 1214 l 410 1214 l 510 1069 l 614 1214 l 781 1214 l 579 954 l 440 954 l 239 1214 m 524 -14 q 167 106 292 -14 q 43 440 43 225 q 164 788 43 667 q 522 908 285 908 q 665 897 600 908 q 793 863 729 885 l 793 667 q 539 717 672 717 q 335 650 400 717 q 271 440 271 583 q 338 241 271 306 q 542 176 406 176 q 794 225 676 176 l 794 28 q 524 -14 672 -14 z "},"Ç":{"ha":838,"x_min":43,"x_max":794,"o":"m 794 28 q 579 -12 696 -7 l 563 -60 q 676 -94 639 -60 q 714 -189 714 -128 q 660 -296 714 -258 q 496 -333 606 -333 q 436 -330 471 -333 q 386 -322 401 -326 l 386 -224 q 469 -235 426 -235 q 552 -225 529 -235 q 575 -186 575 -215 q 553 -148 575 -157 q 485 -139 532 -139 l 410 -139 l 447 -10 q 147 126 250 8 q 43 440 43 243 q 164 788 43 667 q 522 908 285 908 q 665 897 600 908 q 793 863 729 885 l 793 667 q 539 717 672 717 q 335 650 400 717 q 271 440 271 583 q 338 241 271 306 q 542 176 406 176 q 794 225 676 176 l 794 28 z "},"Ĉ":{"ha":838,"x_min":43,"x_max":794,"o":"m 410 1214 l 549 1214 l 750 954 l 583 954 l 479 1099 l 379 954 l 208 954 l 410 1214 m 524 -14 q 167 106 292 -14 q 43 440 43 225 q 164 788 43 667 q 522 908 285 908 q 665 897 600 908 q 793 863 729 885 l 793 667 q 539 717 672 717 q 335 650 400 717 q 271 440 271 583 q 338 241 271 306 q 542 176 406 176 q 794 225 676 176 l 794 28 q 524 -14 672 -14 z "},"Ċ":{"ha":838,"x_min":43,"x_max":794,"o":"m 417 1143 l 579 1143 l 579 992 l 417 992 l 417 1143 m 524 -14 q 167 106 292 -14 q 43 440 43 225 q 164 788 43 667 q 522 908 285 908 q 665 897 600 908 q 793 863 729 885 l 793 667 q 539 717 672 717 q 335 650 400 717 q 271 440 271 583 q 338 241 271 306 q 542 176 406 176 q 794 225 676 176 l 794 28 q 524 -14 672 -14 z "},"D":{"ha":921,"x_min":71,"x_max":878,"o":"m 71 894 l 458 894 q 773 788 668 894 q 878 442 878 681 q 773 108 878 215 q 458 0 668 0 l 71 0 l 71 894 m 428 172 q 553 194 506 172 q 625 275 600 217 q 650 442 650 333 q 627 612 650 551 q 556 697 604 672 q 428 722 508 722 l 294 722 l 294 172 l 428 172 z "},"Ð":{"ha":982,"x_min":29,"x_max":938,"o":"m 131 357 l 29 357 l 29 519 l 131 519 l 131 894 l 518 894 q 833 788 728 894 q 938 442 938 681 q 833 108 938 215 q 518 0 728 0 l 131 0 l 131 357 m 488 172 q 613 194 565 172 q 685 275 660 217 q 710 442 710 333 q 687 612 710 551 q 616 697 664 672 q 488 722 568 722 l 354 722 l 354 519 l 529 519 l 529 357 l 354 357 l 354 172 l 488 172 z "},"Ď":{"ha":921,"x_min":71,"x_max":878,"o":"m 147 1229 l 318 1229 l 418 1085 l 522 1229 l 689 1229 l 488 969 l 349 969 l 147 1229 m 71 894 l 458 894 q 773 788 668 894 q 878 442 878 681 q 773 108 878 215 q 458 0 668 0 l 71 0 l 71 894 m 428 172 q 553 194 506 172 q 625 275 600 217 q 650 442 650 333 q 627 612 650 551 q 556 697 604 672 q 428 722 508 722 l 294 722 l 294 172 l 428 172 z "},"Đ":{"ha":968,"x_min":15,"x_max":924,"o":"m 117 357 l 15 357 l 15 519 l 117 519 l 117 894 l 504 894 q 819 788 714 894 q 924 442 924 681 q 819 108 924 215 q 504 0 714 0 l 117 0 l 117 357 m 474 172 q 599 194 551 172 q 671 275 646 217 q 696 442 696 333 q 673 612 696 551 q 602 697 650 672 q 474 722 554 722 l 340 722 l 340 519 l 515 519 l 515 357 l 340 357 l 340 172 l 474 172 z "},"Ḍ":{"ha":921,"x_min":71,"x_max":878,"o":"m 71 894 l 458 894 q 773 788 668 894 q 878 442 878 681 q 773 108 878 215 q 458 0 668 0 l 71 0 l 71 894 m 428 172 q 553 194 506 172 q 625 275 600 217 q 650 442 650 333 q 627 612 650 551 q 556 697 604 672 q 428 722 508 722 l 294 722 l 294 172 l 428 172 m 335 -111 l 499 -111 l 499 -262 l 335 -262 l 335 -111 z "},"Ḏ":{"ha":921,"x_min":71,"x_max":878,"o":"m 71 894 l 458 894 q 773 788 668 894 q 878 442 878 681 q 773 108 878 215 q 458 0 668 0 l 71 0 l 71 894 m 428 172 q 553 194 506 172 q 625 275 600 217 q 650 442 650 333 q 627 612 650 551 q 556 697 604 672 q 428 722 508 722 l 294 722 l 294 172 l 428 172 m 199 -114 l 640 -114 l 640 -250 l 199 -250 l 199 -114 z "},"E":{"ha":767,"x_min":71,"x_max":731,"o":"m 71 894 l 731 894 l 731 722 l 294 722 l 294 535 l 679 535 l 679 360 l 294 360 l 294 172 l 731 172 l 731 0 l 71 0 l 71 894 z "},"É":{"ha":767,"x_min":71,"x_max":731,"o":"m 410 1228 l 593 1228 l 465 956 l 293 956 l 410 1228 m 71 894 l 731 894 l 731 722 l 294 722 l 294 535 l 679 535 l 679 360 l 294 360 l 294 172 l 731 172 l 731 0 l 71 0 l 71 894 z "},"Ĕ":{"ha":767,"x_min":71,"x_max":731,"o":"m 407 956 q 232 1019 297 956 q 167 1194 167 1082 l 314 1194 q 337 1112 314 1143 q 407 1081 360 1081 q 479 1112 456 1081 q 503 1194 503 1143 l 650 1194 q 583 1019 650 1082 q 407 956 517 956 m 71 894 l 731 894 l 731 722 l 294 722 l 294 535 l 679 535 l 679 360 l 294 360 l 294 172 l 731 172 l 731 0 l 71 0 l 71 894 z "},"Ě":{"ha":767,"x_min":71,"x_max":731,"o":"m 140 1214 l 311 1214 l 411 1069 l 515 1214 l 682 1214 l 481 954 l 342 954 l 140 1214 m 71 894 l 731 894 l 731 722 l 294 722 l 294 535 l 679 535 l 679 360 l 294 360 l 294 172 l 731 172 l 731 0 l 71 0 l 71 894 z "},"Ê":{"ha":767,"x_min":71,"x_max":731,"o":"m 331 1214 l 469 1214 l 671 954 l 504 954 l 400 1099 l 300 954 l 129 954 l 331 1214 m 71 894 l 731 894 l 731 722 l 294 722 l 294 535 l 679 535 l 679 360 l 294 360 l 294 172 l 731 172 l 731 0 l 71 0 l 71 894 z "},"Ế":{"ha":767,"x_min":71,"x_max":804,"o":"m 638 1331 l 804 1331 l 700 1124 l 542 1124 l 638 1331 m 303 1156 l 471 1156 l 657 956 l 478 956 l 388 1067 l 297 956 l 117 956 l 303 1156 m 71 894 l 731 894 l 731 722 l 294 722 l 294 535 l 679 535 l 679 360 l 294 360 l 294 172 l 731 172 l 731 0 l 71 0 l 71 894 z "},"Ệ":{"ha":767,"x_min":71,"x_max":731,"o":"m 321 1215 l 460 1215 l 661 956 l 494 956 l 390 1100 l 290 956 l 119 956 l 321 1215 m 71 894 l 731 894 l 731 722 l 294 722 l 294 535 l 679 535 l 679 360 l 294 360 l 294 172 l 731 172 l 731 0 l 71 0 l 71 894 m 310 -97 l 474 -97 l 474 -249 l 310 -249 l 310 -97 z "},"Ề":{"ha":767,"x_min":-19,"x_max":731,"o":"m -19 1331 l 147 1331 l 243 1124 l 85 1124 l -19 1331 m 314 1156 l 482 1156 l 668 956 l 488 956 l 397 1067 l 307 956 l 128 956 l 314 1156 m 71 894 l 731 894 l 731 722 l 294 722 l 294 535 l 679 535 l 679 360 l 294 360 l 294 172 l 731 172 l 731 0 l 71 0 l 71 894 z "},"Ể":{"ha":767,"x_min":71,"x_max":815,"o":"m 561 1192 q 641 1204 619 1193 q 663 1238 663 1215 q 603 1272 663 1272 q 529 1258 564 1272 l 529 1351 q 656 1368 583 1368 q 774 1337 733 1368 q 815 1253 815 1306 q 713 1139 815 1156 l 713 1093 l 561 1093 l 561 1192 m 308 1156 l 476 1156 l 663 956 l 483 956 l 393 1067 l 303 956 l 122 956 l 308 1156 m 71 894 l 731 894 l 731 722 l 294 722 l 294 535 l 679 535 l 679 360 l 294 360 l 294 172 l 731 172 l 731 0 l 71 0 l 71 894 z "},"Ễ":{"ha":767,"x_min":71,"x_max":731,"o":"m 535 1176 q 478 1183 506 1176 q 408 1206 451 1190 q 349 1225 374 1218 q 300 1232 324 1232 q 172 1181 221 1232 l 172 1307 q 226 1339 192 1326 q 296 1351 260 1351 q 350 1344 325 1351 q 418 1322 375 1338 q 481 1301 457 1308 q 531 1294 504 1294 q 601 1309 571 1294 q 650 1349 632 1324 l 650 1221 q 605 1189 636 1201 q 535 1176 574 1176 m 315 1156 l 483 1156 l 669 956 l 490 956 l 400 1067 l 310 956 l 129 956 l 315 1156 m 71 894 l 731 894 l 731 722 l 294 722 l 294 535 l 679 535 l 679 360 l 294 360 l 294 172 l 731 172 l 731 0 l 71 0 l 71 894 z "},"Ë":{"ha":767,"x_min":71,"x_max":731,"o":"m 181 1143 l 344 1143 l 344 992 l 181 992 l 181 1143 m 467 1143 l 631 1143 l 631 992 l 467 992 l 467 1143 m 71 894 l 731 894 l 731 722 l 294 722 l 294 535 l 679 535 l 679 360 l 294 360 l 294 172 l 731 172 l 731 0 l 71 0 l 71 894 z "},"Ė":{"ha":767,"x_min":71,"x_max":731,"o":"m 318 1143 l 481 1143 l 481 992 l 318 992 l 318 1143 m 71 894 l 731 894 l 731 722 l 294 722 l 294 535 l 679 535 l 679 360 l 294 360 l 294 172 l 731 172 l 731 0 l 71 0 l 71 894 z "},"Ẹ":{"ha":767,"x_min":71,"x_max":731,"o":"m 71 894 l 731 894 l 731 722 l 294 722 l 294 535 l 679 535 l 679 360 l 294 360 l 294 172 l 731 172 l 731 0 l 71 0 l 71 894 m 308 -97 l 472 -97 l 472 -249 l 308 -249 l 308 -97 z "},"È":{"ha":767,"x_min":71,"x_max":731,"o":"m 208 1228 l 392 1228 l 508 956 l 338 956 l 208 1228 m 71 894 l 731 894 l 731 722 l 294 722 l 294 535 l 679 535 l 679 360 l 294 360 l 294 172 l 731 172 l 731 0 l 71 0 l 71 894 z "},"Ẻ":{"ha":767,"x_min":71,"x_max":731,"o":"m 311 1068 q 408 1088 382 1072 q 435 1132 435 1103 q 344 1182 435 1182 q 261 1169 301 1182 l 261 1269 q 410 1289 317 1289 q 549 1251 500 1289 q 599 1151 599 1214 q 571 1063 599 1093 q 481 1017 543 1032 l 481 956 l 311 956 l 311 1068 m 71 894 l 731 894 l 731 722 l 294 722 l 294 535 l 679 535 l 679 360 l 294 360 l 294 172 l 731 172 l 731 0 l 71 0 l 71 894 z "},"Ē":{"ha":767,"x_min":71,"x_max":731,"o":"m 168 1139 l 610 1139 l 610 1004 l 168 1004 l 168 1139 m 71 894 l 731 894 l 731 722 l 294 722 l 294 535 l 679 535 l 679 360 l 294 360 l 294 172 l 731 172 l 731 0 l 71 0 l 71 894 z "},"Ę":{"ha":767,"x_min":71,"x_max":731,"o":"m 294 722 l 294 535 l 679 535 l 679 360 l 294 360 l 294 172 l 731 172 l 731 0 l 676 0 q 589 -135 589 -67 q 650 -187 589 -187 q 688 -183 668 -187 q 719 -172 707 -179 l 719 -285 q 663 -299 699 -293 q 589 -306 626 -306 q 466 -272 514 -306 q 418 -175 418 -239 q 445 -78 418 -124 q 519 0 472 -32 l 71 0 l 71 894 l 731 894 l 731 722 l 294 722 z "},"Ẽ":{"ha":767,"x_min":71,"x_max":731,"o":"m 529 969 q 470 977 500 969 q 400 1000 440 985 q 340 1019 365 1013 q 292 1026 315 1026 q 161 974 214 1026 l 161 1122 q 216 1154 182 1142 q 288 1167 250 1167 q 343 1160 318 1167 q 411 1138 368 1153 q 474 1117 450 1124 q 525 1110 499 1110 q 597 1124 565 1110 q 646 1164 628 1139 l 646 1014 q 600 982 632 994 q 529 969 568 969 m 71 894 l 731 894 l 731 722 l 294 722 l 294 535 l 679 535 l 679 360 l 294 360 l 294 172 l 731 172 l 731 0 l 71 0 l 71 894 z "},"F":{"ha":736,"x_min":71,"x_max":721,"o":"m 71 894 l 721 894 l 721 722 l 294 722 l 294 535 l 669 535 l 669 360 l 294 360 l 294 0 l 71 0 l 71 894 z "},"G":{"ha":899,"x_min":43,"x_max":856,"o":"m 517 -14 q 165 103 286 -14 q 43 435 43 219 q 168 785 43 661 q 531 908 293 908 q 804 869 688 908 l 804 678 q 547 717 699 717 q 337 649 403 717 q 271 435 271 581 q 333 240 271 303 q 518 176 394 176 q 668 199 599 176 l 668 368 l 475 368 l 475 508 l 856 508 l 856 65 q 717 8 801 31 q 517 -14 632 -14 z "},"Ğ":{"ha":899,"x_min":43,"x_max":856,"o":"m 517 956 q 342 1019 407 956 q 276 1194 276 1082 l 424 1194 q 447 1112 424 1143 q 517 1081 469 1081 q 589 1112 565 1081 q 613 1194 613 1143 l 760 1194 q 693 1019 760 1082 q 517 956 626 956 m 517 -14 q 165 103 286 -14 q 43 435 43 219 q 168 785 43 661 q 531 908 293 908 q 804 869 688 908 l 804 678 q 547 717 699 717 q 337 649 403 717 q 271 435 271 581 q 333 240 271 303 q 518 176 394 176 q 668 199 599 176 l 668 368 l 475 368 l 475 508 l 856 508 l 856 65 q 717 8 801 31 q 517 -14 632 -14 z "},"Ǧ":{"ha":899,"x_min":43,"x_max":856,"o":"m 242 1215 l 413 1215 l 513 1071 l 617 1215 l 783 1215 l 582 956 l 443 956 l 242 1215 m 517 -14 q 165 103 286 -14 q 43 435 43 219 q 168 785 43 661 q 531 908 293 908 q 804 869 688 908 l 804 678 q 547 717 699 717 q 337 649 403 717 q 271 435 271 581 q 333 240 271 303 q 518 176 394 176 q 668 199 599 176 l 668 368 l 475 368 l 475 508 l 856 508 l 856 65 q 717 8 801 31 q 517 -14 632 -14 z "},"Ĝ":{"ha":899,"x_min":43,"x_max":856,"o":"m 432 1214 l 571 1214 l 772 954 l 606 954 l 501 1099 l 401 954 l 231 954 l 432 1214 m 517 -14 q 165 103 286 -14 q 43 435 43 219 q 168 785 43 661 q 531 908 293 908 q 804 869 688 908 l 804 678 q 547 717 699 717 q 337 649 403 717 q 271 435 271 581 q 333 240 271 303 q 518 176 394 176 q 668 199 599 176 l 668 368 l 475 368 l 475 508 l 856 508 l 856 65 q 717 8 801 31 q 517 -14 632 -14 z "},"Ģ":{"ha":899,"x_min":43,"x_max":856,"o":"m 517 -14 q 165 103 286 -14 q 43 435 43 219 q 168 785 43 661 q 531 908 293 908 q 804 869 688 908 l 804 678 q 547 717 699 717 q 337 649 403 717 q 271 435 271 581 q 333 240 271 303 q 518 176 394 176 q 668 199 599 176 l 668 368 l 475 368 l 475 508 l 856 508 l 856 65 q 717 8 801 31 q 517 -14 632 -14 m 443 -51 l 622 -51 l 549 -347 l 397 -347 l 443 -51 z "},"Ġ":{"ha":899,"x_min":43,"x_max":856,"o":"m 446 1143 l 608 1143 l 608 992 l 446 992 l 446 1143 m 517 -14 q 165 103 286 -14 q 43 435 43 219 q 168 785 43 661 q 531 908 293 908 q 804 869 688 908 l 804 678 q 547 717 699 717 q 337 649 403 717 q 271 435 271 581 q 333 240 271 303 q 518 176 394 176 q 668 199 599 176 l 668 368 l 475 368 l 475 508 l 856 508 l 856 65 q 717 8 801 31 q 517 -14 632 -14 z "},"Ḡ":{"ha":899,"x_min":43,"x_max":856,"o":"m 299 1131 l 740 1131 l 740 996 l 299 996 l 299 1131 m 517 -14 q 165 103 286 -14 q 43 435 43 219 q 168 785 43 661 q 531 908 293 908 q 804 869 688 908 l 804 678 q 547 717 699 717 q 337 649 403 717 q 271 435 271 581 q 333 240 271 303 q 518 176 394 176 q 668 199 599 176 l 668 368 l 475 368 l 475 508 l 856 508 l 856 65 q 717 8 801 31 q 517 -14 632 -14 z "},"H":{"ha":939,"x_min":71,"x_max":868,"o":"m 71 894 l 294 894 l 294 540 l 644 540 l 644 894 l 868 894 l 868 0 l 644 0 l 644 354 l 294 354 l 294 0 l 71 0 l 71 894 z "},"Ħ":{"ha":940,"x_min":14,"x_max":925,"o":"m 71 631 l 14 631 l 14 790 l 71 790 l 71 894 l 294 894 l 294 790 l 644 790 l 644 894 l 868 894 l 868 790 l 925 790 l 925 631 l 868 631 l 868 0 l 644 0 l 644 354 l 294 354 l 294 0 l 71 0 l 71 631 m 644 540 l 644 631 l 294 631 l 294 540 l 644 540 z "},"Ḫ":{"ha":939,"x_min":71,"x_max":868,"o":"m 71 894 l 294 894 l 294 540 l 644 540 l 644 894 l 868 894 l 868 0 l 644 0 l 644 354 l 294 354 l 294 0 l 71 0 l 71 894 m 468 -315 q 293 -252 358 -315 q 228 -76 228 -189 l 375 -76 q 398 -159 375 -128 q 468 -190 421 -190 q 540 -159 517 -190 q 564 -76 564 -128 l 711 -76 q 644 -252 711 -189 q 468 -315 578 -315 z "},"Ĥ":{"ha":939,"x_min":71,"x_max":868,"o":"m 399 1214 l 538 1214 l 739 954 l 572 954 l 468 1099 l 368 954 l 197 954 l 399 1214 m 71 894 l 294 894 l 294 540 l 644 540 l 644 894 l 868 894 l 868 0 l 644 0 l 644 354 l 294 354 l 294 0 l 71 0 l 71 894 z "},"Ḥ":{"ha":939,"x_min":71,"x_max":868,"o":"m 71 894 l 294 894 l 294 540 l 644 540 l 644 894 l 868 894 l 868 0 l 644 0 l 644 354 l 294 354 l 294 0 l 71 0 l 71 894 m 388 -111 l 551 -111 l 551 -262 l 388 -262 l 388 -111 z "},"I":{"ha":365,"x_min":71,"x_max":294,"o":"m 71 894 l 294 894 l 294 0 l 71 0 l 71 894 z "},"Ĳ":{"ha":967,"x_min":71,"x_max":901,"o":"m 71 894 l 294 894 l 294 0 l 71 0 l 71 894 m 574 -14 q 368 18 454 -14 l 368 206 q 528 176 435 176 q 643 209 608 176 q 678 318 678 242 l 678 894 l 901 894 l 901 276 q 818 60 901 135 q 574 -14 735 -14 z "},"Í":{"ha":367,"x_min":71,"x_max":393,"o":"m 210 1228 l 393 1228 l 265 956 l 93 956 l 210 1228 m 71 894 l 294 894 l 294 0 l 71 0 l 71 894 z "},"Ĭ":{"ha":367,"x_min":-58,"x_max":425,"o":"m 182 979 q 7 1042 72 979 q -58 1218 -58 1106 l 89 1218 q 112 1135 89 1167 q 182 1104 135 1104 q 254 1135 231 1104 q 278 1218 278 1167 l 425 1218 q 358 1042 425 1106 q 182 979 292 979 m 71 894 l 294 894 l 294 0 l 71 0 l 71 894 z "},"Ǐ":{"ha":367,"x_min":-89,"x_max":453,"o":"m -89 1215 l 82 1215 l 182 1071 l 286 1215 l 453 1215 l 251 956 l 113 956 l -89 1215 m 71 894 l 294 894 l 294 0 l 71 0 l 71 894 z "},"Î":{"ha":367,"x_min":-89,"x_max":453,"o":"m 113 1214 l 251 1214 l 453 954 l 286 954 l 182 1099 l 82 954 l -89 954 l 113 1214 m 71 894 l 294 894 l 294 0 l 71 0 l 71 894 z "},"Ï":{"ha":365,"x_min":-42,"x_max":408,"o":"m -42 1151 l 122 1151 l 122 1000 l -42 1000 l -42 1151 m 244 1151 l 408 1151 l 408 1000 l 244 1000 l 244 1151 m 71 894 l 294 894 l 294 0 l 71 0 l 71 894 z "},"İ":{"ha":365,"x_min":71,"x_max":294,"o":"m 101 1151 l 264 1151 l 264 1000 l 101 1000 l 101 1151 m 71 894 l 294 894 l 294 0 l 71 0 l 71 894 z "},"Ị":{"ha":365,"x_min":71,"x_max":294,"o":"m 71 894 l 294 894 l 294 0 l 71 0 l 71 894 m 100 -97 l 264 -97 l 264 -249 l 100 -249 l 100 -97 z "},"Ì":{"ha":365,"x_min":-31,"x_max":294,"o":"m -31 1228 l 153 1228 l 269 956 l 99 956 l -31 1228 m 71 894 l 294 894 l 294 0 l 71 0 l 71 894 z "},"Ỉ":{"ha":367,"x_min":42,"x_max":379,"o":"m 92 1068 q 189 1088 163 1072 q 215 1132 215 1103 q 125 1182 215 1182 q 42 1169 82 1182 l 42 1269 q 190 1289 97 1289 q 330 1251 281 1289 q 379 1151 379 1214 q 351 1063 379 1093 q 261 1017 324 1032 l 261 956 l 92 956 l 92 1068 m 71 894 l 294 894 l 294 0 l 71 0 l 71 894 z "},"Ī":{"ha":367,"x_min":-37,"x_max":404,"o":"m -37 1139 l 404 1139 l 404 1004 l -37 1004 l -37 1139 m 71 894 l 294 894 l 294 0 l 71 0 l 71 894 z "},"Į":{"ha":367,"x_min":6,"x_max":307,"o":"m 238 -187 q 275 -183 256 -187 q 307 -172 294 -179 l 307 -285 q 250 -299 286 -293 q 176 -306 214 -306 q 53 -272 101 -306 q 6 -175 6 -239 q 33 -78 6 -124 q 107 0 60 -32 l 71 0 l 71 894 l 294 894 l 294 0 l 264 0 q 176 -135 176 -67 q 238 -187 176 -187 z "},"Ĩ":{"ha":367,"x_min":-60,"x_max":425,"o":"m 308 979 q 249 987 279 979 q 179 1010 219 994 q 119 1029 144 1022 q 71 1036 94 1036 q -60 983 -7 1036 l -60 1132 q -5 1164 -39 1151 q 67 1176 29 1176 q 122 1169 97 1176 q 190 1147 147 1163 q 253 1126 229 1133 q 304 1119 278 1119 q 376 1134 344 1119 q 425 1174 407 1149 l 425 1024 q 379 992 411 1004 q 308 979 347 979 m 71 894 l 294 894 l 294 0 l 71 0 l 71 894 z "},"J":{"ha":613,"x_min":15,"x_max":549,"o":"m 221 -14 q 15 18 101 -14 l 15 206 q 175 176 82 176 q 290 209 256 176 q 325 318 325 242 l 325 894 l 549 894 l 549 276 q 465 60 549 135 q 221 -14 382 -14 z "},"Ĵ":{"ha":613,"x_min":15,"x_max":700,"o":"m 360 1214 l 499 1214 l 700 954 l 533 954 l 429 1099 l 329 954 l 158 954 l 360 1214 m 221 -14 q 15 18 101 -14 l 15 206 q 175 176 82 176 q 290 209 256 176 q 325 318 325 242 l 325 894 l 549 894 l 549 276 q 465 60 549 135 q 221 -14 382 -14 z "},"K":{"ha":921,"x_min":71,"x_max":878,"o":"m 71 894 l 294 894 l 294 547 l 603 894 l 858 894 l 539 529 l 878 0 l 639 0 l 400 386 l 294 271 l 294 0 l 71 0 l 71 894 z "},"Ķ":{"ha":921,"x_min":71,"x_max":878,"o":"m 71 894 l 294 894 l 294 547 l 603 894 l 858 894 l 539 529 l 878 0 l 639 0 l 400 386 l 294 271 l 294 0 l 71 0 l 71 894 m 378 -51 l 557 -51 l 483 -347 l 332 -347 l 378 -51 z "},"L":{"ha":732,"x_min":71,"x_max":717,"o":"m 71 894 l 294 894 l 294 172 l 717 172 l 717 0 l 71 0 l 71 894 z "},"Ĺ":{"ha":732,"x_min":71,"x_max":717,"o":"m 211 1228 l 394 1228 l 267 956 l 94 956 l 211 1228 m 71 894 l 294 894 l 294 172 l 717 172 l 717 0 l 71 0 l 71 894 z "},"Ľ":{"ha":732,"x_min":71,"x_max":717,"o":"m 471 1122 l 650 1122 l 576 826 l 425 826 l 471 1122 m 71 894 l 294 894 l 294 172 l 717 172 l 717 0 l 71 0 l 71 894 z "},"Ļ":{"ha":732,"x_min":71,"x_max":717,"o":"m 71 894 l 294 894 l 294 172 l 717 172 l 717 0 l 71 0 l 71 894 m 326 -51 l 506 -51 l 432 -347 l 281 -347 l 326 -51 z "},"Ŀ":{"ha":732,"x_min":71,"x_max":717,"o":"m 71 894 l 294 894 l 294 172 l 717 172 l 717 0 l 71 0 l 71 894 m 467 546 l 631 546 l 631 394 l 467 394 l 467 546 z "},"Ḷ":{"ha":732,"x_min":71,"x_max":717,"o":"m 71 894 l 294 894 l 294 172 l 717 172 l 717 0 l 71 0 l 71 894 m 301 -97 l 465 -97 l 465 -249 l 301 -249 l 301 -97 z "},"Ḹ":{"ha":732,"x_min":-14,"x_max":717,"o":"m -14 1131 l 428 1131 l 428 996 l -14 996 l -14 1131 m 71 894 l 294 894 l 294 172 l 717 172 l 717 0 l 71 0 l 71 894 m 301 -97 l 465 -97 l 465 -249 l 301 -249 l 301 -97 z "},"Ḻ":{"ha":732,"x_min":71,"x_max":717,"o":"m 71 894 l 294 894 l 294 172 l 717 172 l 717 0 l 71 0 l 71 894 m 167 -97 l 608 -97 l 608 -233 l 167 -233 l 167 -97 z "},"Ł":{"ha":732,"x_min":-37,"x_max":717,"o":"m 71 346 l -37 299 l -37 458 l 71 506 l 71 894 l 294 894 l 294 603 l 442 668 l 442 508 l 294 443 l 294 172 l 717 172 l 717 0 l 71 0 l 71 346 z "},"M":{"ha":1067,"x_min":71,"x_max":996,"o":"m 71 894 l 292 894 l 535 399 l 776 894 l 996 894 l 996 0 l 772 0 l 772 514 l 596 153 l 472 153 l 294 514 l 294 0 l 71 0 l 71 894 z "},"Ṃ":{"ha":1067,"x_min":71,"x_max":996,"o":"m 71 894 l 292 894 l 535 399 l 776 894 l 996 894 l 996 0 l 772 0 l 772 514 l 596 153 l 472 153 l 294 514 l 294 0 l 71 0 l 71 894 m 461 -97 l 625 -97 l 625 -249 l 461 -249 l 461 -97 z "},"N":{"ha":939,"x_min":71,"x_max":868,"o":"m 71 894 l 263 894 l 643 360 l 643 894 l 868 894 l 868 0 l 675 0 l 294 533 l 294 0 l 71 0 l 71 894 z "},"Ń":{"ha":939,"x_min":71,"x_max":868,"o":"m 476 1228 l 660 1228 l 532 956 l 360 956 l 476 1228 m 71 894 l 263 894 l 643 360 l 643 894 l 868 894 l 868 0 l 675 0 l 294 533 l 294 0 l 71 0 l 71 894 z "},"Ň":{"ha":939,"x_min":71,"x_max":868,"o":"m 199 1214 l 369 1214 l 469 1069 l 574 1214 l 740 1214 l 539 954 l 400 954 l 199 1214 m 71 894 l 263 894 l 643 360 l 643 894 l 868 894 l 868 0 l 675 0 l 294 533 l 294 0 l 71 0 l 71 894 z "},"Ņ":{"ha":939,"x_min":71,"x_max":868,"o":"m 71 894 l 263 894 l 643 360 l 643 894 l 868 894 l 868 0 l 675 0 l 294 533 l 294 0 l 71 0 l 71 894 m 393 -51 l 572 -51 l 499 -347 l 347 -347 l 393 -51 z "},"Ṅ":{"ha":939,"x_min":71,"x_max":868,"o":"m 392 1143 l 554 1143 l 554 992 l 392 992 l 392 1143 m 71 894 l 263 894 l 643 360 l 643 894 l 868 894 l 868 0 l 675 0 l 294 533 l 294 0 l 71 0 l 71 894 z "},"Ṇ":{"ha":939,"x_min":71,"x_max":868,"o":"m 71 894 l 263 894 l 643 360 l 643 894 l 868 894 l 868 0 l 675 0 l 294 533 l 294 0 l 71 0 l 71 894 m 389 -97 l 553 -97 l 553 -249 l 389 -249 l 389 -97 z "},"Ŋ":{"ha":939,"x_min":71,"x_max":868,"o":"m 626 -325 q 463 -297 528 -325 l 463 -149 q 546 -162 504 -162 q 619 -142 596 -162 q 643 -76 643 -121 l 643 44 l 294 533 l 294 0 l 71 0 l 71 894 l 263 894 l 643 360 l 643 894 l 868 894 l 868 -96 q 807 -263 868 -201 q 626 -325 746 -325 z "},"Ṉ":{"ha":939,"x_min":71,"x_max":868,"o":"m 71 894 l 263 894 l 643 360 l 643 894 l 868 894 l 868 0 l 675 0 l 294 533 l 294 0 l 71 0 l 71 894 m 254 -94 l 696 -94 l 696 -231 l 254 -231 l 254 -94 z "},"Ñ":{"ha":939,"x_min":71,"x_max":868,"o":"m 607 969 q 548 977 578 969 q 478 1000 518 985 q 418 1019 443 1013 q 369 1026 393 1026 q 239 974 292 1026 l 239 1122 q 294 1154 260 1142 q 365 1167 328 1167 q 421 1160 396 1167 q 489 1138 446 1153 q 552 1117 528 1124 q 603 1110 576 1110 q 674 1124 643 1110 q 724 1164 706 1139 l 724 1014 q 678 982 710 994 q 607 969 646 969 m 71 894 l 263 894 l 643 360 l 643 894 l 868 894 l 868 0 l 675 0 l 294 533 l 294 0 l 71 0 l 71 894 z "},"O":{"ha":978,"x_min":43,"x_max":935,"o":"m 489 -14 q 156 99 268 -14 q 43 443 43 211 q 154 797 43 686 q 489 908 265 908 q 823 797 711 908 q 935 443 935 686 q 822 99 935 211 q 489 -14 710 -14 m 489 176 q 653 241 601 176 q 706 443 706 306 q 654 654 706 592 q 489 717 603 717 q 322 654 374 717 q 271 443 271 592 q 323 241 271 306 q 489 176 375 176 z "},"Ó":{"ha":978,"x_min":43,"x_max":935,"o":"m 504 1228 l 688 1228 l 560 956 l 388 956 l 504 1228 m 489 -14 q 156 99 268 -14 q 43 443 43 211 q 154 797 43 686 q 489 908 265 908 q 823 797 711 908 q 935 443 935 686 q 822 99 935 211 q 489 -14 710 -14 m 489 176 q 653 241 601 176 q 706 443 706 306 q 654 654 706 592 q 489 717 603 717 q 322 654 374 717 q 271 443 271 592 q 323 241 271 306 q 489 176 375 176 z "},"Ŏ":{"ha":978,"x_min":43,"x_max":935,"o":"m 488 956 q 313 1019 378 956 q 247 1194 247 1082 l 394 1194 q 417 1112 394 1143 q 488 1081 440 1081 q 560 1112 536 1081 q 583 1194 583 1143 l 731 1194 q 664 1019 731 1082 q 488 956 597 956 m 489 -14 q 156 99 268 -14 q 43 443 43 211 q 154 797 43 686 q 489 908 265 908 q 823 797 711 908 q 935 443 935 686 q 822 99 935 211 q 489 -14 710 -14 m 489 176 q 653 241 601 176 q 706 443 706 306 q 654 654 706 592 q 489 717 603 717 q 322 654 374 717 q 271 443 271 592 q 323 241 271 306 q 489 176 375 176 z "},"Ǒ":{"ha":978,"x_min":43,"x_max":935,"o":"m 217 1215 l 388 1215 l 488 1071 l 592 1215 l 758 1215 l 557 956 l 418 956 l 217 1215 m 489 -14 q 156 99 268 -14 q 43 443 43 211 q 154 797 43 686 q 489 908 265 908 q 823 797 711 908 q 935 443 935 686 q 822 99 935 211 q 489 -14 710 -14 m 489 176 q 653 241 601 176 q 706 443 706 306 q 654 654 706 592 q 489 717 603 717 q 322 654 374 717 q 271 443 271 592 q 323 241 271 306 q 489 176 375 176 z "},"Ô":{"ha":978,"x_min":43,"x_max":935,"o":"m 419 1214 l 558 1214 l 760 954 l 593 954 l 489 1099 l 389 954 l 218 954 l 419 1214 m 489 -14 q 156 99 268 -14 q 43 443 43 211 q 154 797 43 686 q 489 908 265 908 q 823 797 711 908 q 935 443 935 686 q 822 99 935 211 q 489 -14 710 -14 m 489 176 q 653 241 601 176 q 706 443 706 306 q 654 654 706 592 q 489 717 603 717 q 322 654 374 717 q 271 443 271 592 q 323 241 271 306 q 489 176 375 176 z "},"Ố":{"ha":978,"x_min":43,"x_max":935,"o":"m 738 1331 l 904 1331 l 800 1124 l 642 1124 l 738 1331 m 403 1156 l 571 1156 l 757 956 l 578 956 l 488 1067 l 397 956 l 217 956 l 403 1156 m 489 -14 q 156 99 268 -14 q 43 443 43 211 q 154 797 43 686 q 489 908 265 908 q 823 797 711 908 q 935 443 935 686 q 822 99 935 211 q 489 -14 710 -14 m 489 176 q 653 241 601 176 q 706 443 706 306 q 654 654 706 592 q 489 717 603 717 q 322 654 374 717 q 271 443 271 592 q 323 241 271 306 q 489 176 375 176 z "},"Ộ":{"ha":978,"x_min":43,"x_max":935,"o":"m 418 1217 l 557 1217 l 758 957 l 592 957 l 488 1101 l 388 957 l 217 957 l 418 1217 m 489 -14 q 156 99 268 -14 q 43 443 43 211 q 154 797 43 686 q 489 908 265 908 q 823 797 711 908 q 935 443 935 686 q 822 99 935 211 q 489 -14 710 -14 m 489 176 q 653 241 601 176 q 706 443 706 306 q 654 654 706 592 q 489 717 603 717 q 322 654 374 717 q 271 443 271 592 q 323 241 271 306 q 489 176 375 176 m 406 -97 l 569 -97 l 569 -249 l 406 -249 l 406 -97 z "},"Ồ":{"ha":978,"x_min":43,"x_max":935,"o":"m 71 1331 l 238 1331 l 333 1124 l 175 1124 l 71 1331 m 404 1156 l 572 1156 l 758 956 l 578 956 l 488 1067 l 397 956 l 218 956 l 404 1156 m 489 -14 q 156 99 268 -14 q 43 443 43 211 q 154 797 43 686 q 489 908 265 908 q 823 797 711 908 q 935 443 935 686 q 822 99 935 211 q 489 -14 710 -14 m 489 176 q 653 241 601 176 q 706 443 706 306 q 654 654 706 592 q 489 717 603 717 q 322 654 374 717 q 271 443 271 592 q 323 241 271 306 q 489 176 375 176 z "},"Ổ":{"ha":978,"x_min":43,"x_max":935,"o":"m 656 1192 q 735 1204 714 1193 q 757 1238 757 1215 q 697 1272 757 1272 q 624 1258 658 1272 l 624 1351 q 750 1368 678 1368 q 869 1337 828 1368 q 910 1253 910 1306 q 807 1139 910 1156 l 807 1093 l 656 1093 l 656 1192 m 403 1156 l 571 1156 l 757 956 l 578 956 l 488 1067 l 397 956 l 217 956 l 403 1156 m 489 -14 q 156 99 268 -14 q 43 443 43 211 q 154 797 43 686 q 489 908 265 908 q 823 797 711 908 q 935 443 935 686 q 822 99 935 211 q 489 -14 710 -14 m 489 176 q 653 241 601 176 q 706 443 706 306 q 654 654 706 592 q 489 717 603 717 q 322 654 374 717 q 271 443 271 592 q 323 241 271 306 q 489 176 375 176 z "},"Ỗ":{"ha":978,"x_min":43,"x_max":935,"o":"m 613 1208 q 556 1215 583 1208 q 486 1238 529 1222 q 426 1257 451 1250 q 378 1264 401 1264 q 250 1213 299 1264 l 250 1339 q 303 1371 269 1358 q 374 1383 338 1383 q 428 1376 403 1383 q 496 1354 453 1369 q 558 1333 535 1340 q 608 1326 582 1326 q 679 1341 649 1326 q 728 1381 710 1356 l 728 1253 q 683 1221 714 1233 q 613 1208 651 1208 m 488 956 q 313 1012 378 956 q 247 1183 247 1068 l 376 1183 q 405 1099 376 1129 q 488 1068 433 1068 q 571 1099 542 1068 q 600 1183 600 1129 l 728 1183 q 663 1012 728 1068 q 488 956 597 956 m 489 -14 q 156 99 268 -14 q 43 443 43 211 q 154 797 43 686 q 489 908 265 908 q 823 797 711 908 q 935 443 935 686 q 822 99 935 211 q 489 -14 710 -14 m 489 176 q 653 241 601 176 q 706 443 706 306 q 654 654 706 592 q 489 717 603 717 q 322 654 374 717 q 271 443 271 592 q 323 241 271 306 q 489 176 375 176 z "},"Ö":{"ha":978,"x_min":43,"x_max":935,"o":"m 264 1143 l 428 1143 l 428 992 l 264 992 l 264 1143 m 550 1143 l 714 1143 l 714 992 l 550 992 l 550 1143 m 489 -14 q 156 99 268 -14 q 43 443 43 211 q 154 797 43 686 q 489 908 265 908 q 823 797 711 908 q 935 443 935 686 q 822 99 935 211 q 489 -14 710 -14 m 489 176 q 653 241 601 176 q 706 443 706 306 q 654 654 706 592 q 489 717 603 717 q 322 654 374 717 q 271 443 271 592 q 323 241 271 306 q 489 176 375 176 z "},"Ọ":{"ha":978,"x_min":43,"x_max":935,"o":"m 489 -14 q 156 99 268 -14 q 43 443 43 211 q 154 797 43 686 q 489 908 265 908 q 823 797 711 908 q 935 443 935 686 q 822 99 935 211 q 489 -14 710 -14 m 489 176 q 653 241 601 176 q 706 443 706 306 q 654 654 706 592 q 489 717 603 717 q 322 654 374 717 q 271 443 271 592 q 323 241 271 306 q 489 176 375 176 m 407 -97 l 571 -97 l 571 -249 l 407 -249 l 407 -97 z "},"Ò":{"ha":978,"x_min":43,"x_max":935,"o":"m 282 1228 l 465 1228 l 582 956 l 411 956 l 282 1228 m 489 -14 q 156 99 268 -14 q 43 443 43 211 q 154 797 43 686 q 489 908 265 908 q 823 797 711 908 q 935 443 935 686 q 822 99 935 211 q 489 -14 710 -14 m 489 176 q 653 241 601 176 q 706 443 706 306 q 654 654 706 592 q 489 717 603 717 q 322 654 374 717 q 271 443 271 592 q 323 241 271 306 q 489 176 375 176 z "},"Ỏ":{"ha":978,"x_min":43,"x_max":935,"o":"m 400 1068 q 497 1088 471 1072 q 524 1132 524 1103 q 433 1182 524 1182 q 350 1169 390 1182 l 350 1269 q 499 1289 406 1289 q 638 1251 589 1289 q 688 1151 688 1214 q 660 1063 688 1093 q 569 1017 632 1032 l 569 956 l 400 956 l 400 1068 m 489 -14 q 156 99 268 -14 q 43 443 43 211 q 154 797 43 686 q 489 908 265 908 q 823 797 711 908 q 935 443 935 686 q 822 99 935 211 q 489 -14 710 -14 m 489 176 q 653 241 601 176 q 706 443 706 306 q 654 654 706 592 q 489 717 603 717 q 322 654 374 717 q 271 443 271 592 q 323 241 271 306 q 489 176 375 176 z "},"Ơ":{"ha":1090,"x_min":43,"x_max":1085,"o":"m 489 -14 q 156 99 268 -14 q 43 443 43 211 q 154 797 43 686 q 489 908 265 908 q 800 813 692 908 q 897 847 868 815 q 925 956 925 878 l 1085 956 q 1040 759 1085 824 q 897 675 996 694 q 935 443 935 583 q 822 99 935 211 q 489 -14 710 -14 m 489 176 q 653 241 601 176 q 706 443 706 306 q 654 654 706 592 q 489 717 603 717 q 322 654 374 717 q 271 443 271 592 q 323 241 271 306 q 489 176 375 176 z "},"Ớ":{"ha":1090,"x_min":43,"x_max":1085,"o":"m 521 1228 l 704 1228 l 576 956 l 404 956 l 521 1228 m 489 -14 q 156 99 268 -14 q 43 443 43 211 q 154 797 43 686 q 489 908 265 908 q 800 813 692 908 q 897 847 868 815 q 925 956 925 878 l 1085 956 q 1040 759 1085 824 q 897 675 996 694 q 935 443 935 583 q 822 99 935 211 q 489 -14 710 -14 m 489 176 q 653 241 601 176 q 706 443 706 306 q 654 654 706 592 q 489 717 603 717 q 322 654 374 717 q 271 443 271 592 q 323 241 271 306 q 489 176 375 176 z "},"Ợ":{"ha":1090,"x_min":43,"x_max":1085,"o":"m 489 -14 q 156 99 268 -14 q 43 443 43 211 q 154 797 43 686 q 489 908 265 908 q 800 813 692 908 q 897 847 868 815 q 925 956 925 878 l 1085 956 q 1040 759 1085 824 q 897 675 996 694 q 935 443 935 583 q 822 99 935 211 q 489 -14 710 -14 m 489 176 q 653 241 601 176 q 706 443 706 306 q 654 654 706 592 q 489 717 603 717 q 322 654 374 717 q 271 443 271 592 q 323 241 271 306 q 489 176 375 176 m 408 -97 l 572 -97 l 572 -249 l 408 -249 l 408 -97 z "},"Ờ":{"ha":1090,"x_min":43,"x_max":1085,"o":"m 297 1228 l 481 1228 l 597 956 l 426 956 l 297 1228 m 489 -14 q 156 99 268 -14 q 43 443 43 211 q 154 797 43 686 q 489 908 265 908 q 800 813 692 908 q 897 847 868 815 q 925 956 925 878 l 1085 956 q 1040 759 1085 824 q 897 675 996 694 q 935 443 935 583 q 822 99 935 211 q 489 -14 710 -14 m 489 176 q 653 241 601 176 q 706 443 706 306 q 654 654 706 592 q 489 717 603 717 q 322 654 374 717 q 271 443 271 592 q 323 241 271 306 q 489 176 375 176 z "},"Ở":{"ha":1090,"x_min":43,"x_max":1085,"o":"m 404 1068 q 501 1088 475 1072 q 528 1132 528 1103 q 438 1182 528 1182 q 354 1169 394 1182 l 354 1269 q 503 1289 410 1289 q 642 1251 593 1289 q 692 1151 692 1214 q 664 1063 692 1093 q 574 1017 636 1032 l 574 956 l 404 956 l 404 1068 m 489 -14 q 156 99 268 -14 q 43 443 43 211 q 154 797 43 686 q 489 908 265 908 q 800 813 692 908 q 897 847 868 815 q 925 956 925 878 l 1085 956 q 1040 759 1085 824 q 897 675 996 694 q 935 443 935 583 q 822 99 935 211 q 489 -14 710 -14 m 489 176 q 653 241 601 176 q 706 443 706 306 q 654 654 706 592 q 489 717 603 717 q 322 654 374 717 q 271 443 271 592 q 323 241 271 306 q 489 176 375 176 z "},"Ỡ":{"ha":1090,"x_min":43,"x_max":1085,"o":"m 624 964 q 565 972 594 964 q 494 994 535 979 q 435 1014 460 1007 q 386 1021 410 1021 q 256 968 308 1021 l 256 1117 q 310 1149 276 1136 q 382 1161 344 1161 q 438 1154 413 1161 q 506 1132 463 1147 q 569 1111 544 1118 q 619 1104 593 1104 q 691 1119 660 1104 q 740 1158 722 1133 l 740 1008 q 694 976 726 989 q 624 964 663 964 m 489 -14 q 156 99 268 -14 q 43 443 43 211 q 154 797 43 686 q 489 908 265 908 q 800 813 692 908 q 897 847 868 815 q 925 956 925 878 l 1085 956 q 1040 759 1085 824 q 897 675 996 694 q 935 443 935 583 q 822 99 935 211 q 489 -14 710 -14 m 489 176 q 653 241 601 176 q 706 443 706 306 q 654 654 706 592 q 489 717 603 717 q 322 654 374 717 q 271 443 271 592 q 323 241 271 306 q 489 176 375 176 z "},"Ő":{"ha":978,"x_min":43,"x_max":935,"o":"m 319 1206 l 513 1206 l 378 956 l 206 956 l 319 1206 m 640 1206 l 833 1206 l 699 956 l 526 956 l 640 1206 m 489 -14 q 156 99 268 -14 q 43 443 43 211 q 154 797 43 686 q 489 908 265 908 q 823 797 711 908 q 935 443 935 686 q 822 99 935 211 q 489 -14 710 -14 m 489 176 q 653 241 601 176 q 706 443 706 306 q 654 654 706 592 q 489 717 603 717 q 322 654 374 717 q 271 443 271 592 q 323 241 271 306 q 489 176 375 176 z "},"Ō":{"ha":978,"x_min":43,"x_max":935,"o":"m 264 1140 l 706 1140 l 706 1006 l 264 1006 l 264 1140 m 489 -14 q 156 99 268 -14 q 43 443 43 211 q 154 797 43 686 q 489 908 265 908 q 823 797 711 908 q 935 443 935 686 q 822 99 935 211 q 489 -14 710 -14 m 489 176 q 653 241 601 176 q 706 443 706 306 q 654 654 706 592 q 489 717 603 717 q 322 654 374 717 q 271 443 271 592 q 323 241 271 306 q 489 176 375 176 z "},"Ø":{"ha":978,"x_min":43,"x_max":935,"o":"m 256 29 q 43 443 43 124 q 154 797 43 686 q 489 908 265 908 q 594 901 539 908 l 618 963 l 742 963 l 707 872 q 877 722 819 828 q 935 443 935 617 q 822 99 935 211 q 489 -14 710 -14 q 367 -4 432 -14 l 340 -74 l 217 -74 l 256 29 m 522 715 l 489 717 q 322 654 374 717 q 271 443 271 592 q 333 229 271 292 l 522 715 m 489 176 q 653 241 601 176 q 706 443 706 306 q 688 589 706 532 q 631 676 669 646 l 439 179 q 489 176 469 176 z "},"Ǿ":{"ha":978,"x_min":43,"x_max":935,"o":"m 474 1228 l 657 1228 l 529 956 l 357 956 l 474 1228 m 256 29 q 43 443 43 124 q 154 797 43 686 q 489 908 265 908 q 594 901 539 908 l 618 963 l 742 963 l 707 872 q 877 722 819 828 q 935 443 935 617 q 822 99 935 211 q 489 -14 710 -14 q 367 -4 432 -14 l 340 -74 l 217 -74 l 256 29 m 522 715 l 489 717 q 322 654 374 717 q 271 443 271 592 q 333 229 271 292 l 522 715 m 489 176 q 653 241 601 176 q 706 443 706 306 q 688 589 706 532 q 631 676 669 646 l 439 179 q 489 176 469 176 z "},"Õ":{"ha":978,"x_min":43,"x_max":935,"o":"m 615 986 q 556 994 586 986 q 486 1017 526 1001 q 426 1036 451 1029 q 378 1043 401 1043 q 247 990 300 1043 l 247 1139 q 302 1171 268 1158 q 374 1183 336 1183 q 429 1176 404 1183 q 497 1154 454 1169 q 560 1133 536 1140 q 611 1126 585 1126 q 683 1141 651 1126 q 732 1181 714 1156 l 732 1031 q 686 999 718 1011 q 615 986 654 986 m 489 -14 q 156 99 268 -14 q 43 443 43 211 q 154 797 43 686 q 489 908 265 908 q 823 797 711 908 q 935 443 935 686 q 822 99 935 211 q 489 -14 710 -14 m 489 176 q 653 241 601 176 q 706 443 706 306 q 654 654 706 592 q 489 717 603 717 q 322 654 374 717 q 271 443 271 592 q 323 241 271 306 q 489 176 375 176 z "},"Œ":{"ha":1410,"x_min":43,"x_max":1367,"o":"m 931 722 l 931 535 l 1315 535 l 1315 360 l 931 360 l 931 358 l 931 172 l 1367 172 l 1367 0 l 707 0 l 707 22 q 489 -14 614 -14 q 156 99 268 -14 q 43 443 43 211 q 154 797 43 686 q 489 908 265 908 q 707 872 618 908 l 707 894 l 1367 894 l 1367 722 l 931 722 m 489 176 q 653 241 601 176 q 706 443 706 306 q 654 654 706 592 q 489 717 603 717 q 322 654 374 717 q 271 443 271 592 q 323 241 271 306 q 489 176 375 176 z "},"P":{"ha":842,"x_min":71,"x_max":825,"o":"m 71 894 l 511 894 q 745 806 665 894 q 825 575 825 718 q 786 413 825 483 q 674 302 747 342 q 506 263 601 263 l 294 263 l 294 0 l 71 0 l 71 894 m 456 435 q 561 473 525 435 q 597 576 597 511 q 564 685 597 647 q 463 722 531 722 l 294 722 l 294 435 l 456 435 z "},"Þ":{"ha":842,"x_min":71,"x_max":825,"o":"m 71 894 l 294 894 l 294 760 l 511 760 q 745 673 665 760 q 825 444 825 586 q 786 282 825 353 q 674 172 747 211 q 506 132 601 132 l 294 132 l 294 0 l 71 0 l 71 894 m 456 304 q 561 342 525 304 q 597 444 597 379 q 463 588 597 588 l 294 588 l 294 304 l 456 304 z "},"Q":{"ha":978,"x_min":43,"x_max":935,"o":"m 642 -239 q 495 -214 549 -239 q 420 -139 442 -189 q 397 -8 399 -89 q 43 443 43 35 q 154 797 43 686 q 489 908 265 908 q 823 797 711 908 q 935 443 935 686 q 596 -6 935 43 q 611 -67 596 -50 q 667 -85 626 -85 q 754 -74 710 -85 l 754 -225 q 701 -235 735 -231 q 642 -239 667 -239 m 489 176 q 653 241 601 176 q 706 443 706 306 q 654 654 706 592 q 489 717 603 717 q 322 654 374 717 q 271 443 271 592 q 323 241 271 306 q 489 176 375 176 z "},"R":{"ha":869,"x_min":71,"x_max":826,"o":"m 71 894 l 518 894 q 749 813 672 894 q 826 588 826 732 q 781 429 826 497 q 656 328 736 361 q 685 294 674 313 q 713 242 697 276 l 818 0 l 585 0 l 485 228 q 453 271 472 258 q 397 283 433 283 l 294 283 l 294 0 l 71 0 l 71 894 m 460 456 q 563 489 526 456 q 599 588 599 522 q 469 722 599 722 l 294 722 l 294 456 l 460 456 z "},"Ŕ":{"ha":869,"x_min":71,"x_max":826,"o":"m 404 1228 l 588 1228 l 460 956 l 288 956 l 404 1228 m 71 894 l 518 894 q 749 813 672 894 q 826 588 826 732 q 781 429 826 497 q 656 328 736 361 q 685 294 674 313 q 713 242 697 276 l 818 0 l 585 0 l 485 228 q 453 271 472 258 q 397 283 433 283 l 294 283 l 294 0 l 71 0 l 71 894 m 460 456 q 563 489 526 456 q 599 588 599 522 q 469 722 599 722 l 294 722 l 294 456 l 460 456 z "},"Ř":{"ha":869,"x_min":71,"x_max":826,"o":"m 122 1215 l 293 1215 l 393 1071 l 497 1215 l 664 1215 l 463 956 l 324 956 l 122 1215 m 71 894 l 518 894 q 749 813 672 894 q 826 588 826 732 q 781 429 826 497 q 656 328 736 361 q 685 294 674 313 q 713 242 697 276 l 818 0 l 585 0 l 485 228 q 453 271 472 258 q 397 283 433 283 l 294 283 l 294 0 l 71 0 l 71 894 m 460 456 q 563 489 526 456 q 599 588 599 522 q 469 722 599 722 l 294 722 l 294 456 l 460 456 z "},"Ŗ":{"ha":869,"x_min":71,"x_max":826,"o":"m 71 894 l 518 894 q 749 813 672 894 q 826 588 826 732 q 781 429 826 497 q 656 328 736 361 q 685 294 674 313 q 713 242 697 276 l 818 0 l 585 0 l 485 228 q 453 271 472 258 q 397 283 433 283 l 294 283 l 294 0 l 71 0 l 71 894 m 460 456 q 563 489 526 456 q 599 588 599 522 q 469 722 599 722 l 294 722 l 294 456 l 460 456 m 333 -51 l 513 -51 l 439 -347 l 288 -347 l 333 -51 z "},"Ṛ":{"ha":869,"x_min":71,"x_max":826,"o":"m 71 894 l 518 894 q 749 813 672 894 q 826 588 826 732 q 781 429 826 497 q 656 328 736 361 q 685 294 674 313 q 713 242 697 276 l 818 0 l 585 0 l 485 228 q 453 271 472 258 q 397 283 433 283 l 294 283 l 294 0 l 71 0 l 71 894 m 460 456 q 563 489 526 456 q 599 588 599 522 q 469 722 599 722 l 294 722 l 294 456 l 460 456 m 340 -97 l 504 -97 l 504 -249 l 340 -249 l 340 -97 z "},"Ṝ":{"ha":869,"x_min":71,"x_max":826,"o":"m 165 1131 l 607 1131 l 607 996 l 165 996 l 165 1131 m 71 894 l 518 894 q 749 813 672 894 q 826 588 826 732 q 781 429 826 497 q 656 328 736 361 q 685 294 674 313 q 713 242 697 276 l 818 0 l 585 0 l 485 228 q 453 271 472 258 q 397 283 433 283 l 294 283 l 294 0 l 71 0 l 71 894 m 460 456 q 563 489 526 456 q 599 588 599 522 q 469 722 599 722 l 294 722 l 294 456 l 460 456 m 340 -97 l 504 -97 l 504 -249 l 340 -249 l 340 -97 z "},"Ṟ":{"ha":869,"x_min":71,"x_max":826,"o":"m 71 894 l 518 894 q 749 813 672 894 q 826 588 826 732 q 781 429 826 497 q 656 328 736 361 q 685 294 674 313 q 713 242 697 276 l 818 0 l 585 0 l 485 228 q 453 271 472 258 q 397 283 433 283 l 294 283 l 294 0 l 71 0 l 71 894 m 460 456 q 563 489 526 456 q 599 588 599 522 q 469 722 599 722 l 294 722 l 294 456 l 460 456 m 193 -94 l 635 -94 l 635 -231 l 193 -231 l 193 -94 z "},"S":{"ha":771,"x_min":43,"x_max":728,"o":"m 356 -14 q 190 -1 267 -14 q 57 38 113 13 l 57 228 q 193 184 119 200 q 333 168 267 168 q 461 184 424 168 q 499 250 499 200 q 479 305 499 285 q 420 340 460 325 q 290 381 381 354 q 144 442 197 408 q 67 524 90 476 q 43 644 43 572 q 135 841 43 774 q 406 908 228 908 q 553 897 479 908 q 676 869 628 886 l 676 678 q 439 724 561 724 q 313 708 354 724 q 271 646 271 692 q 288 599 271 617 q 341 569 304 582 q 457 535 378 556 q 623 465 564 506 q 705 373 682 425 q 728 250 728 321 q 633 57 728 128 q 356 -14 539 -14 z "},"Ś":{"ha":771,"x_min":43,"x_max":728,"o":"m 397 1229 l 581 1229 l 453 957 l 281 957 l 397 1229 m 356 -14 q 190 -1 267 -14 q 57 38 113 13 l 57 228 q 193 184 119 200 q 333 168 267 168 q 461 184 424 168 q 499 250 499 200 q 479 305 499 285 q 420 340 460 325 q 290 381 381 354 q 144 442 197 408 q 67 524 90 476 q 43 644 43 572 q 135 841 43 774 q 406 908 228 908 q 553 897 479 908 q 676 869 628 886 l 676 678 q 439 724 561 724 q 313 708 354 724 q 271 646 271 692 q 288 599 271 617 q 341 569 304 582 q 457 535 378 556 q 623 465 564 506 q 705 373 682 425 q 728 250 728 321 q 633 57 728 128 q 356 -14 539 -14 z "},"Š":{"ha":771,"x_min":43,"x_max":728,"o":"m 113 1215 l 283 1215 l 383 1071 l 488 1215 l 654 1215 l 453 956 l 314 956 l 113 1215 m 356 -14 q 190 -1 267 -14 q 57 38 113 13 l 57 228 q 193 184 119 200 q 333 168 267 168 q 461 184 424 168 q 499 250 499 200 q 479 305 499 285 q 420 340 460 325 q 290 381 381 354 q 144 442 197 408 q 67 524 90 476 q 43 644 43 572 q 135 841 43 774 q 406 908 228 908 q 553 897 479 908 q 676 869 628 886 l 676 678 q 439 724 561 724 q 313 708 354 724 q 271 646 271 692 q 288 599 271 617 q 341 569 304 582 q 457 535 378 556 q 623 465 564 506 q 705 373 682 425 q 728 250 728 321 q 633 57 728 128 q 356 -14 539 -14 z "},"Ş":{"ha":771,"x_min":43,"x_max":728,"o":"m 728 250 q 653 74 728 142 q 435 -10 579 6 l 418 -60 q 532 -94 494 -60 q 569 -189 569 -128 q 515 -296 569 -258 q 351 -333 461 -333 q 292 -330 328 -333 q 242 -322 257 -326 l 242 -224 q 325 -235 282 -235 q 408 -225 385 -235 q 431 -186 431 -215 q 409 -148 431 -157 q 340 -139 388 -139 l 265 -139 l 301 -12 q 57 38 156 -6 l 57 228 q 193 184 119 200 q 333 168 267 168 q 461 184 424 168 q 499 250 499 200 q 479 305 499 285 q 420 340 460 325 q 290 381 381 354 q 144 442 197 408 q 67 524 90 476 q 43 644 43 572 q 135 841 43 774 q 406 908 228 908 q 553 897 479 908 q 676 869 628 886 l 676 678 q 439 724 561 724 q 313 708 354 724 q 271 646 271 692 q 288 599 271 617 q 341 569 304 582 q 457 535 378 556 q 623 465 564 506 q 705 373 682 425 q 728 250 728 321 z "},"Ŝ":{"ha":771,"x_min":43,"x_max":728,"o":"m 300 1217 l 439 1217 l 640 957 l 474 957 l 369 1101 l 269 957 l 99 957 l 300 1217 m 356 -14 q 190 -1 267 -14 q 57 38 113 13 l 57 228 q 193 184 119 200 q 333 168 267 168 q 461 184 424 168 q 499 250 499 200 q 479 305 499 285 q 420 340 460 325 q 290 381 381 354 q 144 442 197 408 q 67 524 90 476 q 43 644 43 572 q 135 841 43 774 q 406 908 228 908 q 553 897 479 908 q 676 869 628 886 l 676 678 q 439 724 561 724 q 313 708 354 724 q 271 646 271 692 q 288 599 271 617 q 341 569 304 582 q 457 535 378 556 q 623 465 564 506 q 705 373 682 425 q 728 250 728 321 q 633 57 728 128 q 356 -14 539 -14 z "},"Ș":{"ha":771,"x_min":43,"x_max":728,"o":"m 356 -14 q 190 -1 267 -14 q 57 38 113 13 l 57 228 q 193 184 119 200 q 333 168 267 168 q 461 184 424 168 q 499 250 499 200 q 479 305 499 285 q 420 340 460 325 q 290 381 381 354 q 144 442 197 408 q 67 524 90 476 q 43 644 43 572 q 135 841 43 774 q 406 908 228 908 q 553 897 479 908 q 676 869 628 886 l 676 678 q 439 724 561 724 q 313 708 354 724 q 271 646 271 692 q 288 599 271 617 q 341 569 304 582 q 457 535 378 556 q 623 465 564 506 q 705 373 682 425 q 728 250 728 321 q 633 57 728 128 q 356 -14 539 -14 m 301 -62 l 486 -62 l 424 -321 l 260 -321 l 301 -62 z "},"Ṡ":{"ha":771,"x_min":43,"x_max":728,"o":"m 296 1143 l 458 1143 l 458 992 l 296 992 l 296 1143 m 356 -14 q 190 -1 267 -14 q 57 38 113 13 l 57 228 q 193 184 119 200 q 333 168 267 168 q 461 184 424 168 q 499 250 499 200 q 479 305 499 285 q 420 340 460 325 q 290 381 381 354 q 144 442 197 408 q 67 524 90 476 q 43 644 43 572 q 135 841 43 774 q 406 908 228 908 q 553 897 479 908 q 676 869 628 886 l 676 678 q 439 724 561 724 q 313 708 354 724 q 271 646 271 692 q 288 599 271 617 q 341 569 304 582 q 457 535 378 556 q 623 465 564 506 q 705 373 682 425 q 728 250 728 321 q 633 57 728 128 q 356 -14 539 -14 z "},"Ṣ":{"ha":771,"x_min":43,"x_max":728,"o":"m 356 -14 q 190 -1 267 -14 q 57 38 113 13 l 57 228 q 193 184 119 200 q 333 168 267 168 q 461 184 424 168 q 499 250 499 200 q 479 305 499 285 q 420 340 460 325 q 290 381 381 354 q 144 442 197 408 q 67 524 90 476 q 43 644 43 572 q 135 841 43 774 q 406 908 228 908 q 553 897 479 908 q 676 869 628 886 l 676 678 q 439 724 561 724 q 313 708 354 724 q 271 646 271 692 q 288 599 271 617 q 341 569 304 582 q 457 535 378 556 q 623 465 564 506 q 705 373 682 425 q 728 250 728 321 q 633 57 728 128 q 356 -14 539 -14 m 296 -97 l 460 -97 l 460 -249 l 296 -249 l 296 -97 z "},"ẞ":{"ha":879,"x_min":64,"x_max":836,"o":"m 551 -14 q 357 17 438 -14 l 357 189 q 424 169 386 176 q 499 163 463 163 q 615 258 615 163 q 587 321 615 301 q 503 340 558 340 l 388 340 l 388 492 l 596 632 q 556 695 596 671 q 439 719 517 719 q 315 683 354 719 q 275 572 275 646 l 275 0 l 64 0 l 64 574 q 163 819 64 731 q 439 908 261 908 q 714 820 622 908 q 806 593 806 732 l 604 458 l 635 458 q 780 401 724 458 q 836 250 836 343 q 759 58 836 131 q 551 -14 682 -14 z "},"Ə":{"ha":950,"x_min":43,"x_max":907,"o":"m 463 -14 q 151 90 260 -14 q 43 376 43 193 l 43 540 l 697 540 q 656 664 690 619 q 556 727 622 708 q 378 746 489 746 q 228 729 313 746 q 92 690 143 713 l 92 849 q 249 892 161 875 q 426 908 338 908 q 783 785 658 908 q 907 435 907 661 q 797 104 907 222 q 463 -14 688 -14 m 463 139 q 640 199 583 139 q 697 382 697 260 l 240 382 l 240 326 q 299 189 240 239 q 463 139 357 139 z "},"T":{"ha":779,"x_min":15,"x_max":764,"o":"m 278 722 l 15 722 l 15 894 l 764 894 l 764 722 l 501 722 l 501 0 l 278 0 l 278 722 z "},"Ŧ":{"ha":779,"x_min":15,"x_max":764,"o":"m 278 388 l 126 388 l 126 544 l 278 544 l 278 722 l 15 722 l 15 894 l 764 894 l 764 722 l 501 722 l 501 544 l 649 544 l 649 388 l 501 388 l 501 0 l 278 0 l 278 388 z "},"Ť":{"ha":779,"x_min":15,"x_max":764,"o":"m 118 1215 l 289 1215 l 389 1071 l 493 1215 l 660 1215 l 458 956 l 319 956 l 118 1215 m 278 722 l 15 722 l 15 894 l 764 894 l 764 722 l 501 722 l 501 0 l 278 0 l 278 722 z "},"Ţ":{"ha":779,"x_min":15,"x_max":764,"o":"m 454 0 l 433 -60 q 547 -94 510 -60 q 585 -189 585 -128 q 531 -296 585 -258 q 367 -333 476 -333 q 308 -330 343 -333 q 257 -322 272 -326 l 257 -224 q 340 -235 297 -235 q 423 -225 400 -235 q 446 -186 446 -215 q 424 -148 446 -157 q 356 -139 403 -139 l 281 -139 l 321 0 l 278 0 l 278 722 l 15 722 l 15 894 l 764 894 l 764 722 l 501 722 l 501 0 l 454 0 z "},"Ț":{"ha":779,"x_min":15,"x_max":764,"o":"m 278 722 l 15 722 l 15 894 l 764 894 l 764 722 l 501 722 l 501 0 l 278 0 l 278 722 m 306 -62 l 485 -62 l 411 -358 l 260 -358 l 306 -62 z "},"Ṭ":{"ha":779,"x_min":15,"x_max":764,"o":"m 278 722 l 15 722 l 15 894 l 764 894 l 764 722 l 501 722 l 501 0 l 278 0 l 278 722 m 304 -90 l 468 -90 l 468 -242 l 304 -242 l 304 -90 z "},"Ṯ":{"ha":779,"x_min":15,"x_max":764,"o":"m 278 722 l 15 722 l 15 894 l 764 894 l 764 722 l 501 722 l 501 0 l 278 0 l 278 722 m 167 -87 l 608 -87 l 608 -224 l 167 -224 l 167 -87 z "},"U":{"ha":950,"x_min":64,"x_max":886,"o":"m 475 -14 q 174 78 285 -14 q 64 340 64 171 l 64 894 l 288 894 l 288 361 q 335 222 288 268 q 475 176 383 176 q 615 222 567 176 q 663 361 663 268 l 663 894 l 886 894 l 886 340 q 776 78 886 171 q 475 -14 665 -14 z "},"Ú":{"ha":950,"x_min":64,"x_max":886,"o":"m 501 1228 l 685 1228 l 557 956 l 385 956 l 501 1228 m 475 -14 q 174 78 285 -14 q 64 340 64 171 l 64 894 l 288 894 l 288 361 q 335 222 288 268 q 475 176 383 176 q 615 222 567 176 q 663 361 663 268 l 663 894 l 886 894 l 886 340 q 776 78 886 171 q 475 -14 665 -14 z "},"Ŭ":{"ha":950,"x_min":64,"x_max":886,"o":"m 469 956 q 294 1019 360 956 q 229 1194 229 1082 l 376 1194 q 399 1112 376 1143 q 469 1081 422 1081 q 542 1112 518 1081 q 565 1194 565 1143 l 713 1194 q 646 1019 713 1082 q 469 956 579 956 m 475 -14 q 174 78 285 -14 q 64 340 64 171 l 64 894 l 288 894 l 288 361 q 335 222 288 268 q 475 176 383 176 q 615 222 567 176 q 663 361 663 268 l 663 894 l 886 894 l 886 340 q 776 78 886 171 q 475 -14 665 -14 z "},"Ǔ":{"ha":950,"x_min":64,"x_max":886,"o":"m 203 1215 l 374 1215 l 474 1071 l 578 1215 l 744 1215 l 543 956 l 404 956 l 203 1215 m 475 -14 q 174 78 285 -14 q 64 340 64 171 l 64 894 l 288 894 l 288 361 q 335 222 288 268 q 475 176 383 176 q 615 222 567 176 q 663 361 663 268 l 663 894 l 886 894 l 886 340 q 776 78 886 171 q 475 -14 665 -14 z "},"Û":{"ha":950,"x_min":64,"x_max":886,"o":"m 406 1214 l 544 1214 l 746 954 l 579 954 l 475 1099 l 375 954 l 204 954 l 406 1214 m 475 -14 q 174 78 285 -14 q 64 340 64 171 l 64 894 l 288 894 l 288 361 q 335 222 288 268 q 475 176 383 176 q 615 222 567 176 q 663 361 663 268 l 663 894 l 886 894 l 886 340 q 776 78 886 171 q 475 -14 665 -14 z "},"Ü":{"ha":950,"x_min":64,"x_max":886,"o":"m 250 1143 l 414 1143 l 414 992 l 250 992 l 250 1143 m 536 1143 l 700 1143 l 700 992 l 536 992 l 536 1143 m 475 -14 q 174 78 285 -14 q 64 340 64 171 l 64 894 l 288 894 l 288 361 q 335 222 288 268 q 475 176 383 176 q 615 222 567 176 q 663 361 663 268 l 663 894 l 886 894 l 886 340 q 776 78 886 171 q 475 -14 665 -14 z "},"Ǘ":{"ha":950,"x_min":64,"x_max":886,"o":"m 475 1317 l 643 1317 l 549 1132 l 394 1132 l 475 1317 m 251 1100 l 410 1100 l 410 957 l 251 957 l 251 1100 m 540 1100 l 699 1100 l 699 957 l 540 957 l 540 1100 m 475 -14 q 174 78 285 -14 q 64 340 64 171 l 64 894 l 288 894 l 288 361 q 335 222 288 268 q 475 176 383 176 q 615 222 567 176 q 663 361 663 268 l 663 894 l 886 894 l 886 340 q 776 78 886 171 q 475 -14 665 -14 z "},"Ǚ":{"ha":950,"x_min":64,"x_max":886,"o":"m 232 1304 l 397 1304 l 476 1203 l 557 1304 l 718 1304 l 553 1128 l 399 1128 l 232 1304 m 250 1099 l 408 1099 l 408 956 l 250 956 l 250 1099 m 539 1099 l 697 1099 l 697 956 l 539 956 l 539 1099 m 475 -14 q 174 78 285 -14 q 64 340 64 171 l 64 894 l 288 894 l 288 361 q 335 222 288 268 q 475 176 383 176 q 615 222 567 176 q 663 361 663 268 l 663 894 l 886 894 l 886 340 q 776 78 886 171 q 475 -14 665 -14 z "},"Ǜ":{"ha":950,"x_min":64,"x_max":886,"o":"m 307 1315 l 475 1315 l 556 1131 l 401 1131 l 307 1315 m 251 1099 l 410 1099 l 410 956 l 251 956 l 251 1099 m 540 1099 l 699 1099 l 699 956 l 540 956 l 540 1099 m 475 -14 q 174 78 285 -14 q 64 340 64 171 l 64 894 l 288 894 l 288 361 q 335 222 288 268 q 475 176 383 176 q 615 222 567 176 q 663 361 663 268 l 663 894 l 886 894 l 886 340 q 776 78 886 171 q 475 -14 665 -14 z "},"Ǖ":{"ha":950,"x_min":64,"x_max":886,"o":"m 253 1307 l 694 1307 l 694 1172 l 253 1172 l 253 1307 m 250 1107 l 414 1107 l 414 956 l 250 956 l 250 1107 m 536 1107 l 700 1107 l 700 956 l 536 956 l 536 1107 m 475 -14 q 174 78 285 -14 q 64 340 64 171 l 64 894 l 288 894 l 288 361 q 335 222 288 268 q 475 176 383 176 q 615 222 567 176 q 663 361 663 268 l 663 894 l 886 894 l 886 340 q 776 78 886 171 q 475 -14 665 -14 z "},"Ụ":{"ha":950,"x_min":64,"x_max":886,"o":"m 475 -14 q 174 78 285 -14 q 64 340 64 171 l 64 894 l 288 894 l 288 361 q 335 222 288 268 q 475 176 383 176 q 615 222 567 176 q 663 361 663 268 l 663 894 l 886 894 l 886 340 q 776 78 886 171 q 475 -14 665 -14 m 392 -97 l 556 -97 l 556 -249 l 392 -249 l 392 -97 z "},"Ù":{"ha":950,"x_min":64,"x_max":886,"o":"m 272 1228 l 456 1228 l 572 956 l 401 956 l 272 1228 m 475 -14 q 174 78 285 -14 q 64 340 64 171 l 64 894 l 288 894 l 288 361 q 335 222 288 268 q 475 176 383 176 q 615 222 567 176 q 663 361 663 268 l 663 894 l 886 894 l 886 340 q 776 78 886 171 q 475 -14 665 -14 z "},"Ủ":{"ha":950,"x_min":64,"x_max":886,"o":"m 388 1068 q 485 1088 458 1072 q 511 1132 511 1103 q 421 1182 511 1182 q 338 1169 378 1182 l 338 1269 q 486 1289 393 1289 q 626 1251 576 1289 q 675 1151 675 1214 q 647 1063 675 1093 q 557 1017 619 1032 l 557 956 l 388 956 l 388 1068 m 475 -14 q 174 78 285 -14 q 64 340 64 171 l 64 894 l 288 894 l 288 361 q 335 222 288 268 q 475 176 383 176 q 615 222 567 176 q 663 361 663 268 l 663 894 l 886 894 l 886 340 q 776 78 886 171 q 475 -14 665 -14 z "},"Ư":{"ha":1186,"x_min":64,"x_max":1171,"o":"m 475 -14 q 174 78 285 -14 q 64 340 64 171 l 64 894 l 288 894 l 288 361 q 335 222 288 268 q 475 176 383 176 q 613 222 565 176 q 661 361 661 268 l 661 894 l 886 894 l 886 813 q 983 847 954 815 q 1011 956 1011 878 l 1171 956 q 1142 785 1171 847 q 1052 694 1114 722 q 886 665 990 667 l 886 340 q 775 78 886 171 q 475 -14 664 -14 z "},"Ứ":{"ha":1179,"x_min":64,"x_max":1171,"o":"m 503 1228 l 686 1228 l 558 956 l 386 956 l 503 1228 m 475 -14 q 174 78 285 -14 q 64 340 64 171 l 64 894 l 288 894 l 288 361 q 335 222 288 268 q 475 176 383 176 q 613 222 565 176 q 661 361 661 268 l 661 894 l 886 894 l 886 813 q 983 847 954 815 q 1011 956 1011 878 l 1171 956 q 1142 785 1171 847 q 1052 694 1114 722 q 886 665 990 667 l 886 340 q 775 78 886 171 q 475 -14 664 -14 z "},"Ự":{"ha":1186,"x_min":64,"x_max":1171,"o":"m 475 -14 q 174 78 285 -14 q 64 340 64 171 l 64 894 l 288 894 l 288 361 q 335 222 288 268 q 475 176 383 176 q 613 222 565 176 q 661 361 661 268 l 661 894 l 886 894 l 886 813 q 983 847 954 815 q 1011 956 1011 878 l 1171 956 q 1142 785 1171 847 q 1052 694 1114 722 q 886 665 990 667 l 886 340 q 775 78 886 171 q 475 -14 664 -14 m 394 -97 l 558 -97 l 558 -249 l 394 -249 l 394 -97 z "},"Ừ":{"ha":1186,"x_min":64,"x_max":1171,"o":"m 271 1228 l 454 1228 l 571 956 l 400 956 l 271 1228 m 475 -14 q 174 78 285 -14 q 64 340 64 171 l 64 894 l 288 894 l 288 361 q 335 222 288 268 q 475 176 383 176 q 613 222 565 176 q 661 361 661 268 l 661 894 l 886 894 l 886 813 q 983 847 954 815 q 1011 956 1011 878 l 1171 956 q 1142 785 1171 847 q 1052 694 1114 722 q 886 665 990 667 l 886 340 q 775 78 886 171 q 475 -14 664 -14 z "},"Ử":{"ha":1186,"x_min":64,"x_max":1171,"o":"m 372 1068 q 469 1088 443 1072 q 496 1132 496 1103 q 406 1182 496 1182 q 322 1169 363 1182 l 322 1269 q 471 1289 378 1289 q 610 1251 561 1289 q 660 1151 660 1214 q 632 1063 660 1093 q 542 1017 604 1032 l 542 956 l 372 956 l 372 1068 m 475 -14 q 174 78 285 -14 q 64 340 64 171 l 64 894 l 288 894 l 288 361 q 335 222 288 268 q 475 176 383 176 q 613 222 565 176 q 661 361 661 268 l 661 894 l 886 894 l 886 813 q 983 847 954 815 q 1011 956 1011 878 l 1171 956 q 1142 785 1171 847 q 1052 694 1114 722 q 886 665 990 667 l 886 340 q 775 78 886 171 q 475 -14 664 -14 z "},"Ữ":{"ha":1186,"x_min":64,"x_max":1171,"o":"m 604 964 q 545 972 575 964 q 475 994 515 979 q 415 1014 440 1007 q 367 1021 390 1021 q 236 968 289 1021 l 236 1117 q 291 1149 257 1136 q 363 1161 325 1161 q 418 1154 393 1161 q 486 1132 443 1147 q 549 1111 525 1118 q 600 1104 574 1104 q 672 1119 640 1104 q 721 1158 703 1133 l 721 1008 q 675 976 707 989 q 604 964 643 964 m 475 -14 q 174 78 285 -14 q 64 340 64 171 l 64 894 l 288 894 l 288 361 q 335 222 288 268 q 475 176 383 176 q 613 222 565 176 q 661 361 661 268 l 661 894 l 886 894 l 886 813 q 983 847 954 815 q 1011 956 1011 878 l 1171 956 q 1142 785 1171 847 q 1052 694 1114 722 q 886 665 990 667 l 886 340 q 775 78 886 171 q 475 -14 664 -14 z "},"Ű":{"ha":950,"x_min":64,"x_max":886,"o":"m 311 1204 l 504 1204 l 369 954 l 197 954 l 311 1204 m 632 1204 l 825 1204 l 690 954 l 518 954 l 632 1204 m 475 -14 q 174 78 285 -14 q 64 340 64 171 l 64 894 l 288 894 l 288 361 q 335 222 288 268 q 475 176 383 176 q 615 222 567 176 q 663 361 663 268 l 663 894 l 886 894 l 886 340 q 776 78 886 171 q 475 -14 665 -14 z "},"Ū":{"ha":950,"x_min":64,"x_max":886,"o":"m 253 1139 l 694 1139 l 694 1004 l 253 1004 l 253 1139 m 475 -14 q 174 78 285 -14 q 64 340 64 171 l 64 894 l 288 894 l 288 361 q 335 222 288 268 q 475 176 383 176 q 615 222 567 176 q 663 361 663 268 l 663 894 l 886 894 l 886 340 q 776 78 886 171 q 475 -14 665 -14 z "},"Ų":{"ha":950,"x_min":64,"x_max":886,"o":"m 886 894 l 886 340 q 808 110 886 199 q 589 -4 729 21 q 507 -135 507 -68 q 568 -187 507 -187 q 606 -183 586 -187 q 638 -172 625 -179 l 638 -285 q 581 -299 617 -293 q 507 -306 544 -306 q 384 -272 432 -306 q 336 -175 336 -239 q 358 -85 336 -128 q 421 -12 381 -43 q 159 92 254 1 q 64 340 64 183 l 64 894 l 288 894 l 288 361 q 335 222 288 268 q 475 176 383 176 q 615 222 567 176 q 663 361 663 268 l 663 894 l 886 894 z "},"Ů":{"ha":950,"x_min":64,"x_max":886,"o":"m 474 954 q 341 1003 390 954 q 292 1128 292 1053 q 341 1253 292 1204 q 474 1303 390 1303 q 608 1253 558 1303 q 657 1128 657 1204 q 608 1003 657 1053 q 474 954 558 954 m 474 1051 q 533 1073 511 1051 q 554 1128 554 1094 q 533 1183 554 1161 q 474 1206 511 1206 q 416 1183 438 1206 q 394 1128 394 1161 q 416 1073 394 1094 q 474 1051 438 1051 m 475 -14 q 174 78 285 -14 q 64 340 64 171 l 64 894 l 288 894 l 288 361 q 335 222 288 268 q 475 176 383 176 q 615 222 567 176 q 663 361 663 268 l 663 894 l 886 894 l 886 340 q 776 78 886 171 q 475 -14 665 -14 z "},"Ũ":{"ha":950,"x_min":64,"x_max":886,"o":"m 600 969 q 541 977 571 969 q 471 1000 511 985 q 411 1019 436 1013 q 363 1026 386 1026 q 232 974 285 1026 l 232 1122 q 287 1154 253 1142 q 358 1167 321 1167 q 414 1160 389 1167 q 482 1138 439 1153 q 545 1117 521 1124 q 596 1110 569 1110 q 667 1124 636 1110 q 717 1164 699 1139 l 717 1014 q 671 982 703 994 q 600 969 639 969 m 475 -14 q 174 78 285 -14 q 64 340 64 171 l 64 894 l 288 894 l 288 361 q 335 222 288 268 q 475 176 383 176 q 615 222 567 176 q 663 361 663 268 l 663 894 l 886 894 l 886 340 q 776 78 886 171 q 475 -14 665 -14 z "},"V":{"ha":1011,"x_min":43,"x_max":968,"o":"m 43 894 l 276 894 l 504 256 l 733 894 l 968 894 l 626 0 l 385 0 l 43 894 z "},"W":{"ha":1226,"x_min":43,"x_max":1183,"o":"m 43 894 l 263 894 l 381 356 l 503 768 l 503 894 l 686 894 l 840 354 l 964 894 l 1183 894 l 976 0 l 769 0 l 619 517 l 458 0 l 251 0 l 43 894 z "},"Ẃ":{"ha":1226,"x_min":43,"x_max":1183,"o":"m 624 1228 l 807 1228 l 679 956 l 507 956 l 624 1228 m 43 894 l 263 894 l 381 356 l 503 768 l 503 894 l 686 894 l 840 354 l 964 894 l 1183 894 l 976 0 l 769 0 l 619 517 l 458 0 l 251 0 l 43 894 z "},"Ŵ":{"ha":1226,"x_min":43,"x_max":1183,"o":"m 550 1215 l 689 1215 l 890 956 l 724 956 l 619 1100 l 519 956 l 349 956 l 550 1215 m 43 894 l 263 894 l 381 356 l 503 768 l 503 894 l 686 894 l 840 354 l 964 894 l 1183 894 l 976 0 l 769 0 l 619 517 l 458 0 l 251 0 l 43 894 z "},"Ẅ":{"ha":1226,"x_min":43,"x_max":1183,"o":"m 394 1143 l 558 1143 l 558 992 l 394 992 l 394 1143 m 681 1143 l 844 1143 l 844 992 l 681 992 l 681 1143 m 43 894 l 263 894 l 381 356 l 503 768 l 503 894 l 686 894 l 840 354 l 964 894 l 1183 894 l 976 0 l 769 0 l 619 517 l 458 0 l 251 0 l 43 894 z "},"Ẁ":{"ha":1226,"x_min":43,"x_max":1183,"o":"m 385 1228 l 568 1228 l 685 956 l 514 956 l 385 1228 m 43 894 l 263 894 l 381 356 l 503 768 l 503 894 l 686 894 l 840 354 l 964 894 l 1183 894 l 976 0 l 769 0 l 619 517 l 458 0 l 251 0 l 43 894 z "},"X":{"ha":1010,"x_min":43,"x_max":967,"o":"m 369 450 l 53 894 l 319 894 l 504 628 l 690 894 l 957 894 l 640 450 l 967 0 l 697 0 l 504 271 l 313 0 l 43 0 l 369 450 z "},"Y":{"ha":953,"x_min":43,"x_max":910,"o":"m 364 329 l 43 894 l 276 894 l 476 524 l 676 894 l 910 894 l 589 329 l 589 0 l 364 0 l 364 329 z "},"Ý":{"ha":953,"x_min":43,"x_max":910,"o":"m 499 1228 l 682 1228 l 554 956 l 382 956 l 499 1228 m 364 329 l 43 894 l 276 894 l 476 524 l 676 894 l 910 894 l 589 329 l 589 0 l 364 0 l 364 329 z "},"Ŷ":{"ha":953,"x_min":43,"x_max":910,"o":"m 407 1215 l 546 1215 l 747 956 l 581 956 l 476 1100 l 376 956 l 206 956 l 407 1215 m 364 329 l 43 894 l 276 894 l 476 524 l 676 894 l 910 894 l 589 329 l 589 0 l 364 0 l 364 329 z "},"Ÿ":{"ha":953,"x_min":43,"x_max":910,"o":"m 253 1143 l 417 1143 l 417 992 l 253 992 l 253 1143 m 539 1143 l 703 1143 l 703 992 l 539 992 l 539 1143 m 364 329 l 43 894 l 276 894 l 476 524 l 676 894 l 910 894 l 589 329 l 589 0 l 364 0 l 364 329 z "},"Ẏ":{"ha":953,"x_min":43,"x_max":910,"o":"m 394 1143 l 557 1143 l 557 992 l 394 992 l 394 1143 m 364 329 l 43 894 l 276 894 l 476 524 l 676 894 l 910 894 l 589 329 l 589 0 l 364 0 l 364 329 z "},"Ỵ":{"ha":953,"x_min":43,"x_max":910,"o":"m 364 329 l 43 894 l 276 894 l 476 524 l 676 894 l 910 894 l 589 329 l 589 0 l 364 0 l 364 329 m 394 -89 l 558 -89 l 558 -240 l 394 -240 l 394 -89 z "},"Ỳ":{"ha":953,"x_min":43,"x_max":910,"o":"m 264 1228 l 447 1228 l 564 956 l 393 956 l 264 1228 m 364 329 l 43 894 l 276 894 l 476 524 l 676 894 l 910 894 l 589 329 l 589 0 l 364 0 l 364 329 z "},"Ỷ":{"ha":953,"x_min":43,"x_max":910,"o":"m 385 1068 q 482 1088 456 1072 q 508 1132 508 1103 q 418 1182 508 1182 q 335 1169 375 1182 l 335 1269 q 483 1289 390 1289 q 623 1251 574 1289 q 672 1151 672 1214 q 644 1063 672 1093 q 554 1017 617 1032 l 554 956 l 385 956 l 385 1068 m 364 329 l 43 894 l 276 894 l 476 524 l 676 894 l 910 894 l 589 329 l 589 0 l 364 0 l 364 329 z "},"Ỹ":{"ha":953,"x_min":43,"x_max":910,"o":"m 601 969 q 542 977 572 969 q 472 1000 513 985 q 413 1019 438 1013 q 364 1026 388 1026 q 233 974 286 1026 l 233 1122 q 288 1154 254 1142 q 360 1167 322 1167 q 415 1160 390 1167 q 483 1138 440 1153 q 547 1117 522 1124 q 597 1110 571 1110 q 669 1124 638 1110 q 718 1164 700 1139 l 718 1014 q 672 982 704 994 q 601 969 640 969 m 364 329 l 43 894 l 276 894 l 476 524 l 676 894 l 910 894 l 589 329 l 589 0 l 364 0 l 364 329 z "},"Z":{"ha":803,"x_min":43,"x_max":764,"o":"m 43 114 l 463 717 l 64 717 l 64 894 l 756 894 l 756 769 l 340 172 l 764 172 l 764 0 l 43 0 l 43 114 z "},"Ź":{"ha":803,"x_min":43,"x_max":764,"o":"m 428 1228 l 611 1228 l 483 956 l 311 956 l 428 1228 m 43 114 l 463 717 l 64 717 l 64 894 l 756 894 l 756 769 l 340 172 l 764 172 l 764 0 l 43 0 l 43 114 z "},"Ž":{"ha":803,"x_min":43,"x_max":764,"o":"m 156 1215 l 326 1215 l 426 1071 l 531 1215 l 697 1215 l 496 956 l 357 956 l 156 1215 m 43 114 l 463 717 l 64 717 l 64 894 l 756 894 l 756 769 l 340 172 l 764 172 l 764 0 l 43 0 l 43 114 z "},"Ż":{"ha":803,"x_min":43,"x_max":764,"o":"m 333 1143 l 496 1143 l 496 992 l 333 992 l 333 1143 m 43 114 l 463 717 l 64 717 l 64 894 l 756 894 l 756 769 l 340 172 l 764 172 l 764 0 l 43 0 l 43 114 z "},"Ẓ":{"ha":803,"x_min":43,"x_max":764,"o":"m 43 114 l 463 717 l 64 717 l 64 894 l 756 894 l 756 769 l 340 172 l 764 172 l 764 0 l 43 0 l 43 114 m 332 -97 l 496 -97 l 496 -249 l 332 -249 l 332 -97 z "},"a":{"ha":779,"x_min":43,"x_max":715,"o":"m 276 -14 q 109 40 175 -14 q 43 193 43 93 q 113 353 43 296 q 318 410 183 410 l 501 410 l 501 425 q 467 497 501 476 q 343 518 433 518 q 122 483 231 518 l 122 628 q 243 660 172 647 q 389 672 314 672 q 631 608 546 672 q 715 411 715 544 l 715 0 l 519 0 l 508 56 q 276 -14 432 -14 m 347 124 q 501 188 447 124 l 501 281 l 343 281 q 269 261 293 281 q 244 201 244 242 q 347 124 244 124 z "},"á":{"ha":779,"x_min":43,"x_max":715,"o":"m 424 997 l 607 997 l 479 725 l 307 725 l 424 997 m 276 -14 q 109 40 175 -14 q 43 193 43 93 q 113 353 43 296 q 318 410 183 410 l 501 410 l 501 425 q 467 497 501 476 q 343 518 433 518 q 122 483 231 518 l 122 628 q 243 660 172 647 q 389 672 314 672 q 631 608 546 672 q 715 411 715 544 l 715 0 l 519 0 l 508 56 q 276 -14 432 -14 m 347 124 q 501 188 447 124 l 501 281 l 343 281 q 269 261 293 281 q 244 201 244 242 q 347 124 244 124 z "},"ă":{"ha":779,"x_min":43,"x_max":715,"o":"m 419 725 q 244 788 310 725 q 179 964 179 851 l 326 964 q 349 881 326 913 q 419 850 372 850 q 492 881 468 850 q 515 964 515 913 l 663 964 q 596 788 663 851 q 419 725 529 725 m 276 -14 q 109 40 175 -14 q 43 193 43 93 q 113 353 43 296 q 318 410 183 410 l 501 410 l 501 425 q 467 497 501 476 q 343 518 433 518 q 122 483 231 518 l 122 628 q 243 660 172 647 q 389 672 314 672 q 631 608 546 672 q 715 411 715 544 l 715 0 l 519 0 l 508 56 q 276 -14 432 -14 m 347 124 q 501 188 447 124 l 501 281 l 343 281 q 269 261 293 281 q 244 201 244 242 q 347 124 244 124 z "},"ắ":{"ha":779,"x_min":43,"x_max":715,"o":"m 419 1139 l 576 1139 l 468 932 l 328 932 l 419 1139 m 404 725 q 228 781 293 725 q 163 953 163 838 l 292 953 q 321 868 292 899 q 404 838 350 838 q 486 868 457 838 q 515 953 515 899 l 643 953 q 578 781 643 838 q 404 725 514 725 m 276 -14 q 109 40 175 -14 q 43 193 43 93 q 113 353 43 296 q 318 410 183 410 l 501 410 l 501 425 q 467 497 501 476 q 343 518 433 518 q 122 483 231 518 l 122 628 q 243 660 172 647 q 389 672 314 672 q 631 608 546 672 q 715 411 715 544 l 715 0 l 519 0 l 508 56 q 276 -14 432 -14 m 347 124 q 501 188 447 124 l 501 281 l 343 281 q 269 261 293 281 q 244 201 244 242 q 347 124 244 124 z "},"ặ":{"ha":779,"x_min":43,"x_max":715,"o":"m 415 725 q 240 788 306 725 q 175 964 175 851 l 322 964 q 345 881 322 913 q 415 850 368 850 q 488 881 464 850 q 511 964 511 913 l 658 964 q 592 788 658 851 q 415 725 525 725 m 276 -14 q 109 40 175 -14 q 43 193 43 93 q 113 353 43 296 q 318 410 183 410 l 501 410 l 501 425 q 467 497 501 476 q 343 518 433 518 q 122 483 231 518 l 122 628 q 243 660 172 647 q 389 672 314 672 q 631 608 546 672 q 715 411 715 544 l 715 0 l 519 0 l 508 56 q 276 -14 432 -14 m 347 124 q 501 188 447 124 l 501 281 l 343 281 q 269 261 293 281 q 244 201 244 242 q 347 124 244 124 m 339 -97 l 503 -97 l 503 -249 l 339 -249 l 339 -97 z "},"ằ":{"ha":779,"x_min":43,"x_max":715,"o":"m 232 1139 l 390 1139 l 482 932 l 340 932 l 232 1139 m 406 725 q 231 781 296 725 q 165 953 165 838 l 294 953 q 323 868 294 899 q 406 838 351 838 q 489 868 460 838 q 518 953 518 899 l 646 953 q 581 781 646 838 q 406 725 515 725 m 276 -14 q 109 40 175 -14 q 43 193 43 93 q 113 353 43 296 q 318 410 183 410 l 501 410 l 501 425 q 467 497 501 476 q 343 518 433 518 q 122 483 231 518 l 122 628 q 243 660 172 647 q 389 672 314 672 q 631 608 546 672 q 715 411 715 544 l 715 0 l 519 0 l 508 56 q 276 -14 432 -14 m 347 124 q 501 188 447 124 l 501 281 l 343 281 q 269 261 293 281 q 244 201 244 242 q 347 124 244 124 z "},"ẳ":{"ha":779,"x_min":43,"x_max":715,"o":"m 333 1026 q 416 1042 392 1028 q 440 1081 440 1056 q 424 1113 440 1104 q 372 1122 408 1122 q 300 1107 336 1122 l 300 1193 q 432 1211 351 1211 q 545 1179 504 1211 q 586 1096 586 1147 q 562 1023 586 1049 q 481 985 538 997 l 481 942 l 333 942 l 333 1026 m 410 725 q 235 781 300 725 q 169 953 169 838 l 299 953 q 327 868 299 899 q 410 838 356 838 q 493 868 464 838 q 522 953 522 899 l 650 953 q 585 781 650 838 q 410 725 519 725 m 276 -14 q 109 40 175 -14 q 43 193 43 93 q 113 353 43 296 q 318 410 183 410 l 501 410 l 501 425 q 467 497 501 476 q 343 518 433 518 q 122 483 231 518 l 122 628 q 243 660 172 647 q 389 672 314 672 q 631 608 546 672 q 715 411 715 544 l 715 0 l 519 0 l 508 56 q 276 -14 432 -14 m 347 124 q 501 188 447 124 l 501 281 l 343 281 q 269 261 293 281 q 244 201 244 242 q 347 124 244 124 z "},"ẵ":{"ha":779,"x_min":43,"x_max":715,"o":"m 540 978 q 484 985 511 978 q 414 1007 457 992 q 354 1026 379 1019 q 306 1033 329 1033 q 178 982 226 1033 l 178 1108 q 231 1140 197 1128 q 301 1153 265 1153 q 356 1146 331 1153 q 424 1124 381 1139 q 486 1103 463 1110 q 536 1096 510 1096 q 607 1110 576 1096 q 656 1150 638 1125 l 656 1022 q 610 990 642 1003 q 540 978 579 978 m 415 725 q 240 781 306 725 q 175 953 175 838 l 304 953 q 333 868 304 899 q 415 838 361 838 q 499 868 469 838 q 528 953 528 899 l 656 953 q 590 781 656 838 q 415 725 525 725 m 276 -14 q 109 40 175 -14 q 43 193 43 93 q 113 353 43 296 q 318 410 183 410 l 501 410 l 501 425 q 467 497 501 476 q 343 518 433 518 q 122 483 231 518 l 122 628 q 243 660 172 647 q 389 672 314 672 q 631 608 546 672 q 715 411 715 544 l 715 0 l 519 0 l 508 56 q 276 -14 432 -14 m 347 124 q 501 188 447 124 l 501 281 l 343 281 q 269 261 293 281 q 244 201 244 242 q 347 124 244 124 z "},"ǎ":{"ha":779,"x_min":43,"x_max":715,"o":"m 128 983 l 299 983 l 399 839 l 503 983 l 669 983 l 468 724 l 329 724 l 128 983 m 276 -14 q 109 40 175 -14 q 43 193 43 93 q 113 353 43 296 q 318 410 183 410 l 501 410 l 501 425 q 467 497 501 476 q 343 518 433 518 q 122 483 231 518 l 122 628 q 243 660 172 647 q 389 672 314 672 q 631 608 546 672 q 715 411 715 544 l 715 0 l 519 0 l 508 56 q 276 -14 432 -14 m 347 124 q 501 188 447 124 l 501 281 l 343 281 q 269 261 293 281 q 244 201 244 242 q 347 124 244 124 z "},"â":{"ha":779,"x_min":43,"x_max":715,"o":"m 338 983 l 476 983 l 678 724 l 511 724 l 407 868 l 307 724 l 136 724 l 338 983 m 276 -14 q 109 40 175 -14 q 43 193 43 93 q 113 353 43 296 q 318 410 183 410 l 501 410 l 501 425 q 467 497 501 476 q 343 518 433 518 q 122 483 231 518 l 122 628 q 243 660 172 647 q 389 672 314 672 q 631 608 546 672 q 715 411 715 544 l 715 0 l 519 0 l 508 56 q 276 -14 432 -14 m 347 124 q 501 188 447 124 l 501 281 l 343 281 q 269 261 293 281 q 244 201 244 242 q 347 124 244 124 z "},"ấ":{"ha":779,"x_min":43,"x_max":822,"o":"m 656 1099 l 822 1099 l 718 892 l 560 892 l 656 1099 m 321 924 l 489 924 l 675 724 l 496 724 l 406 835 l 315 724 l 135 724 l 321 924 m 276 -14 q 109 40 175 -14 q 43 193 43 93 q 113 353 43 296 q 318 410 183 410 l 501 410 l 501 425 q 467 497 501 476 q 343 518 433 518 q 122 483 231 518 l 122 628 q 243 660 172 647 q 389 672 314 672 q 631 608 546 672 q 715 411 715 544 l 715 0 l 519 0 l 508 56 q 276 -14 432 -14 m 347 124 q 501 188 447 124 l 501 281 l 343 281 q 269 261 293 281 q 244 201 244 242 q 347 124 244 124 z "},"ậ":{"ha":779,"x_min":43,"x_max":715,"o":"m 338 983 l 476 983 l 678 724 l 511 724 l 407 868 l 307 724 l 136 724 l 338 983 m 276 -14 q 109 40 175 -14 q 43 193 43 93 q 113 353 43 296 q 318 410 183 410 l 501 410 l 501 425 q 467 497 501 476 q 343 518 433 518 q 122 483 231 518 l 122 628 q 243 660 172 647 q 389 672 314 672 q 631 608 546 672 q 715 411 715 544 l 715 0 l 519 0 l 508 56 q 276 -14 432 -14 m 347 124 q 501 188 447 124 l 501 281 l 343 281 q 269 261 293 281 q 244 201 244 242 q 347 124 244 124 m 326 -97 l 490 -97 l 490 -249 l 326 -249 l 326 -97 z "},"ầ":{"ha":779,"x_min":-8,"x_max":715,"o":"m -8 1099 l 158 1099 l 254 892 l 96 892 l -8 1099 m 325 924 l 493 924 l 679 724 l 499 724 l 408 835 l 318 724 l 139 724 l 325 924 m 276 -14 q 109 40 175 -14 q 43 193 43 93 q 113 353 43 296 q 318 410 183 410 l 501 410 l 501 425 q 467 497 501 476 q 343 518 433 518 q 122 483 231 518 l 122 628 q 243 660 172 647 q 389 672 314 672 q 631 608 546 672 q 715 411 715 544 l 715 0 l 519 0 l 508 56 q 276 -14 432 -14 m 347 124 q 501 188 447 124 l 501 281 l 343 281 q 269 261 293 281 q 244 201 244 242 q 347 124 244 124 z "},"ẩ":{"ha":783,"x_min":43,"x_max":822,"o":"m 568 960 q 648 972 626 961 q 669 1006 669 983 q 610 1040 669 1040 q 536 1026 571 1040 l 536 1119 q 663 1136 590 1136 q 781 1105 740 1136 q 822 1021 822 1074 q 719 907 822 924 l 719 861 l 568 861 l 568 960 m 315 924 l 483 924 l 669 724 l 490 724 l 400 835 l 310 724 l 129 724 l 315 924 m 276 -14 q 109 40 175 -14 q 43 193 43 93 q 113 353 43 296 q 318 410 183 410 l 501 410 l 501 425 q 467 497 501 476 q 343 518 433 518 q 122 483 231 518 l 122 628 q 243 660 172 647 q 389 672 314 672 q 631 608 546 672 q 715 411 715 544 l 715 0 l 519 0 l 508 56 q 276 -14 432 -14 m 347 124 q 501 188 447 124 l 501 281 l 343 281 q 269 261 293 281 q 244 201 244 242 q 347 124 244 124 z "},"ẫ":{"ha":779,"x_min":43,"x_max":715,"o":"m 536 944 q 480 951 507 944 q 410 974 453 958 q 350 993 375 986 q 301 1000 325 1000 q 174 949 222 1000 l 174 1075 q 227 1107 193 1094 q 297 1119 261 1119 q 351 1113 326 1119 q 419 1090 376 1106 q 482 1069 458 1076 q 532 1063 506 1063 q 603 1077 572 1063 q 651 1117 633 1092 l 651 989 q 606 957 638 969 q 536 944 575 944 m 317 924 l 485 924 l 671 724 l 492 724 l 401 835 l 311 724 l 131 724 l 317 924 m 276 -14 q 109 40 175 -14 q 43 193 43 93 q 113 353 43 296 q 318 410 183 410 l 501 410 l 501 425 q 467 497 501 476 q 343 518 433 518 q 122 483 231 518 l 122 628 q 243 660 172 647 q 389 672 314 672 q 631 608 546 672 q 715 411 715 544 l 715 0 l 519 0 l 508 56 q 276 -14 432 -14 m 347 124 q 501 188 447 124 l 501 281 l 343 281 q 269 261 293 281 q 244 201 244 242 q 347 124 244 124 z "},"ä":{"ha":779,"x_min":43,"x_max":715,"o":"m 190 913 l 354 913 l 354 761 l 190 761 l 190 913 m 476 913 l 640 913 l 640 761 l 476 761 l 476 913 m 276 -14 q 109 40 175 -14 q 43 193 43 93 q 113 353 43 296 q 318 410 183 410 l 501 410 l 501 425 q 467 497 501 476 q 343 518 433 518 q 122 483 231 518 l 122 628 q 243 660 172 647 q 389 672 314 672 q 631 608 546 672 q 715 411 715 544 l 715 0 l 519 0 l 508 56 q 276 -14 432 -14 m 347 124 q 501 188 447 124 l 501 281 l 343 281 q 269 261 293 281 q 244 201 244 242 q 347 124 244 124 z "},"ạ":{"ha":779,"x_min":43,"x_max":715,"o":"m 276 -14 q 109 40 175 -14 q 43 193 43 93 q 113 353 43 296 q 318 410 183 410 l 501 410 l 501 425 q 467 497 501 476 q 343 518 433 518 q 122 483 231 518 l 122 628 q 243 660 172 647 q 389 672 314 672 q 631 608 546 672 q 715 411 715 544 l 715 0 l 519 0 l 508 56 q 276 -14 432 -14 m 347 124 q 501 188 447 124 l 501 281 l 343 281 q 269 261 293 281 q 244 201 244 242 q 347 124 244 124 m 322 -97 l 486 -97 l 486 -249 l 322 -249 l 322 -97 z "},"à":{"ha":779,"x_min":43,"x_max":715,"o":"m 196 997 l 379 997 l 496 725 l 325 725 l 196 997 m 276 -14 q 109 40 175 -14 q 43 193 43 93 q 113 353 43 296 q 318 410 183 410 l 501 410 l 501 425 q 467 497 501 476 q 343 518 433 518 q 122 483 231 518 l 122 628 q 243 660 172 647 q 389 672 314 672 q 631 608 546 672 q 715 411 715 544 l 715 0 l 519 0 l 508 56 q 276 -14 432 -14 m 347 124 q 501 188 447 124 l 501 281 l 343 281 q 269 261 293 281 q 244 201 244 242 q 347 124 244 124 z "},"ả":{"ha":779,"x_min":43,"x_max":715,"o":"m 308 836 q 406 856 379 840 q 432 900 432 871 q 342 950 432 950 q 258 938 299 950 l 258 1038 q 407 1057 314 1057 q 547 1019 497 1057 q 596 919 596 982 q 568 831 596 861 q 478 785 540 800 l 478 724 l 308 724 l 308 836 m 276 -14 q 109 40 175 -14 q 43 193 43 93 q 113 353 43 296 q 318 410 183 410 l 501 410 l 501 425 q 467 497 501 476 q 343 518 433 518 q 122 483 231 518 l 122 628 q 243 660 172 647 q 389 672 314 672 q 631 608 546 672 q 715 411 715 544 l 715 0 l 519 0 l 508 56 q 276 -14 432 -14 m 347 124 q 501 188 447 124 l 501 281 l 343 281 q 269 261 293 281 q 244 201 244 242 q 347 124 244 124 z "},"ɑ":{"ha":832,"x_min":43,"x_max":760,"o":"m 339 -14 q 117 63 192 -14 q 43 303 43 140 q 84 495 43 411 q 199 626 125 579 q 369 672 272 672 q 460 660 422 672 q 536 621 497 647 l 536 658 l 760 658 l 760 0 l 567 0 l 554 56 q 339 -14 472 -14 m 411 149 q 536 199 485 149 l 536 463 q 489 497 514 486 q 428 508 464 508 q 310 458 349 508 q 271 303 271 408 q 305 183 271 218 q 411 149 339 149 z "},"ā":{"ha":779,"x_min":43,"x_max":715,"o":"m 201 882 l 643 882 l 643 747 l 201 747 l 201 882 m 276 -14 q 109 40 175 -14 q 43 193 43 93 q 113 353 43 296 q 318 410 183 410 l 501 410 l 501 425 q 467 497 501 476 q 343 518 433 518 q 122 483 231 518 l 122 628 q 243 660 172 647 q 389 672 314 672 q 631 608 546 672 q 715 411 715 544 l 715 0 l 519 0 l 508 56 q 276 -14 432 -14 m 347 124 q 501 188 447 124 l 501 281 l 343 281 q 269 261 293 281 q 244 201 244 242 q 347 124 244 124 z "},"ą":{"ha":786,"x_min":43,"x_max":719,"o":"m 650 -187 q 688 -183 668 -187 q 719 -172 707 -179 l 719 -285 q 663 -299 699 -293 q 589 -306 626 -306 q 466 -272 514 -306 q 418 -175 418 -239 q 445 -78 418 -124 q 519 0 472 -32 l 508 56 q 276 -14 432 -14 q 109 40 175 -14 q 43 193 43 93 q 113 353 43 296 q 318 410 183 410 l 501 410 l 501 425 q 467 497 501 476 q 343 518 433 518 q 122 483 231 518 l 122 628 q 243 660 172 647 q 389 672 314 672 q 631 608 546 672 q 715 411 715 544 l 715 0 l 676 0 q 589 -135 589 -67 q 650 -187 589 -187 m 501 281 l 343 281 q 269 261 293 281 q 244 201 244 242 q 347 124 244 124 q 501 188 447 124 l 501 281 z "},"å":{"ha":779,"x_min":43,"x_max":715,"o":"m 417 724 q 284 773 333 724 q 235 897 235 822 q 284 1023 235 974 q 417 1072 333 1072 q 551 1023 501 1072 q 600 897 600 974 q 551 773 600 822 q 417 724 501 724 m 417 821 q 476 842 454 821 q 497 897 497 864 q 476 953 497 931 q 417 975 454 975 q 359 953 381 975 q 338 897 338 931 q 359 842 338 864 q 417 821 381 821 m 276 -14 q 109 40 175 -14 q 43 193 43 93 q 113 353 43 296 q 318 410 183 410 l 501 410 l 501 425 q 467 497 501 476 q 343 518 433 518 q 122 483 231 518 l 122 628 q 243 660 172 647 q 389 672 314 672 q 631 608 546 672 q 715 411 715 544 l 715 0 l 519 0 l 508 56 q 276 -14 432 -14 m 347 124 q 501 188 447 124 l 501 281 l 343 281 q 269 261 293 281 q 244 201 244 242 q 347 124 244 124 z "},"ǻ":{"ha":779,"x_min":43,"x_max":715,"o":"m 428 1321 l 611 1321 l 483 1104 l 311 1104 l 428 1321 m 417 724 q 284 773 333 724 q 235 897 235 822 q 284 1023 235 974 q 417 1072 333 1072 q 551 1023 501 1072 q 600 897 600 974 q 551 773 600 822 q 417 724 501 724 m 417 821 q 476 842 454 821 q 497 897 497 864 q 476 953 497 931 q 417 975 454 975 q 359 953 381 975 q 338 897 338 931 q 359 842 338 864 q 417 821 381 821 m 276 -14 q 109 40 175 -14 q 43 193 43 93 q 113 353 43 296 q 318 410 183 410 l 501 410 l 501 425 q 467 497 501 476 q 343 518 433 518 q 122 483 231 518 l 122 628 q 243 660 172 647 q 389 672 314 672 q 631 608 546 672 q 715 411 715 544 l 715 0 l 519 0 l 508 56 q 276 -14 432 -14 m 347 124 q 501 188 447 124 l 501 281 l 343 281 q 269 261 293 281 q 244 201 244 242 q 347 124 244 124 z "},"ã":{"ha":779,"x_min":43,"x_max":715,"o":"m 542 739 q 483 747 513 739 q 413 769 453 754 q 353 789 378 782 q 304 796 328 796 q 174 743 226 796 l 174 892 q 228 924 194 911 q 300 936 263 936 q 356 929 331 936 q 424 907 381 922 q 487 886 463 893 q 538 879 511 879 q 609 894 578 879 q 658 933 640 908 l 658 783 q 613 751 644 764 q 542 739 581 739 m 276 -14 q 109 40 175 -14 q 43 193 43 93 q 113 353 43 296 q 318 410 183 410 l 501 410 l 501 425 q 467 497 501 476 q 343 518 433 518 q 122 483 231 518 l 122 628 q 243 660 172 647 q 389 672 314 672 q 631 608 546 672 q 715 411 715 544 l 715 0 l 519 0 l 508 56 q 276 -14 432 -14 m 347 124 q 501 188 447 124 l 501 281 l 343 281 q 269 261 293 281 q 244 201 244 242 q 347 124 244 124 z "},"æ":{"ha":1225,"x_min":43,"x_max":1182,"o":"m 294 -14 q 113 39 183 -14 q 43 193 43 92 q 113 353 43 296 q 318 410 183 410 l 501 410 l 501 425 q 467 497 501 476 q 343 518 433 518 q 122 483 231 518 l 122 628 q 243 660 172 647 q 389 672 314 672 q 621 608 539 672 q 722 656 663 639 q 853 672 782 672 q 1094 592 1007 672 q 1182 375 1182 511 l 1182 257 l 715 257 q 785 165 731 193 q 940 138 840 138 q 1049 147 993 138 q 1144 172 1106 157 l 1144 29 q 889 -14 1050 -14 q 736 13 808 -14 q 621 88 664 39 q 485 12 557 38 q 294 -14 413 -14 m 988 386 l 988 415 q 860 521 988 521 q 748 489 781 521 q 715 386 715 457 l 988 386 m 347 124 q 501 182 443 124 l 501 281 l 343 281 q 269 261 293 281 q 244 201 244 242 q 347 124 244 124 z "},"ǽ":{"ha":1225,"x_min":43,"x_max":1182,"o":"m 632 997 l 815 997 l 688 725 l 515 725 l 632 997 m 294 -14 q 113 39 183 -14 q 43 193 43 92 q 113 353 43 296 q 318 410 183 410 l 501 410 l 501 425 q 467 497 501 476 q 343 518 433 518 q 122 483 231 518 l 122 628 q 243 660 172 647 q 389 672 314 672 q 621 608 539 672 q 722 656 663 639 q 853 672 782 672 q 1094 592 1007 672 q 1182 375 1182 511 l 1182 257 l 715 257 q 785 165 731 193 q 940 138 840 138 q 1049 147 993 138 q 1144 172 1106 157 l 1144 29 q 889 -14 1050 -14 q 736 13 808 -14 q 621 88 664 39 q 485 12 557 38 q 294 -14 413 -14 m 988 386 l 988 415 q 860 521 988 521 q 748 489 781 521 q 715 386 715 457 l 988 386 m 347 124 q 501 182 443 124 l 501 281 l 343 281 q 269 261 293 281 q 244 201 244 242 q 347 124 244 124 z "},"b":{"ha":831,"x_min":71,"x_max":788,"o":"m 483 -14 q 368 3 418 -14 q 276 56 318 21 l 265 0 l 71 0 l 71 936 l 294 936 l 294 628 q 476 672 371 672 q 707 590 626 672 q 788 335 788 508 q 707 74 788 161 q 483 -14 626 -14 m 419 149 q 526 193 493 149 q 560 333 560 238 q 526 468 560 428 q 419 508 493 508 q 294 467 340 508 l 294 199 q 419 149 344 149 z "},"c":{"ha":696,"x_min":43,"x_max":653,"o":"m 418 -14 q 141 74 239 -14 q 43 329 43 161 q 144 585 43 499 q 422 672 246 672 q 548 662 494 672 q 651 628 601 651 l 651 469 q 469 507 574 507 q 319 467 368 507 q 271 329 271 426 q 318 194 271 236 q 468 151 365 151 q 653 193 569 151 l 653 28 q 418 -14 557 -14 z "},"ć":{"ha":696,"x_min":43,"x_max":653,"o":"m 422 997 l 606 997 l 478 725 l 306 725 l 422 997 m 418 -14 q 141 74 239 -14 q 43 329 43 161 q 144 585 43 499 q 422 672 246 672 q 548 662 494 672 q 651 628 601 651 l 651 469 q 469 507 574 507 q 319 467 368 507 q 271 329 271 426 q 318 194 271 236 q 468 151 365 151 q 653 193 569 151 l 653 28 q 418 -14 557 -14 z "},"č":{"ha":697,"x_min":43,"x_max":654,"o":"m 113 983 l 283 983 l 383 839 l 488 983 l 654 983 l 453 724 l 314 724 l 113 983 m 418 -14 q 141 74 239 -14 q 43 329 43 161 q 144 585 43 499 q 422 672 246 672 q 548 662 494 672 q 651 628 601 651 l 651 469 q 469 507 574 507 q 319 467 368 507 q 271 329 271 426 q 318 194 271 236 q 468 151 365 151 q 653 193 569 151 l 653 28 q 418 -14 557 -14 z "},"ç":{"ha":696,"x_min":43,"x_max":653,"o":"m 653 28 q 464 -12 568 -8 l 447 -60 q 561 -94 524 -60 q 599 -189 599 -128 q 544 -296 599 -258 q 381 -333 490 -333 q 322 -330 357 -333 q 271 -322 286 -326 l 271 -224 q 354 -235 311 -235 q 437 -225 414 -235 q 460 -186 460 -215 q 438 -148 460 -157 q 369 -139 417 -139 l 294 -139 l 332 -8 q 118 97 193 11 q 43 329 43 182 q 144 585 43 499 q 422 672 246 672 q 548 662 494 672 q 651 628 601 651 l 651 469 q 469 507 574 507 q 319 467 368 507 q 271 329 271 426 q 318 194 271 236 q 468 151 365 151 q 653 193 569 151 l 653 28 z "},"ĉ":{"ha":696,"x_min":43,"x_max":653,"o":"m 308 983 l 447 983 l 649 724 l 482 724 l 378 868 l 278 724 l 107 724 l 308 983 m 418 -14 q 141 74 239 -14 q 43 329 43 161 q 144 585 43 499 q 422 672 246 672 q 548 662 494 672 q 651 628 601 651 l 651 469 q 469 507 574 507 q 319 467 368 507 q 271 329 271 426 q 318 194 271 236 q 468 151 365 151 q 653 193 569 151 l 653 28 q 418 -14 557 -14 z "},"ċ":{"ha":696,"x_min":43,"x_max":653,"o":"m 307 913 l 469 913 l 469 761 l 307 761 l 307 913 m 418 -14 q 141 74 239 -14 q 43 329 43 161 q 144 585 43 499 q 422 672 246 672 q 548 662 494 672 q 651 628 601 651 l 651 469 q 469 507 574 507 q 319 467 368 507 q 271 329 271 426 q 318 194 271 236 q 468 151 365 151 q 653 193 569 151 l 653 28 q 418 -14 557 -14 z "},"d":{"ha":831,"x_min":43,"x_max":760,"o":"m 347 -14 q 119 60 196 -14 q 43 306 43 135 q 84 505 43 422 q 198 630 125 588 q 367 672 271 672 q 536 628 463 672 l 536 936 l 760 936 l 760 0 l 567 0 l 554 56 q 463 3 513 21 q 347 -14 413 -14 m 411 149 q 536 199 485 149 l 536 465 q 415 508 489 508 q 308 455 344 508 q 271 304 271 401 q 304 181 271 214 q 411 149 338 149 z "},"ð":{"ha":794,"x_min":43,"x_max":785,"o":"m 403 -14 q 131 62 218 -14 q 43 278 43 138 q 124 490 43 418 q 358 561 206 561 q 467 546 413 561 q 557 506 521 531 l 557 546 q 533 679 557 631 l 376 611 l 376 693 l 481 738 q 364 765 436 765 q 163 725 258 765 l 163 871 q 400 908 263 908 q 664 817 569 908 l 785 869 l 785 788 l 711 756 q 767 514 767 663 l 767 343 q 676 75 767 164 q 403 -14 586 -14 m 401 133 q 519 172 481 133 q 557 294 557 211 l 557 372 q 400 422 486 422 q 280 385 317 422 q 243 278 243 349 q 283 171 243 208 q 401 133 324 133 z "},"ď":{"ha":967,"x_min":43,"x_max":1106,"o":"m 919 975 l 1106 975 l 969 685 l 794 685 l 919 975 m 347 -14 q 124 69 206 -14 q 43 324 43 153 q 129 584 43 496 q 357 672 215 672 q 536 628 463 672 l 536 936 l 760 936 l 760 0 l 567 0 l 554 56 q 463 3 513 21 q 347 -14 413 -14 m 411 149 q 536 199 485 149 l 536 465 q 415 508 489 508 q 307 463 343 508 q 271 322 271 418 q 305 189 271 229 q 411 149 339 149 z "},"đ":{"ha":832,"x_min":43,"x_max":817,"o":"m 347 -14 q 124 69 206 -14 q 43 324 43 153 q 129 584 43 496 q 357 672 215 672 q 536 628 463 672 l 536 724 l 344 724 l 344 865 l 536 865 l 536 936 l 760 936 l 760 865 l 817 865 l 817 724 l 760 724 l 760 0 l 567 0 l 554 56 q 463 3 513 21 q 347 -14 413 -14 m 411 149 q 536 199 485 149 l 536 465 q 415 508 489 508 q 307 463 343 508 q 271 322 271 418 q 305 189 271 229 q 411 149 339 149 z "},"ḍ":{"ha":831,"x_min":43,"x_max":760,"o":"m 347 -14 q 119 60 196 -14 q 43 306 43 135 q 84 505 43 422 q 198 630 125 588 q 367 672 271 672 q 536 628 463 672 l 536 936 l 760 936 l 760 0 l 567 0 l 554 56 q 463 3 513 21 q 347 -14 413 -14 m 411 149 q 536 199 485 149 l 536 465 q 415 508 489 508 q 308 455 344 508 q 271 304 271 401 q 304 181 271 214 q 411 149 338 149 m 356 -111 l 519 -111 l 519 -262 l 356 -262 l 356 -111 z "},"ḏ":{"ha":831,"x_min":43,"x_max":760,"o":"m 347 -14 q 119 60 196 -14 q 43 306 43 135 q 84 505 43 422 q 198 630 125 588 q 367 672 271 672 q 536 628 463 672 l 536 936 l 760 936 l 760 0 l 567 0 l 554 56 q 463 3 513 21 q 347 -14 413 -14 m 411 149 q 536 199 485 149 l 536 465 q 415 508 489 508 q 308 455 344 508 q 271 304 271 401 q 304 181 271 214 q 411 149 338 149 m 204 -114 l 646 -114 l 646 -250 l 204 -250 l 204 -114 z "},"e":{"ha":760,"x_min":43,"x_max":717,"o":"m 424 -14 q 145 74 247 -14 q 43 329 43 161 q 131 581 43 490 q 388 672 219 672 q 629 592 542 672 q 717 375 717 511 l 717 257 l 250 257 q 319 167 265 193 q 475 140 374 140 q 585 150 529 140 q 679 175 642 160 l 679 29 q 424 -14 585 -14 m 522 386 l 522 415 q 394 521 522 521 q 283 489 315 521 q 250 386 250 457 l 522 386 z "},"é":{"ha":760,"x_min":43,"x_max":717,"o":"m 422 997 l 606 997 l 478 725 l 306 725 l 422 997 m 424 -14 q 145 74 247 -14 q 43 329 43 161 q 131 581 43 490 q 388 672 219 672 q 629 592 542 672 q 717 375 717 511 l 717 257 l 250 257 q 319 167 265 193 q 475 140 374 140 q 585 150 529 140 q 679 175 642 160 l 679 29 q 424 -14 585 -14 m 522 386 l 522 415 q 394 521 522 521 q 283 489 315 521 q 250 386 250 457 l 522 386 z "},"ĕ":{"ha":760,"x_min":43,"x_max":717,"o":"m 394 725 q 219 788 285 725 q 154 964 154 851 l 301 964 q 324 881 301 913 q 394 850 347 850 q 467 881 443 850 q 490 964 490 913 l 638 964 q 571 788 638 851 q 394 725 504 725 m 424 -14 q 145 74 247 -14 q 43 329 43 161 q 131 581 43 490 q 388 672 219 672 q 629 592 542 672 q 717 375 717 511 l 717 257 l 250 257 q 319 167 265 193 q 475 140 374 140 q 585 150 529 140 q 679 175 642 160 l 679 29 q 424 -14 585 -14 m 522 386 l 522 415 q 394 521 522 521 q 283 489 315 521 q 250 386 250 457 l 522 386 z "},"ě":{"ha":760,"x_min":43,"x_max":717,"o":"m 131 983 l 301 983 l 401 839 l 506 983 l 672 983 l 471 724 l 332 724 l 131 983 m 424 -14 q 145 74 247 -14 q 43 329 43 161 q 131 581 43 490 q 388 672 219 672 q 629 592 542 672 q 717 375 717 511 l 717 257 l 250 257 q 319 167 265 193 q 475 140 374 140 q 585 150 529 140 q 679 175 642 160 l 679 29 q 424 -14 585 -14 m 522 386 l 522 415 q 394 521 522 521 q 283 489 315 521 q 250 386 250 457 l 522 386 z "},"ê":{"ha":760,"x_min":43,"x_max":717,"o":"m 321 983 l 460 983 l 661 724 l 494 724 l 390 868 l 290 724 l 119 724 l 321 983 m 424 -14 q 145 74 247 -14 q 43 329 43 161 q 131 581 43 490 q 388 672 219 672 q 629 592 542 672 q 717 375 717 511 l 717 257 l 250 257 q 319 167 265 193 q 475 140 374 140 q 585 150 529 140 q 679 175 642 160 l 679 29 q 424 -14 585 -14 m 522 386 l 522 415 q 394 521 522 521 q 283 489 315 521 q 250 386 250 457 l 522 386 z "},"ế":{"ha":760,"x_min":43,"x_max":807,"o":"m 640 1099 l 807 1099 l 703 892 l 544 892 l 640 1099 m 306 924 l 474 924 l 660 724 l 481 724 l 390 835 l 300 724 l 119 724 l 306 924 m 424 -14 q 145 74 247 -14 q 43 329 43 161 q 131 581 43 490 q 388 672 219 672 q 629 592 542 672 q 717 375 717 511 l 717 257 l 250 257 q 319 167 265 193 q 475 140 374 140 q 585 150 529 140 q 679 175 642 160 l 679 29 q 424 -14 585 -14 m 522 386 l 522 415 q 394 521 522 521 q 283 489 315 521 q 250 386 250 457 l 522 386 z "},"ệ":{"ha":760,"x_min":43,"x_max":717,"o":"m 322 983 l 461 983 l 663 724 l 496 724 l 392 868 l 292 724 l 121 724 l 322 983 m 424 -14 q 145 74 247 -14 q 43 329 43 161 q 131 581 43 490 q 388 672 219 672 q 629 592 542 672 q 717 375 717 511 l 717 257 l 250 257 q 319 167 265 193 q 475 140 374 140 q 585 150 529 140 q 679 175 642 160 l 679 29 q 424 -14 585 -14 m 522 386 l 522 415 q 394 521 522 521 q 283 489 315 521 q 250 386 250 457 l 522 386 m 310 -97 l 474 -97 l 474 -249 l 310 -249 l 310 -97 z "},"ề":{"ha":760,"x_min":-28,"x_max":717,"o":"m -28 1100 l 139 1100 l 235 893 l 76 893 l -28 1100 m 306 925 l 474 925 l 660 725 l 479 725 l 389 836 l 299 725 l 119 725 l 306 925 m 424 -14 q 145 74 247 -14 q 43 329 43 161 q 131 581 43 490 q 388 672 219 672 q 629 592 542 672 q 717 375 717 511 l 717 257 l 250 257 q 319 167 265 193 q 475 140 374 140 q 585 150 529 140 q 679 175 642 160 l 679 29 q 424 -14 585 -14 m 522 386 l 522 415 q 394 521 522 521 q 283 489 315 521 q 250 386 250 457 l 522 386 z "},"ể":{"ha":760,"x_min":43,"x_max":813,"o":"m 558 960 q 638 972 617 961 q 660 1006 660 983 q 600 1040 660 1040 q 526 1026 561 1040 l 526 1119 q 653 1136 581 1136 q 772 1105 731 1136 q 813 1021 813 1074 q 710 907 813 924 l 710 861 l 558 861 l 558 960 m 306 924 l 474 924 l 660 724 l 481 724 l 390 835 l 300 724 l 119 724 l 306 924 m 424 -14 q 145 74 247 -14 q 43 329 43 161 q 131 581 43 490 q 388 672 219 672 q 629 592 542 672 q 717 375 717 511 l 717 257 l 250 257 q 319 167 265 193 q 475 140 374 140 q 585 150 529 140 q 679 175 642 160 l 679 29 q 424 -14 585 -14 m 522 386 l 522 415 q 394 521 522 521 q 283 489 315 521 q 250 386 250 457 l 522 386 z "},"ễ":{"ha":760,"x_min":43,"x_max":717,"o":"m 528 944 q 472 951 499 944 q 401 974 444 958 q 342 993 367 986 q 293 1000 317 1000 q 165 949 214 1000 l 165 1075 q 219 1107 185 1094 q 289 1119 253 1119 q 343 1113 318 1119 q 411 1090 368 1106 q 474 1069 450 1076 q 524 1063 497 1063 q 594 1077 564 1063 q 643 1117 625 1092 l 643 989 q 598 957 629 969 q 528 944 567 944 m 308 924 l 476 924 l 663 724 l 483 724 l 393 835 l 303 724 l 122 724 l 308 924 m 424 -14 q 145 74 247 -14 q 43 329 43 161 q 131 581 43 490 q 388 672 219 672 q 629 592 542 672 q 717 375 717 511 l 717 257 l 250 257 q 319 167 265 193 q 475 140 374 140 q 585 150 529 140 q 679 175 642 160 l 679 29 q 424 -14 585 -14 m 522 386 l 522 415 q 394 521 522 521 q 283 489 315 521 q 250 386 250 457 l 522 386 z "},"ë":{"ha":760,"x_min":43,"x_max":717,"o":"m 165 913 l 329 913 l 329 761 l 165 761 l 165 913 m 451 913 l 615 913 l 615 761 l 451 761 l 451 913 m 424 -14 q 145 74 247 -14 q 43 329 43 161 q 131 581 43 490 q 388 672 219 672 q 629 592 542 672 q 717 375 717 511 l 717 257 l 250 257 q 319 167 265 193 q 475 140 374 140 q 585 150 529 140 q 679 175 642 160 l 679 29 q 424 -14 585 -14 m 522 386 l 522 415 q 394 521 522 521 q 283 489 315 521 q 250 386 250 457 l 522 386 z "},"ė":{"ha":760,"x_min":43,"x_max":717,"o":"m 311 913 l 474 913 l 474 761 l 311 761 l 311 913 m 424 -14 q 145 74 247 -14 q 43 329 43 161 q 131 581 43 490 q 388 672 219 672 q 629 592 542 672 q 717 375 717 511 l 717 257 l 250 257 q 319 167 265 193 q 475 140 374 140 q 585 150 529 140 q 679 175 642 160 l 679 29 q 424 -14 585 -14 m 522 386 l 522 415 q 394 521 522 521 q 283 489 315 521 q 250 386 250 457 l 522 386 z "},"ẹ":{"ha":760,"x_min":43,"x_max":717,"o":"m 424 -14 q 145 74 247 -14 q 43 329 43 161 q 131 581 43 490 q 388 672 219 672 q 629 592 542 672 q 717 375 717 511 l 717 257 l 250 257 q 319 167 265 193 q 475 140 374 140 q 585 150 529 140 q 679 175 642 160 l 679 29 q 424 -14 585 -14 m 522 386 l 522 415 q 394 521 522 521 q 283 489 315 521 q 250 386 250 457 l 522 386 m 314 -97 l 478 -97 l 478 -249 l 314 -249 l 314 -97 z "},"è":{"ha":760,"x_min":43,"x_max":717,"o":"m 176 997 l 360 997 l 476 725 l 306 725 l 176 997 m 424 -14 q 145 74 247 -14 q 43 329 43 161 q 131 581 43 490 q 388 672 219 672 q 629 592 542 672 q 717 375 717 511 l 717 257 l 250 257 q 319 167 265 193 q 475 140 374 140 q 585 150 529 140 q 679 175 642 160 l 679 29 q 424 -14 585 -14 m 522 386 l 522 415 q 394 521 522 521 q 283 489 315 521 q 250 386 250 457 l 522 386 z "},"ẻ":{"ha":760,"x_min":43,"x_max":717,"o":"m 307 836 q 404 856 378 840 q 431 900 431 871 q 340 950 431 950 q 257 938 297 950 l 257 1038 q 406 1057 313 1057 q 545 1019 496 1057 q 594 919 594 982 q 567 831 594 861 q 476 785 539 800 l 476 724 l 307 724 l 307 836 m 424 -14 q 145 74 247 -14 q 43 329 43 161 q 131 581 43 490 q 388 672 219 672 q 629 592 542 672 q 717 375 717 511 l 717 257 l 250 257 q 319 167 265 193 q 475 140 374 140 q 585 150 529 140 q 679 175 642 160 l 679 29 q 424 -14 585 -14 m 522 386 l 522 415 q 394 521 522 521 q 283 489 315 521 q 250 386 250 457 l 522 386 z "},"ē":{"ha":760,"x_min":43,"x_max":717,"o":"m 175 908 l 617 908 l 617 774 l 175 774 l 175 908 m 424 -14 q 145 74 247 -14 q 43 329 43 161 q 131 581 43 490 q 388 672 219 672 q 629 592 542 672 q 717 375 717 511 l 717 257 l 250 257 q 319 167 265 193 q 475 140 374 140 q 585 150 529 140 q 679 175 642 160 l 679 29 q 424 -14 585 -14 m 522 386 l 522 415 q 394 521 522 521 q 283 489 315 521 q 250 386 250 457 l 522 386 z "},"ę":{"ha":760,"x_min":43,"x_max":717,"o":"m 717 257 l 250 257 q 319 167 265 193 q 475 140 374 140 q 585 150 529 140 q 679 175 642 160 l 679 29 q 575 -1 638 10 q 490 -135 490 -67 q 551 -187 490 -187 q 589 -183 569 -187 q 621 -172 608 -179 l 621 -285 q 564 -299 600 -293 q 490 -306 528 -306 q 367 -272 415 -306 q 319 -175 319 -239 q 342 -87 319 -129 q 403 -14 364 -46 q 139 79 235 -8 q 43 329 43 167 q 131 581 43 490 q 388 672 219 672 q 629 592 542 672 q 717 375 717 511 l 717 257 m 522 415 q 394 521 522 521 q 283 489 315 521 q 250 386 250 457 l 522 386 l 522 415 z "},"ẽ":{"ha":760,"x_min":43,"x_max":717,"o":"m 526 739 q 467 747 497 739 q 397 769 438 754 q 338 789 363 782 q 289 796 313 796 q 158 743 211 796 l 158 892 q 213 924 179 911 q 285 936 247 936 q 340 929 315 936 q 408 907 365 922 q 472 886 447 893 q 522 879 496 879 q 594 894 563 879 q 643 933 625 908 l 643 783 q 597 751 629 764 q 526 739 565 739 m 424 -14 q 145 74 247 -14 q 43 329 43 161 q 131 581 43 490 q 388 672 219 672 q 629 592 542 672 q 717 375 717 511 l 717 257 l 250 257 q 319 167 265 193 q 475 140 374 140 q 585 150 529 140 q 679 175 642 160 l 679 29 q 424 -14 585 -14 m 522 386 l 522 415 q 394 521 522 521 q 283 489 315 521 q 250 386 250 457 l 522 386 z "},"f":{"ha":497,"x_min":15,"x_max":508,"o":"m 103 489 l 15 489 l 15 658 l 103 658 l 103 713 q 165 891 103 824 q 346 958 228 958 q 508 929 435 958 l 508 779 q 425 794 465 794 q 349 774 371 794 q 326 708 326 754 l 326 658 l 489 658 l 479 489 l 326 489 l 326 0 l 103 0 l 103 489 z "},"g":{"ha":782,"x_min":46,"x_max":758,"o":"m 354 -244 q 195 -235 276 -244 q 65 -208 114 -225 l 65 -56 q 195 -83 118 -74 q 342 -93 272 -93 q 470 -84 429 -93 q 511 -53 511 -75 q 494 -26 511 -33 q 429 -19 478 -19 l 247 -19 q 109 13 158 -19 q 60 106 60 44 q 86 185 60 149 q 161 240 113 222 q 74 315 103 269 q 46 426 46 360 q 127 613 46 553 q 371 672 208 672 q 442 667 401 672 q 506 658 483 663 l 758 658 l 753 519 l 657 519 q 692 417 692 485 q 628 261 692 318 q 443 204 565 204 q 363 210 413 204 q 275 163 275 200 q 288 141 275 147 q 328 135 300 135 l 496 135 q 653 88 597 135 q 710 -47 710 40 q 620 -194 710 -144 q 354 -244 531 -244 m 372 328 q 473 352 444 328 q 501 436 501 376 q 472 522 501 496 q 372 547 443 547 q 274 522 304 547 q 244 436 244 496 q 273 353 244 379 q 372 328 301 328 z "},"ğ":{"ha":782,"x_min":46,"x_max":758,"o":"m 385 725 q 210 788 275 725 q 144 964 144 851 l 292 964 q 315 881 292 913 q 385 850 338 850 q 457 881 433 850 q 481 964 481 913 l 628 964 q 561 788 628 851 q 385 725 494 725 m 354 -244 q 195 -235 276 -244 q 65 -208 114 -225 l 65 -56 q 195 -83 118 -74 q 342 -93 272 -93 q 470 -84 429 -93 q 511 -53 511 -75 q 494 -26 511 -33 q 429 -19 478 -19 l 247 -19 q 109 13 158 -19 q 60 106 60 44 q 86 185 60 149 q 161 240 113 222 q 74 315 103 269 q 46 426 46 360 q 127 613 46 553 q 371 672 208 672 q 442 667 401 672 q 506 658 483 663 l 758 658 l 753 519 l 657 519 q 692 417 692 485 q 628 261 692 318 q 443 204 565 204 q 363 210 413 204 q 275 163 275 200 q 288 141 275 147 q 328 135 300 135 l 496 135 q 653 88 597 135 q 710 -47 710 40 q 620 -194 710 -144 q 354 -244 531 -244 m 372 328 q 473 352 444 328 q 501 436 501 376 q 472 522 501 496 q 372 547 443 547 q 274 522 304 547 q 244 436 244 496 q 273 353 244 379 q 372 328 301 328 z "},"ǧ":{"ha":782,"x_min":46,"x_max":758,"o":"m 135 985 l 306 985 l 406 840 l 510 985 l 676 985 l 475 725 l 336 725 l 135 985 m 354 -244 q 195 -235 276 -244 q 65 -208 114 -225 l 65 -56 q 195 -83 118 -74 q 342 -93 272 -93 q 470 -84 429 -93 q 511 -53 511 -75 q 494 -26 511 -33 q 429 -19 478 -19 l 247 -19 q 109 13 158 -19 q 60 106 60 44 q 86 185 60 149 q 161 240 113 222 q 74 315 103 269 q 46 426 46 360 q 127 613 46 553 q 371 672 208 672 q 442 667 401 672 q 506 658 483 663 l 758 658 l 753 519 l 657 519 q 692 417 692 485 q 628 261 692 318 q 443 204 565 204 q 363 210 413 204 q 275 163 275 200 q 288 141 275 147 q 328 135 300 135 l 496 135 q 653 88 597 135 q 710 -47 710 40 q 620 -194 710 -144 q 354 -244 531 -244 m 372 328 q 473 352 444 328 q 501 436 501 376 q 472 522 501 496 q 372 547 443 547 q 274 522 304 547 q 244 436 244 496 q 273 353 244 379 q 372 328 301 328 z "},"ĝ":{"ha":782,"x_min":46,"x_max":758,"o":"m 321 983 l 460 983 l 661 724 l 494 724 l 390 868 l 290 724 l 119 724 l 321 983 m 354 -244 q 195 -235 276 -244 q 65 -208 114 -225 l 65 -56 q 195 -83 118 -74 q 342 -93 272 -93 q 470 -84 429 -93 q 511 -53 511 -75 q 494 -26 511 -33 q 429 -19 478 -19 l 247 -19 q 109 13 158 -19 q 60 106 60 44 q 86 185 60 149 q 161 240 113 222 q 74 315 103 269 q 46 426 46 360 q 127 613 46 553 q 371 672 208 672 q 442 667 401 672 q 506 658 483 663 l 758 658 l 753 519 l 657 519 q 692 417 692 485 q 628 261 692 318 q 443 204 565 204 q 363 210 413 204 q 275 163 275 200 q 288 141 275 147 q 328 135 300 135 l 496 135 q 653 88 597 135 q 710 -47 710 40 q 620 -194 710 -144 q 354 -244 531 -244 m 372 328 q 473 352 444 328 q 501 436 501 376 q 472 522 501 496 q 372 547 443 547 q 274 522 304 547 q 244 436 244 496 q 273 353 244 379 q 372 328 301 328 z "},"ģ":{"ha":782,"x_min":46,"x_max":758,"o":"m 363 1021 l 514 1021 l 468 725 l 289 725 l 363 1021 m 354 -244 q 195 -235 276 -244 q 65 -208 114 -225 l 65 -56 q 195 -83 118 -74 q 342 -93 272 -93 q 470 -84 429 -93 q 511 -53 511 -75 q 494 -26 511 -33 q 429 -19 478 -19 l 247 -19 q 109 13 158 -19 q 60 106 60 44 q 86 185 60 149 q 161 240 113 222 q 74 315 103 269 q 46 426 46 360 q 127 613 46 553 q 371 672 208 672 q 442 667 401 672 q 506 658 483 663 l 758 658 l 753 519 l 657 519 q 692 417 692 485 q 628 261 692 318 q 443 204 565 204 q 363 210 413 204 q 275 163 275 200 q 288 141 275 147 q 328 135 300 135 l 496 135 q 653 88 597 135 q 710 -47 710 40 q 620 -194 710 -144 q 354 -244 531 -244 m 372 328 q 473 352 444 328 q 501 436 501 376 q 472 522 501 496 q 372 547 443 547 q 274 522 304 547 q 244 436 244 496 q 273 353 244 379 q 372 328 301 328 z "},"ġ":{"ha":782,"x_min":46,"x_max":758,"o":"m 293 894 l 456 894 l 456 743 l 293 743 l 293 894 m 354 -244 q 195 -235 276 -244 q 65 -208 114 -225 l 65 -56 q 195 -83 118 -74 q 342 -93 272 -93 q 470 -84 429 -93 q 511 -53 511 -75 q 494 -26 511 -33 q 429 -19 478 -19 l 247 -19 q 109 13 158 -19 q 60 106 60 44 q 86 185 60 149 q 161 240 113 222 q 74 315 103 269 q 46 426 46 360 q 127 613 46 553 q 371 672 208 672 q 442 667 401 672 q 506 658 483 663 l 758 658 l 753 519 l 657 519 q 692 417 692 485 q 628 261 692 318 q 443 204 565 204 q 363 210 413 204 q 275 163 275 200 q 288 141 275 147 q 328 135 300 135 l 496 135 q 653 88 597 135 q 710 -47 710 40 q 620 -194 710 -144 q 354 -244 531 -244 m 372 328 q 473 352 444 328 q 501 436 501 376 q 472 522 501 496 q 372 547 443 547 q 274 522 304 547 q 244 436 244 496 q 273 353 244 379 q 372 328 301 328 z "},"ḡ":{"ha":782,"x_min":46,"x_max":758,"o":"m 169 900 l 611 900 l 611 765 l 169 765 l 169 900 m 354 -244 q 195 -235 276 -244 q 65 -208 114 -225 l 65 -56 q 195 -83 118 -74 q 342 -93 272 -93 q 470 -84 429 -93 q 511 -53 511 -75 q 494 -26 511 -33 q 429 -19 478 -19 l 247 -19 q 109 13 158 -19 q 60 106 60 44 q 86 185 60 149 q 161 240 113 222 q 74 315 103 269 q 46 426 46 360 q 127 613 46 553 q 371 672 208 672 q 442 667 401 672 q 506 658 483 663 l 758 658 l 753 519 l 657 519 q 692 417 692 485 q 628 261 692 318 q 443 204 565 204 q 363 210 413 204 q 275 163 275 200 q 288 141 275 147 q 328 135 300 135 l 496 135 q 653 88 597 135 q 710 -47 710 40 q 620 -194 710 -144 q 354 -244 531 -244 m 372 328 q 473 352 444 328 q 501 436 501 376 q 472 522 501 496 q 372 547 443 547 q 274 522 304 547 q 244 436 244 496 q 273 353 244 379 q 372 328 301 328 z "},"h":{"ha":826,"x_min":71,"x_max":763,"o":"m 71 936 l 294 936 l 294 610 q 389 655 333 638 q 507 672 444 672 q 701 610 639 672 q 763 418 763 547 l 763 0 l 539 0 l 539 403 q 515 483 539 460 q 431 507 490 507 q 357 490 394 507 q 294 449 319 474 l 294 0 l 71 0 l 71 936 z "},"ħ":{"ha":826,"x_min":8,"x_max":763,"o":"m 71 726 l 8 726 l 8 867 l 71 867 l 71 936 l 294 936 l 294 867 l 465 867 l 465 726 l 294 726 l 294 610 q 389 655 333 638 q 507 672 444 672 q 701 610 639 672 q 763 418 763 547 l 763 0 l 538 0 l 538 403 q 514 483 538 460 q 431 507 490 507 q 357 490 394 507 q 294 449 319 474 l 294 0 l 71 0 l 71 726 z "},"ḫ":{"ha":826,"x_min":71,"x_max":763,"o":"m 71 936 l 294 936 l 294 610 q 389 655 333 638 q 507 672 444 672 q 701 610 639 672 q 763 418 763 547 l 763 0 l 539 0 l 539 403 q 515 483 539 460 q 431 507 490 507 q 357 490 394 507 q 294 449 319 474 l 294 0 l 71 0 l 71 936 m 419 -315 q 244 -252 310 -315 q 179 -76 179 -189 l 326 -76 q 349 -159 326 -128 q 419 -190 372 -190 q 492 -159 468 -190 q 515 -76 515 -128 l 663 -76 q 596 -252 663 -189 q 419 -315 529 -315 z "},"ĥ":{"ha":826,"x_min":71,"x_max":763,"o":"m 276 1240 l 415 1240 l 617 981 l 450 981 l 346 1125 l 246 981 l 75 981 l 276 1240 m 71 936 l 294 936 l 294 610 q 389 655 333 638 q 507 672 444 672 q 701 610 639 672 q 763 418 763 547 l 763 0 l 539 0 l 539 403 q 515 483 539 460 q 431 507 490 507 q 357 490 394 507 q 294 449 319 474 l 294 0 l 71 0 l 71 936 z "},"ḥ":{"ha":826,"x_min":71,"x_max":763,"o":"m 71 936 l 294 936 l 294 610 q 389 655 333 638 q 507 672 444 672 q 701 610 639 672 q 763 418 763 547 l 763 0 l 539 0 l 539 403 q 515 483 539 460 q 431 507 490 507 q 357 490 394 507 q 294 449 319 474 l 294 0 l 71 0 l 71 936 m 339 -111 l 503 -111 l 503 -262 l 339 -262 l 339 -111 z "},"i":{"ha":464,"x_min":71,"x_max":393,"o":"m 150 931 l 393 931 l 393 763 l 150 763 l 150 931 m 168 493 l 71 493 l 90 658 l 392 658 l 392 0 l 168 0 l 168 493 z "},"ı":{"ha":464,"x_min":71,"x_max":392,"o":"m 168 493 l 71 493 l 90 658 l 392 658 l 392 0 l 168 0 l 168 493 z "},"í":{"ha":464,"x_min":71,"x_max":467,"o":"m 283 997 l 467 997 l 339 725 l 167 725 l 283 997 m 168 493 l 71 493 l 90 658 l 392 658 l 392 0 l 168 0 l 168 493 z "},"ĭ":{"ha":464,"x_min":-4,"x_max":479,"o":"m 236 725 q 61 788 126 725 q -4 964 -4 851 l 143 964 q 166 881 143 913 q 236 850 189 850 q 308 881 285 850 q 332 964 332 913 l 479 964 q 413 788 479 851 q 236 725 346 725 m 168 493 l 71 493 l 90 658 l 392 658 l 392 0 l 168 0 l 168 493 z "},"ǐ":{"ha":464,"x_min":-29,"x_max":513,"o":"m -29 983 l 142 983 l 242 839 l 346 983 l 513 983 l 311 724 l 172 724 l -29 983 m 168 493 l 71 493 l 90 658 l 392 658 l 392 0 l 168 0 l 168 493 z "},"î":{"ha":464,"x_min":-31,"x_max":511,"o":"m 171 983 l 310 983 l 511 724 l 344 724 l 240 868 l 140 724 l -31 724 l 171 983 m 168 493 l 71 493 l 90 658 l 392 658 l 392 0 l 168 0 l 168 493 z "},"ï":{"ha":464,"x_min":11,"x_max":461,"o":"m 11 913 l 175 913 l 175 761 l 11 761 l 11 913 m 297 913 l 461 913 l 461 761 l 297 761 l 297 913 m 168 493 l 71 493 l 90 658 l 392 658 l 392 0 l 168 0 l 168 493 z "},"ị":{"ha":464,"x_min":71,"x_max":393,"o":"m 150 931 l 393 931 l 393 763 l 150 763 l 150 931 m 168 493 l 71 493 l 90 658 l 392 658 l 392 0 l 168 0 l 168 493 m 194 -97 l 358 -97 l 358 -249 l 194 -249 l 194 -97 z "},"ì":{"ha":464,"x_min":57,"x_max":392,"o":"m 57 997 l 240 997 l 357 725 l 186 725 l 57 997 m 168 493 l 71 493 l 90 658 l 392 658 l 392 0 l 168 0 l 168 493 z "},"ỉ":{"ha":464,"x_min":71,"x_max":438,"o":"m 150 836 q 247 856 221 840 q 274 900 274 871 q 183 950 274 950 q 100 938 140 950 l 100 1038 q 249 1057 156 1057 q 388 1019 339 1057 q 438 919 438 982 q 410 831 438 861 q 319 785 382 800 l 319 724 l 150 724 l 150 836 m 168 493 l 71 493 l 90 658 l 392 658 l 392 0 l 168 0 l 168 493 z "},"ĳ":{"ha":838,"x_min":71,"x_max":767,"o":"m 150 931 l 393 931 l 393 763 l 150 763 l 150 931 m 524 931 l 767 931 l 767 763 l 524 763 l 524 931 m 168 493 l 71 493 l 90 658 l 392 658 l 392 0 l 168 0 l 168 493 m 526 -325 q 363 -297 428 -325 l 363 -146 q 446 -160 404 -160 q 519 -140 496 -160 q 543 -76 543 -119 l 543 493 l 446 493 l 465 658 l 767 658 l 767 -96 q 706 -263 767 -201 q 526 -325 646 -325 z "},"ī":{"ha":464,"x_min":13,"x_max":454,"o":"m 13 932 l 454 932 l 454 797 l 13 797 l 13 932 m 168 493 l 71 493 l 90 658 l 392 658 l 392 0 l 168 0 l 168 493 z "},"į":{"ha":464,"x_min":71,"x_max":404,"o":"m 393 763 l 150 763 l 150 931 l 393 931 l 393 763 m 335 -187 q 372 -183 353 -187 q 404 -172 392 -179 l 404 -285 q 347 -299 383 -293 q 274 -306 311 -306 q 151 -272 199 -306 q 103 -175 103 -239 q 130 -78 103 -124 q 204 0 157 -32 l 168 0 l 168 493 l 71 493 l 90 658 l 392 658 l 392 0 l 361 0 q 274 -135 274 -67 q 335 -187 274 -187 z "},"ĩ":{"ha":464,"x_min":-11,"x_max":474,"o":"m 357 747 q 298 755 328 747 q 228 778 268 763 q 168 797 193 790 q 119 804 143 804 q -11 751 42 804 l -11 900 q 44 932 10 919 q 115 944 78 944 q 171 938 146 944 q 239 915 196 931 q 302 894 278 901 q 353 888 326 888 q 424 902 393 888 q 474 942 456 917 l 474 792 q 428 760 460 772 q 357 747 396 747 m 168 493 l 71 493 l 90 658 l 392 658 l 392 0 l 168 0 l 168 493 z "},"j":{"ha":463,"x_min":-12,"x_max":392,"o":"m 149 931 l 392 931 l 392 763 l 149 763 l 149 931 m 151 -325 q -12 -297 53 -325 l -12 -146 q 71 -160 29 -160 q 144 -140 121 -160 q 168 -76 168 -119 l 168 493 l 71 493 l 90 658 l 392 658 l 392 -96 q 331 -263 392 -201 q 151 -325 271 -325 z "},"ȷ":{"ha":461,"x_min":-14,"x_max":390,"o":"m 150 -325 q -14 -297 51 -325 l -14 -146 q 69 -160 28 -160 q 143 -140 119 -160 q 167 -76 167 -119 l 167 493 l 69 493 l 89 658 l 390 658 l 390 -96 q 330 -263 390 -201 q 150 -325 269 -325 z "},"ĵ":{"ha":461,"x_min":-19,"x_max":522,"o":"m 182 983 l 321 983 l 522 724 l 356 724 l 251 868 l 151 724 l -19 724 l 182 983 m 150 -325 q -14 -297 51 -325 l -14 -146 q 69 -160 28 -160 q 143 -140 119 -160 q 167 -76 167 -119 l 167 493 l 69 493 l 89 658 l 390 658 l 390 -96 q 330 -263 390 -201 q 150 -325 269 -325 z "},"k":{"ha":822,"x_min":71,"x_max":779,"o":"m 71 936 l 294 936 l 294 447 l 510 658 l 764 658 l 500 385 l 779 0 l 542 0 l 360 267 l 294 203 l 294 0 l 71 0 l 71 936 z "},"ķ":{"ha":822,"x_min":71,"x_max":779,"o":"m 71 936 l 294 936 l 294 447 l 510 658 l 764 658 l 500 385 l 779 0 l 542 0 l 360 267 l 294 203 l 294 0 l 71 0 l 71 936 m 306 -51 l 485 -51 l 411 -347 l 260 -347 l 306 -51 z "},"ĸ":{"ha":822,"x_min":71,"x_max":779,"o":"m 71 658 l 294 658 l 294 426 l 510 658 l 764 658 l 500 368 l 779 0 l 542 0 l 361 250 l 294 181 l 294 0 l 71 0 l 71 658 z "},"l":{"ha":428,"x_min":71,"x_max":414,"o":"m 274 -14 q 118 33 165 -14 q 71 185 71 81 l 71 936 l 294 936 l 294 207 q 307 163 294 175 q 347 151 319 151 q 414 161 385 151 l 414 10 q 349 -8 381 -3 q 274 -14 318 -14 z "},"ĺ":{"ha":428,"x_min":71,"x_max":414,"o":"m 213 1301 l 396 1301 l 268 1029 l 96 1029 l 213 1301 m 274 -14 q 118 33 165 -14 q 71 185 71 81 l 71 936 l 294 936 l 294 207 q 307 163 294 175 q 347 151 319 151 q 414 161 385 151 l 414 10 q 349 -8 381 -3 q 274 -14 318 -14 z "},"ľ":{"ha":428,"x_min":71,"x_max":578,"o":"m 399 1226 l 578 1226 l 504 931 l 353 931 l 399 1226 m 274 -14 q 118 33 165 -14 q 71 185 71 81 l 71 936 l 294 936 l 294 207 q 307 163 294 175 q 347 151 319 151 q 414 161 385 151 l 414 10 q 349 -8 381 -3 q 274 -14 318 -14 z "},"ļ":{"ha":428,"x_min":71,"x_max":414,"o":"m 274 -14 q 118 33 165 -14 q 71 185 71 81 l 71 936 l 294 936 l 294 207 q 307 163 294 175 q 347 151 319 151 q 414 161 385 151 l 414 10 q 349 -8 381 -3 q 274 -14 318 -14 m 179 -51 l 358 -51 l 285 -347 l 133 -347 l 179 -51 z "},"ŀ":{"ha":510,"x_min":71,"x_max":558,"o":"m 274 -14 q 118 33 165 -14 q 71 185 71 81 l 71 936 l 294 936 l 294 207 q 307 163 294 175 q 347 151 319 151 q 414 161 385 151 l 414 10 q 349 -8 381 -3 q 274 -14 318 -14 m 394 551 l 558 551 l 558 400 l 394 400 l 394 551 z "},"ḷ":{"ha":428,"x_min":71,"x_max":414,"o":"m 274 -14 q 118 33 165 -14 q 71 185 71 81 l 71 936 l 294 936 l 294 207 q 307 163 294 175 q 347 151 319 151 q 414 161 385 151 l 414 10 q 349 -8 381 -3 q 274 -14 318 -14 m 163 -97 l 326 -97 l 326 -249 l 163 -249 l 163 -97 z "},"ḹ":{"ha":428,"x_min":-36,"x_max":414,"o":"m -36 1142 l 406 1142 l 406 1007 l -36 1007 l -36 1142 m 274 -14 q 118 33 165 -14 q 71 185 71 81 l 71 936 l 294 936 l 294 207 q 307 163 294 175 q 347 151 319 151 q 414 161 385 151 l 414 10 q 349 -8 381 -3 q 274 -14 318 -14 m 163 -97 l 326 -97 l 326 -249 l 163 -249 l 163 -97 z "},"ḻ":{"ha":428,"x_min":10,"x_max":451,"o":"m 274 -14 q 118 33 165 -14 q 71 185 71 81 l 71 936 l 294 936 l 294 207 q 307 163 294 175 q 347 151 319 151 q 414 161 385 151 l 414 10 q 349 -8 381 -3 q 274 -14 318 -14 m 10 -97 l 451 -97 l 451 -233 l 10 -233 l 10 -97 z "},"ł":{"ha":428,"x_min":-43,"x_max":414,"o":"m 274 -14 q 118 33 165 -14 q 71 185 71 81 l 71 358 l -43 308 l -43 468 l 71 518 l 71 936 l 294 936 l 294 615 l 411 667 l 411 507 l 294 456 l 294 207 q 307 163 294 175 q 347 151 319 151 q 414 161 385 151 l 414 10 q 349 -8 381 -3 q 274 -14 318 -14 z "},"m":{"ha":1193,"x_min":71,"x_max":1129,"o":"m 71 658 l 278 658 l 285 600 q 504 672 385 672 q 606 653 568 672 q 667 596 644 633 q 774 652 717 632 q 906 672 832 672 q 1074 613 1019 672 q 1129 431 1129 553 l 1129 0 l 908 0 l 908 404 q 885 483 908 458 q 811 507 863 507 q 748 494 778 507 q 697 457 718 481 q 701 394 701 436 l 701 0 l 493 0 l 493 407 q 475 483 493 460 q 410 507 457 507 q 289 447 351 507 l 289 0 l 71 0 l 71 658 z "},"ṃ":{"ha":1193,"x_min":71,"x_max":1129,"o":"m 71 658 l 278 658 l 285 600 q 504 672 385 672 q 606 653 568 672 q 667 596 644 633 q 774 652 717 632 q 906 672 832 672 q 1074 613 1019 672 q 1129 431 1129 553 l 1129 0 l 908 0 l 908 404 q 885 483 908 458 q 811 507 863 507 q 748 494 778 507 q 697 457 718 481 q 701 394 701 436 l 701 0 l 493 0 l 493 407 q 475 483 493 460 q 410 507 457 507 q 289 447 351 507 l 289 0 l 71 0 l 71 658 m 525 -97 l 689 -97 l 689 -249 l 525 -249 l 525 -97 z "},"n":{"ha":826,"x_min":71,"x_max":763,"o":"m 71 658 l 279 658 l 286 601 q 391 652 329 632 q 518 672 453 672 q 703 611 644 672 q 763 422 763 550 l 763 0 l 539 0 l 539 404 q 515 483 539 460 q 431 507 490 507 q 357 490 394 507 q 294 449 319 474 l 294 0 l 71 0 l 71 658 z "},"ń":{"ha":826,"x_min":71,"x_max":763,"o":"m 413 997 l 596 997 l 468 725 l 296 725 l 413 997 m 71 658 l 279 658 l 286 601 q 391 652 329 632 q 518 672 453 672 q 703 611 644 672 q 763 422 763 550 l 763 0 l 539 0 l 539 404 q 515 483 539 460 q 431 507 490 507 q 357 490 394 507 q 294 449 319 474 l 294 0 l 71 0 l 71 658 z "},"ŉ":{"ha":960,"x_min":-28,"x_max":896,"o":"m 18 894 l 197 894 l 124 599 l -28 599 l 18 894 m 204 658 l 413 658 l 419 601 q 524 652 463 632 q 651 672 586 672 q 837 611 778 672 q 896 422 896 550 l 896 0 l 672 0 l 672 404 q 648 483 672 460 q 564 507 624 507 q 490 490 528 507 q 428 449 453 474 l 428 0 l 204 0 l 204 658 z "},"ň":{"ha":826,"x_min":71,"x_max":763,"o":"m 126 983 l 297 983 l 397 839 l 501 983 l 668 983 l 467 724 l 328 724 l 126 983 m 71 658 l 279 658 l 286 601 q 391 652 329 632 q 518 672 453 672 q 703 611 644 672 q 763 422 763 550 l 763 0 l 539 0 l 539 404 q 515 483 539 460 q 431 507 490 507 q 357 490 394 507 q 294 449 319 474 l 294 0 l 71 0 l 71 658 z "},"ņ":{"ha":826,"x_min":71,"x_max":763,"o":"m 71 658 l 279 658 l 286 601 q 391 652 329 632 q 518 672 453 672 q 703 611 644 672 q 763 422 763 550 l 763 0 l 539 0 l 539 404 q 515 483 539 460 q 431 507 490 507 q 357 490 394 507 q 294 449 319 474 l 294 0 l 71 0 l 71 658 m 342 -51 l 521 -51 l 447 -347 l 296 -347 l 342 -51 z "},"ṅ":{"ha":826,"x_min":71,"x_max":763,"o":"m 336 913 l 499 913 l 499 761 l 336 761 l 336 913 m 71 658 l 279 658 l 286 601 q 391 652 329 632 q 518 672 453 672 q 703 611 644 672 q 763 422 763 550 l 763 0 l 539 0 l 539 404 q 515 483 539 460 q 431 507 490 507 q 357 490 394 507 q 294 449 319 474 l 294 0 l 71 0 l 71 658 z "},"ṇ":{"ha":826,"x_min":71,"x_max":763,"o":"m 71 658 l 279 658 l 286 601 q 391 652 329 632 q 518 672 453 672 q 703 611 644 672 q 763 422 763 550 l 763 0 l 539 0 l 539 404 q 515 483 539 460 q 431 507 490 507 q 357 490 394 507 q 294 449 319 474 l 294 0 l 71 0 l 71 658 m 344 -97 l 508 -97 l 508 -249 l 344 -249 l 344 -97 z "},"ŋ":{"ha":826,"x_min":71,"x_max":763,"o":"m 521 -325 q 357 -297 422 -325 l 357 -149 q 440 -162 399 -162 q 514 -142 490 -162 q 538 -76 538 -121 l 538 404 q 514 483 538 460 q 431 507 490 507 q 357 490 394 507 q 294 449 319 474 l 294 0 l 71 0 l 71 658 l 279 658 l 286 601 q 391 652 329 632 q 518 672 453 672 q 703 611 644 672 q 763 422 763 550 l 763 -96 q 701 -263 763 -201 q 521 -325 640 -325 z "},"ṉ":{"ha":826,"x_min":71,"x_max":763,"o":"m 71 658 l 279 658 l 286 601 q 391 652 329 632 q 518 672 453 672 q 703 611 644 672 q 763 422 763 550 l 763 0 l 539 0 l 539 404 q 515 483 539 460 q 431 507 490 507 q 357 490 394 507 q 294 449 319 474 l 294 0 l 71 0 l 71 658 m 201 -94 l 643 -94 l 643 -231 l 201 -231 l 201 -94 z "},"ñ":{"ha":826,"x_min":71,"x_max":763,"o":"m 544 739 q 485 747 515 739 q 415 769 456 754 q 356 789 381 782 q 307 796 331 796 q 176 743 229 796 l 176 892 q 231 924 197 911 q 303 936 265 936 q 358 929 333 936 q 426 907 383 922 q 490 886 465 893 q 540 879 514 879 q 612 894 581 879 q 661 933 643 908 l 661 783 q 615 751 647 764 q 544 739 583 739 m 71 658 l 279 658 l 286 601 q 391 652 329 632 q 518 672 453 672 q 703 611 644 672 q 763 422 763 550 l 763 0 l 539 0 l 539 404 q 515 483 539 460 q 431 507 490 507 q 357 490 394 507 q 294 449 319 474 l 294 0 l 71 0 l 71 658 z "},"o":{"ha":829,"x_min":43,"x_max":786,"o":"m 414 -14 q 43 329 43 -14 q 135 584 43 496 q 414 672 228 672 q 694 585 601 672 q 786 329 786 497 q 414 -14 786 -14 m 414 161 q 525 200 492 161 q 558 329 558 239 q 524 458 558 419 q 414 497 490 497 q 304 458 338 497 q 271 329 271 418 q 304 200 271 239 q 414 161 338 161 z "},"ó":{"ha":829,"x_min":43,"x_max":786,"o":"m 429 997 l 613 997 l 485 725 l 313 725 l 429 997 m 414 -14 q 43 329 43 -14 q 135 584 43 496 q 414 672 228 672 q 694 585 601 672 q 786 329 786 497 q 414 -14 786 -14 m 414 161 q 525 200 492 161 q 558 329 558 239 q 524 458 558 419 q 414 497 490 497 q 304 458 338 497 q 271 329 271 418 q 304 200 271 239 q 414 161 338 161 z "},"ŏ":{"ha":829,"x_min":43,"x_max":786,"o":"m 414 725 q 239 788 304 725 q 174 964 174 851 l 321 964 q 344 881 321 913 q 414 850 367 850 q 486 881 463 850 q 510 964 510 913 l 657 964 q 590 788 657 851 q 414 725 524 725 m 414 -14 q 43 329 43 -14 q 135 584 43 496 q 414 672 228 672 q 694 585 601 672 q 786 329 786 497 q 414 -14 786 -14 m 414 161 q 525 200 492 161 q 558 329 558 239 q 524 458 558 419 q 414 497 490 497 q 304 458 338 497 q 271 329 271 418 q 304 200 271 239 q 414 161 338 161 z "},"ǒ":{"ha":829,"x_min":43,"x_max":786,"o":"m 143 983 l 314 983 l 414 839 l 518 983 l 685 983 l 483 724 l 344 724 l 143 983 m 414 -14 q 43 329 43 -14 q 135 584 43 496 q 414 672 228 672 q 694 585 601 672 q 786 329 786 497 q 414 -14 786 -14 m 414 161 q 525 200 492 161 q 558 329 558 239 q 524 458 558 419 q 414 497 490 497 q 304 458 338 497 q 271 329 271 418 q 304 200 271 239 q 414 161 338 161 z "},"ô":{"ha":829,"x_min":43,"x_max":786,"o":"m 344 983 l 483 983 l 685 724 l 518 724 l 414 868 l 314 724 l 143 724 l 344 983 m 414 -14 q 43 329 43 -14 q 135 584 43 496 q 414 672 228 672 q 694 585 601 672 q 786 329 786 497 q 414 -14 786 -14 m 414 161 q 525 200 492 161 q 558 329 558 239 q 524 458 558 419 q 414 497 490 497 q 304 458 338 497 q 271 329 271 418 q 304 200 271 239 q 414 161 338 161 z "},"ố":{"ha":829,"x_min":43,"x_max":831,"o":"m 664 1099 l 831 1099 l 726 892 l 568 892 l 664 1099 m 329 924 l 497 924 l 683 724 l 504 724 l 414 835 l 324 724 l 143 724 l 329 924 m 414 -14 q 43 329 43 -14 q 135 584 43 496 q 414 672 228 672 q 694 585 601 672 q 786 329 786 497 q 414 -14 786 -14 m 414 161 q 525 200 492 161 q 558 329 558 239 q 524 458 558 419 q 414 497 490 497 q 304 458 338 497 q 271 329 271 418 q 304 200 271 239 q 414 161 338 161 z "},"ộ":{"ha":829,"x_min":43,"x_max":786,"o":"m 344 983 l 483 983 l 685 724 l 518 724 l 414 868 l 314 724 l 143 724 l 344 983 m 414 -14 q 43 329 43 -14 q 135 584 43 496 q 414 672 228 672 q 694 585 601 672 q 786 329 786 497 q 414 -14 786 -14 m 414 161 q 525 200 492 161 q 558 329 558 239 q 524 458 558 419 q 414 497 490 497 q 304 458 338 497 q 271 329 271 418 q 304 200 271 239 q 414 161 338 161 m 332 -97 l 496 -97 l 496 -249 l 332 -249 l 332 -97 z "},"ồ":{"ha":829,"x_min":-7,"x_max":786,"o":"m -7 1099 l 160 1099 l 256 892 l 97 892 l -7 1099 m 326 924 l 494 924 l 681 724 l 500 724 l 410 835 l 319 724 l 140 724 l 326 924 m 414 -14 q 43 329 43 -14 q 135 584 43 496 q 414 672 228 672 q 694 585 601 672 q 786 329 786 497 q 414 -14 786 -14 m 414 161 q 525 200 492 161 q 558 329 558 239 q 524 458 558 419 q 414 497 490 497 q 304 458 338 497 q 271 329 271 418 q 304 200 271 239 q 414 161 338 161 z "},"ổ":{"ha":829,"x_min":43,"x_max":833,"o":"m 579 960 q 659 972 638 961 q 681 1006 681 983 q 621 1040 681 1040 q 547 1026 582 1040 l 547 1119 q 674 1136 601 1136 q 792 1105 751 1136 q 833 1021 833 1074 q 731 907 833 924 l 731 861 l 579 861 l 579 960 m 326 924 l 494 924 l 681 724 l 501 724 l 411 835 l 321 724 l 140 724 l 326 924 m 414 -14 q 43 329 43 -14 q 135 584 43 496 q 414 672 228 672 q 694 585 601 672 q 786 329 786 497 q 414 -14 786 -14 m 414 161 q 525 200 492 161 q 558 329 558 239 q 524 458 558 419 q 414 497 490 497 q 304 458 338 497 q 271 329 271 418 q 304 200 271 239 q 414 161 338 161 z "},"ỗ":{"ha":829,"x_min":43,"x_max":786,"o":"m 539 978 q 483 985 510 978 q 413 1007 456 992 q 353 1026 378 1019 q 304 1033 328 1033 q 176 982 225 1033 l 176 1108 q 230 1140 196 1128 q 300 1153 264 1153 q 354 1146 329 1153 q 422 1124 379 1139 q 485 1103 461 1110 q 535 1096 508 1096 q 606 1110 575 1096 q 654 1150 636 1125 l 654 1022 q 609 990 640 1003 q 539 978 578 978 m 414 725 q 239 781 304 725 q 174 953 174 838 l 303 953 q 331 868 303 899 q 414 838 360 838 q 497 868 468 838 q 526 953 526 899 l 654 953 q 589 781 654 838 q 414 725 524 725 m 414 -14 q 43 329 43 -14 q 135 584 43 496 q 414 672 228 672 q 694 585 601 672 q 786 329 786 497 q 414 -14 786 -14 m 414 161 q 525 200 492 161 q 558 329 558 239 q 524 458 558 419 q 414 497 490 497 q 304 458 338 497 q 271 329 271 418 q 304 200 271 239 q 414 161 338 161 z "},"ö":{"ha":829,"x_min":43,"x_max":786,"o":"m 189 913 l 353 913 l 353 761 l 189 761 l 189 913 m 475 913 l 639 913 l 639 761 l 475 761 l 475 913 m 414 -14 q 43 329 43 -14 q 135 584 43 496 q 414 672 228 672 q 694 585 601 672 q 786 329 786 497 q 414 -14 786 -14 m 414 161 q 525 200 492 161 q 558 329 558 239 q 524 458 558 419 q 414 497 490 497 q 304 458 338 497 q 271 329 271 418 q 304 200 271 239 q 414 161 338 161 z "},"ọ":{"ha":829,"x_min":43,"x_max":786,"o":"m 414 -14 q 43 329 43 -14 q 135 584 43 496 q 414 672 228 672 q 694 585 601 672 q 786 329 786 497 q 414 -14 786 -14 m 414 161 q 525 200 492 161 q 558 329 558 239 q 524 458 558 419 q 414 497 490 497 q 304 458 338 497 q 271 329 271 418 q 304 200 271 239 q 414 161 338 161 m 332 -97 l 496 -97 l 496 -249 l 332 -249 l 332 -97 z "},"ò":{"ha":829,"x_min":43,"x_max":786,"o":"m 201 997 l 385 997 l 501 725 l 331 725 l 201 997 m 414 -14 q 43 329 43 -14 q 135 584 43 496 q 414 672 228 672 q 694 585 601 672 q 786 329 786 497 q 414 -14 786 -14 m 414 161 q 525 200 492 161 q 558 329 558 239 q 524 458 558 419 q 414 497 490 497 q 304 458 338 497 q 271 329 271 418 q 304 200 271 239 q 414 161 338 161 z "},"ỏ":{"ha":829,"x_min":43,"x_max":786,"o":"m 322 836 q 419 856 393 840 q 446 900 446 871 q 356 950 446 950 q 272 938 313 950 l 272 1038 q 421 1057 328 1057 q 560 1019 511 1057 q 610 919 610 982 q 582 831 610 861 q 492 785 554 800 l 492 724 l 322 724 l 322 836 m 414 -14 q 43 329 43 -14 q 135 584 43 496 q 414 672 228 672 q 694 585 601 672 q 786 329 786 497 q 414 -14 786 -14 m 414 161 q 525 200 492 161 q 558 329 558 239 q 524 458 558 419 q 414 497 490 497 q 304 458 338 497 q 271 329 271 418 q 304 200 271 239 q 414 161 338 161 z "},"ơ":{"ha":982,"x_min":43,"x_max":976,"o":"m 414 -14 q 43 329 43 -14 q 135 584 43 496 q 414 672 228 672 q 682 593 588 672 q 788 627 758 593 q 817 744 817 661 l 976 744 q 928 538 976 606 q 771 451 879 469 q 786 329 786 394 q 414 -14 786 -14 m 414 161 q 525 200 492 161 q 558 329 558 239 q 524 458 558 419 q 414 497 490 497 q 304 458 338 497 q 271 329 271 418 q 304 200 271 239 q 414 161 338 161 z "},"ớ":{"ha":982,"x_min":43,"x_max":976,"o":"m 439 997 l 622 997 l 494 725 l 322 725 l 439 997 m 414 -14 q 43 329 43 -14 q 135 584 43 496 q 414 672 228 672 q 682 593 588 672 q 788 627 758 593 q 817 744 817 661 l 976 744 q 928 538 976 606 q 771 451 879 469 q 786 329 786 394 q 414 -14 786 -14 m 414 161 q 525 200 492 161 q 558 329 558 239 q 524 458 558 419 q 414 497 490 497 q 304 458 338 497 q 271 329 271 418 q 304 200 271 239 q 414 161 338 161 z "},"ợ":{"ha":982,"x_min":43,"x_max":976,"o":"m 414 -14 q 43 329 43 -14 q 135 584 43 496 q 414 672 228 672 q 682 593 588 672 q 788 627 758 593 q 817 744 817 661 l 976 744 q 928 538 976 606 q 771 451 879 469 q 786 329 786 394 q 414 -14 786 -14 m 414 161 q 525 200 492 161 q 558 329 558 239 q 524 458 558 419 q 414 497 490 497 q 304 458 338 497 q 271 329 271 418 q 304 200 271 239 q 414 161 338 161 m 338 -97 l 501 -97 l 501 -249 l 338 -249 l 338 -97 z "},"ờ":{"ha":982,"x_min":43,"x_max":976,"o":"m 211 997 l 394 997 l 511 725 l 340 725 l 211 997 m 414 -14 q 43 329 43 -14 q 135 584 43 496 q 414 672 228 672 q 682 593 588 672 q 788 627 758 593 q 817 744 817 661 l 976 744 q 928 538 976 606 q 771 451 879 469 q 786 329 786 394 q 414 -14 786 -14 m 414 161 q 525 200 492 161 q 558 329 558 239 q 524 458 558 419 q 414 497 490 497 q 304 458 338 497 q 271 329 271 418 q 304 200 271 239 q 414 161 338 161 z "},"ở":{"ha":982,"x_min":43,"x_max":976,"o":"m 324 836 q 421 856 394 840 q 447 900 447 871 q 357 950 447 950 q 274 938 314 950 l 274 1038 q 422 1057 329 1057 q 562 1019 513 1057 q 611 919 611 982 q 583 831 611 861 q 493 785 556 800 l 493 724 l 324 724 l 324 836 m 414 -14 q 43 329 43 -14 q 135 584 43 496 q 414 672 228 672 q 682 593 588 672 q 788 627 758 593 q 817 744 817 661 l 976 744 q 928 538 976 606 q 771 451 879 469 q 786 329 786 394 q 414 -14 786 -14 m 414 161 q 525 200 492 161 q 558 329 558 239 q 524 458 558 419 q 414 497 490 497 q 304 458 338 497 q 271 329 271 418 q 304 200 271 239 q 414 161 338 161 z "},"ỡ":{"ha":982,"x_min":43,"x_max":976,"o":"m 546 733 q 487 741 517 733 q 417 764 457 749 q 357 783 382 776 q 308 790 332 790 q 178 738 231 790 l 178 886 q 233 918 199 906 q 304 931 267 931 q 360 924 335 931 q 428 901 385 917 q 491 881 467 888 q 542 874 515 874 q 613 888 582 874 q 663 928 644 903 l 663 778 q 617 746 649 758 q 546 733 585 733 m 414 -14 q 43 329 43 -14 q 135 584 43 496 q 414 672 228 672 q 682 593 588 672 q 788 627 758 593 q 817 744 817 661 l 976 744 q 928 538 976 606 q 771 451 879 469 q 786 329 786 394 q 414 -14 786 -14 m 414 161 q 525 200 492 161 q 558 329 558 239 q 524 458 558 419 q 414 497 490 497 q 304 458 338 497 q 271 329 271 418 q 304 200 271 239 q 414 161 338 161 z "},"ő":{"ha":829,"x_min":43,"x_max":786,"o":"m 256 974 l 449 974 l 314 724 l 142 724 l 256 974 m 576 974 l 769 974 l 635 724 l 463 724 l 576 974 m 414 -14 q 43 329 43 -14 q 135 584 43 496 q 414 672 228 672 q 694 585 601 672 q 786 329 786 497 q 414 -14 786 -14 m 414 161 q 525 200 492 161 q 558 329 558 239 q 524 458 558 419 q 414 497 490 497 q 304 458 338 497 q 271 329 271 418 q 304 200 271 239 q 414 161 338 161 z "},"ō":{"ha":829,"x_min":43,"x_max":786,"o":"m 189 908 l 631 908 l 631 774 l 189 774 l 189 908 m 414 -14 q 43 329 43 -14 q 135 584 43 496 q 414 672 228 672 q 694 585 601 672 q 786 329 786 497 q 414 -14 786 -14 m 414 161 q 525 200 492 161 q 558 329 558 239 q 524 458 558 419 q 414 497 490 497 q 304 458 338 497 q 271 329 271 418 q 304 200 271 239 q 414 161 338 161 z "},"ø":{"ha":829,"x_min":43,"x_max":786,"o":"m 229 15 q 43 329 43 85 q 135 584 43 496 q 414 672 228 672 q 482 668 449 672 l 507 733 l 628 733 l 593 644 q 786 329 786 572 q 414 -14 786 -14 q 339 -10 375 -14 l 315 -74 l 196 -74 l 229 15 m 417 501 l 414 501 q 299 461 335 501 q 264 329 264 421 q 300 196 264 236 l 417 501 m 414 157 q 529 197 493 157 q 565 329 565 238 q 524 465 565 424 l 404 157 l 414 157 z "},"ǿ":{"ha":829,"x_min":43,"x_max":786,"o":"m 388 997 l 571 997 l 443 725 l 271 725 l 388 997 m 229 15 q 43 329 43 85 q 135 584 43 496 q 414 672 228 672 q 482 668 449 672 l 507 733 l 628 733 l 593 644 q 786 329 786 572 q 414 -14 786 -14 q 339 -10 375 -14 l 315 -74 l 196 -74 l 229 15 m 417 501 l 414 501 q 299 461 335 501 q 264 329 264 421 q 300 196 264 236 l 417 501 m 414 157 q 529 197 493 157 q 565 329 565 238 q 524 465 565 424 l 404 157 l 414 157 z "},"õ":{"ha":829,"x_min":43,"x_max":786,"o":"m 540 756 q 481 763 511 756 q 411 786 451 771 q 351 806 376 799 q 303 813 326 813 q 172 760 225 813 l 172 908 q 227 940 193 928 q 299 953 261 953 q 354 946 329 953 q 422 924 379 939 q 485 903 461 910 q 536 896 510 896 q 608 910 576 896 q 657 950 639 925 l 657 800 q 611 768 643 781 q 540 756 579 756 m 414 -14 q 43 329 43 -14 q 135 584 43 496 q 414 672 228 672 q 694 585 601 672 q 786 329 786 497 q 414 -14 786 -14 m 414 161 q 525 200 492 161 q 558 329 558 239 q 524 458 558 419 q 414 497 490 497 q 304 458 338 497 q 271 329 271 418 q 304 200 271 239 q 414 161 338 161 z "},"œ":{"ha":1293,"x_min":43,"x_max":1250,"o":"m 1250 257 l 783 257 q 853 167 799 193 q 1008 140 907 140 q 1119 150 1063 140 q 1213 175 1175 160 l 1213 29 q 957 -14 1118 -14 q 688 67 785 -14 q 414 -14 594 -14 q 43 329 43 -14 q 135 584 43 496 q 414 672 228 672 q 681 596 588 672 q 921 672 769 672 q 1163 592 1075 672 q 1250 375 1250 511 l 1250 257 m 1056 415 q 928 521 1056 521 q 816 489 849 521 q 783 386 783 457 l 1056 386 l 1056 415 m 414 161 q 525 200 492 161 q 558 329 558 239 q 524 458 558 419 q 414 497 490 497 q 304 458 338 497 q 271 329 271 418 q 304 200 271 239 q 414 161 338 161 z "},"p":{"ha":831,"x_min":71,"x_max":788,"o":"m 71 658 l 265 658 l 276 601 q 483 672 363 672 q 788 343 788 672 q 704 77 788 168 q 472 -14 621 -14 q 294 29 368 -14 l 294 -300 l 71 -300 l 71 658 m 415 150 q 523 200 486 150 q 560 347 560 250 q 527 474 560 439 q 419 508 494 508 q 294 458 349 508 l 294 192 q 349 160 322 171 q 415 150 376 150 z "},"þ":{"ha":831,"x_min":71,"x_max":788,"o":"m 71 972 l 294 972 l 294 628 q 476 672 367 672 q 706 588 625 672 q 788 329 788 503 q 706 72 788 157 q 472 -14 624 -14 q 294 29 368 -14 l 294 -300 l 71 -300 l 71 972 m 415 150 q 524 194 488 150 q 560 333 560 238 q 526 467 560 426 q 419 508 493 508 q 294 458 349 508 l 294 192 q 349 160 322 171 q 415 150 376 150 z "},"q":{"ha":890,"x_min":43,"x_max":882,"o":"m 743 -336 q 587 -286 638 -336 q 536 -131 536 -236 l 536 29 q 358 -14 463 -14 q 124 64 206 -14 q 43 313 43 142 q 84 509 43 428 q 194 631 125 590 q 350 672 264 672 q 462 654 414 672 q 554 601 510 636 l 567 658 l 760 658 l 760 -107 q 774 -158 760 -143 q 822 -172 788 -172 q 882 -161 853 -172 l 882 -312 q 819 -331 850 -325 q 743 -336 789 -336 m 414 150 q 481 160 453 150 q 536 192 510 171 l 536 458 q 479 496 508 483 q 414 508 450 508 q 271 317 271 508 q 306 186 271 222 q 414 150 340 150 z "},"r":{"ha":540,"x_min":71,"x_max":525,"o":"m 71 658 l 283 658 l 290 597 q 399 645 335 624 q 525 672 463 667 l 525 504 q 400 480 467 497 q 294 443 333 463 l 294 0 l 71 0 l 71 658 z "},"ŕ":{"ha":540,"x_min":71,"x_max":525,"o":"m 229 997 l 413 997 l 285 725 l 113 725 l 229 997 m 71 658 l 283 658 l 290 597 q 399 645 335 624 q 525 672 463 667 l 525 504 q 400 480 467 497 q 294 443 333 463 l 294 0 l 71 0 l 71 658 z "},"ř":{"ha":540,"x_min":-65,"x_max":525,"o":"m -65 983 l 106 983 l 206 839 l 310 983 l 476 983 l 275 724 l 136 724 l -65 983 m 71 658 l 283 658 l 290 597 q 399 645 335 624 q 525 672 463 667 l 525 504 q 400 480 467 497 q 294 443 333 463 l 294 0 l 71 0 l 71 658 z "},"ŗ":{"ha":540,"x_min":47,"x_max":525,"o":"m 71 658 l 283 658 l 290 597 q 399 645 335 624 q 525 672 463 667 l 525 504 q 400 480 467 497 q 294 443 333 463 l 294 0 l 71 0 l 71 658 m 93 -51 l 272 -51 l 199 -347 l 47 -347 l 93 -51 z "},"ṛ":{"ha":540,"x_min":71,"x_max":525,"o":"m 71 658 l 283 658 l 290 597 q 399 645 335 624 q 525 672 463 667 l 525 504 q 400 480 467 497 q 294 443 333 463 l 294 0 l 71 0 l 71 658 m 92 -97 l 256 -97 l 256 -249 l 92 -249 l 92 -97 z "},"ṝ":{"ha":540,"x_min":11,"x_max":525,"o":"m 11 900 l 453 900 l 453 765 l 11 765 l 11 900 m 71 658 l 283 658 l 290 597 q 399 645 335 624 q 525 672 463 667 l 525 504 q 400 480 467 497 q 294 443 333 463 l 294 0 l 71 0 l 71 658 m 97 -97 l 261 -97 l 261 -249 l 97 -249 l 97 -97 z "},"ṟ":{"ha":540,"x_min":-31,"x_max":525,"o":"m 71 658 l 283 658 l 290 597 q 399 645 335 624 q 525 672 463 667 l 525 504 q 400 480 467 497 q 294 443 333 463 l 294 0 l 71 0 l 71 658 m -31 -94 l 411 -94 l 411 -231 l -31 -231 l -31 -94 z "},"s":{"ha":665,"x_min":43,"x_max":622,"o":"m 315 -14 q 167 -3 238 -14 q 53 25 96 8 l 53 196 q 163 165 100 176 q 279 153 226 153 q 369 159 344 153 q 393 189 393 165 q 369 221 393 208 q 286 251 346 233 l 226 271 q 86 348 129 304 q 43 471 43 392 q 349 672 43 672 q 469 663 408 672 q 572 640 531 654 l 572 472 q 485 498 535 489 q 393 507 436 507 q 301 500 332 507 q 271 471 271 493 q 290 442 271 451 q 365 417 310 433 q 422 400 393 410 q 543 349 500 376 q 604 285 586 322 q 622 190 622 247 q 544 38 622 90 q 315 -14 465 -14 z "},"ś":{"ha":665,"x_min":43,"x_max":622,"o":"m 342 997 l 525 997 l 397 725 l 225 725 l 342 997 m 315 -14 q 167 -3 238 -14 q 53 25 96 8 l 53 196 q 163 165 100 176 q 279 153 226 153 q 369 159 344 153 q 393 189 393 165 q 369 221 393 208 q 286 251 346 233 l 226 271 q 86 348 129 304 q 43 471 43 392 q 349 672 43 672 q 469 663 408 672 q 572 640 531 654 l 572 472 q 485 498 535 489 q 393 507 436 507 q 301 500 332 507 q 271 471 271 493 q 290 442 271 451 q 365 417 310 433 q 422 400 393 410 q 543 349 500 376 q 604 285 586 322 q 622 190 622 247 q 544 38 622 90 q 315 -14 465 -14 z "},"š":{"ha":665,"x_min":43,"x_max":622,"o":"m 71 983 l 242 983 l 342 839 l 446 983 l 613 983 l 411 724 l 272 724 l 71 983 m 315 -14 q 167 -3 238 -14 q 53 25 96 8 l 53 196 q 163 165 100 176 q 279 153 226 153 q 369 159 344 153 q 393 189 393 165 q 369 221 393 208 q 286 251 346 233 l 226 271 q 86 348 129 304 q 43 471 43 392 q 349 672 43 672 q 469 663 408 672 q 572 640 531 654 l 572 472 q 485 498 535 489 q 393 507 436 507 q 301 500 332 507 q 271 471 271 493 q 290 442 271 451 q 365 417 310 433 q 422 400 393 410 q 543 349 500 376 q 604 285 586 322 q 622 190 622 247 q 544 38 622 90 q 315 -14 465 -14 z "},"ş":{"ha":665,"x_min":43,"x_max":622,"o":"m 622 190 q 563 53 622 104 q 386 -11 503 1 l 369 -60 q 483 -94 446 -60 q 521 -189 521 -128 q 467 -296 521 -258 q 303 -333 413 -333 q 244 -330 279 -333 q 193 -322 208 -326 l 193 -224 q 276 -235 233 -235 q 359 -225 336 -235 q 382 -186 382 -215 q 360 -148 382 -157 q 292 -139 339 -139 l 217 -139 l 253 -12 q 53 25 124 -4 l 53 196 q 163 165 100 176 q 279 153 226 153 q 369 159 344 153 q 393 189 393 165 q 369 221 393 208 q 286 251 346 233 l 226 271 q 86 348 129 304 q 43 471 43 392 q 349 672 43 672 q 469 663 408 672 q 572 640 531 654 l 572 472 q 485 498 535 489 q 393 507 436 507 q 301 500 332 507 q 271 471 271 493 q 290 442 271 451 q 365 417 310 433 q 422 400 393 410 q 543 349 500 376 q 604 285 586 322 q 622 190 622 247 z "},"ŝ":{"ha":665,"x_min":43,"x_max":622,"o":"m 260 985 l 399 985 l 600 725 l 433 725 l 329 869 l 229 725 l 58 725 l 260 985 m 315 -14 q 167 -3 238 -14 q 53 25 96 8 l 53 196 q 163 165 100 176 q 279 153 226 153 q 369 159 344 153 q 393 189 393 165 q 369 221 393 208 q 286 251 346 233 l 226 271 q 86 348 129 304 q 43 471 43 392 q 349 672 43 672 q 469 663 408 672 q 572 640 531 654 l 572 472 q 485 498 535 489 q 393 507 436 507 q 301 500 332 507 q 271 471 271 493 q 290 442 271 451 q 365 417 310 433 q 422 400 393 410 q 543 349 500 376 q 604 285 586 322 q 622 190 622 247 q 544 38 622 90 q 315 -14 465 -14 z "},"ș":{"ha":665,"x_min":43,"x_max":622,"o":"m 315 -14 q 167 -3 238 -14 q 53 25 96 8 l 53 196 q 163 165 100 176 q 279 153 226 153 q 369 159 344 153 q 393 189 393 165 q 369 221 393 208 q 286 251 346 233 l 226 271 q 86 348 129 304 q 43 471 43 392 q 349 672 43 672 q 469 663 408 672 q 572 640 531 654 l 572 472 q 485 498 535 489 q 393 507 436 507 q 301 500 332 507 q 271 471 271 493 q 290 442 271 451 q 365 417 310 433 q 422 400 393 410 q 543 349 500 376 q 604 285 586 322 q 622 190 622 247 q 544 38 622 90 q 315 -14 465 -14 m 250 -62 l 435 -62 l 372 -321 l 208 -321 l 250 -62 z "},"ṡ":{"ha":665,"x_min":43,"x_max":622,"o":"m 240 913 l 403 913 l 403 761 l 240 761 l 240 913 m 315 -14 q 167 -3 238 -14 q 53 25 96 8 l 53 196 q 163 165 100 176 q 279 153 226 153 q 369 159 344 153 q 393 189 393 165 q 369 221 393 208 q 286 251 346 233 l 226 271 q 86 348 129 304 q 43 471 43 392 q 349 672 43 672 q 469 663 408 672 q 572 640 531 654 l 572 472 q 485 498 535 489 q 393 507 436 507 q 301 500 332 507 q 271 471 271 493 q 290 442 271 451 q 365 417 310 433 q 422 400 393 410 q 543 349 500 376 q 604 285 586 322 q 622 190 622 247 q 544 38 622 90 q 315 -14 465 -14 z "},"ṣ":{"ha":665,"x_min":43,"x_max":622,"o":"m 315 -14 q 167 -3 238 -14 q 53 25 96 8 l 53 196 q 163 165 100 176 q 279 153 226 153 q 369 159 344 153 q 393 189 393 165 q 369 221 393 208 q 286 251 346 233 l 226 271 q 86 348 129 304 q 43 471 43 392 q 349 672 43 672 q 469 663 408 672 q 572 640 531 654 l 572 472 q 485 498 535 489 q 393 507 436 507 q 301 500 332 507 q 271 471 271 493 q 290 442 271 451 q 365 417 310 433 q 422 400 393 410 q 543 349 500 376 q 604 285 586 322 q 622 190 622 247 q 544 38 622 90 q 315 -14 465 -14 m 261 -97 l 425 -97 l 425 -249 l 261 -249 l 261 -97 z "},"ß":{"ha":889,"x_min":64,"x_max":846,"o":"m 550 -14 q 356 17 436 -14 l 356 196 q 499 169 417 169 q 586 197 554 169 q 618 275 618 224 q 586 360 618 335 q 485 386 554 386 l 390 386 l 390 549 l 475 549 q 560 578 535 549 q 586 667 586 607 q 555 750 586 719 q 443 781 524 781 q 326 741 364 781 q 288 614 288 701 l 288 0 l 64 0 l 64 622 q 110 807 64 728 q 242 929 157 886 q 439 972 326 972 q 643 931 558 972 q 771 820 728 889 q 814 671 814 751 q 787 547 814 600 q 714 469 760 494 q 810 392 775 446 q 846 263 846 339 q 768 59 846 132 q 550 -14 690 -14 z "},"ə":{"ha":760,"x_min":43,"x_max":717,"o":"m 372 -14 q 130 66 217 -14 q 43 283 43 146 l 43 400 l 510 400 q 440 492 493 465 q 285 518 386 518 q 174 508 231 518 q 81 483 118 499 l 81 628 q 336 672 176 672 q 615 585 513 672 q 717 329 717 497 q 628 77 717 168 q 372 -14 540 -14 m 365 136 q 477 169 444 136 q 510 272 510 201 l 238 272 l 238 242 q 365 136 238 136 z "},"t":{"ha":519,"x_min":15,"x_max":504,"o":"m 342 -14 q 163 47 222 -14 q 104 221 104 108 l 104 489 l 15 489 l 15 658 l 104 658 l 104 796 l 328 856 l 328 658 l 488 658 l 478 489 l 328 489 l 328 236 q 350 170 328 189 q 422 151 372 151 q 504 165 463 151 l 504 14 q 342 -14 439 -14 z "},"ŧ":{"ha":519,"x_min":15,"x_max":504,"o":"m 342 -14 q 163 47 222 -14 q 104 221 104 108 l 104 265 l 15 265 l 15 403 l 104 403 l 104 489 l 15 489 l 15 658 l 104 658 l 104 796 l 329 856 l 329 658 l 488 658 l 478 489 l 329 489 l 329 403 l 489 403 l 489 265 l 329 265 l 329 236 q 351 170 329 189 q 422 151 374 151 q 504 165 463 151 l 504 14 q 342 -14 439 -14 z "},"ť":{"ha":701,"x_min":15,"x_max":681,"o":"m 501 1071 l 681 1071 l 607 775 l 456 775 l 501 1071 m 342 -14 q 163 47 222 -14 q 104 221 104 108 l 104 489 l 15 489 l 15 658 l 104 658 l 104 796 l 328 856 l 328 658 l 488 658 l 478 489 l 328 489 l 328 236 q 350 170 328 189 q 422 151 372 151 q 504 165 463 151 l 504 14 q 342 -14 439 -14 z "},"ţ":{"ha":540,"x_min":15,"x_max":536,"o":"m 385 -60 q 499 -94 461 -60 q 536 -189 536 -128 q 482 -296 536 -258 q 318 -333 428 -333 q 259 -330 294 -333 q 208 -322 224 -326 l 208 -224 q 292 -235 249 -235 q 374 -225 351 -235 q 397 -186 397 -215 q 376 -148 397 -157 q 307 -139 354 -139 l 232 -139 l 269 -7 q 145 68 186 10 q 104 221 104 126 l 104 489 l 15 489 l 15 658 l 104 658 l 104 796 l 328 856 l 328 658 l 488 658 l 478 489 l 328 489 l 328 236 q 350 170 328 189 q 422 151 372 151 q 504 165 463 151 l 504 14 q 401 -11 458 -6 l 385 -60 z "},"ț":{"ha":519,"x_min":15,"x_max":504,"o":"m 342 -14 q 163 47 222 -14 q 104 221 104 108 l 104 489 l 15 489 l 15 658 l 104 658 l 104 796 l 328 856 l 328 658 l 488 658 l 478 489 l 328 489 l 328 236 q 350 170 328 189 q 422 151 372 151 q 504 165 463 151 l 504 14 q 342 -14 439 -14 m 235 -62 l 414 -62 l 340 -358 l 189 -358 l 235 -62 z "},"ẗ":{"ha":521,"x_min":15,"x_max":504,"o":"m 24 1043 l 188 1043 l 188 892 l 24 892 l 24 1043 m 310 1043 l 474 1043 l 474 892 l 310 892 l 310 1043 m 342 -14 q 163 47 222 -14 q 104 221 104 108 l 104 489 l 15 489 l 15 658 l 104 658 l 104 796 l 328 856 l 328 658 l 488 658 l 478 489 l 328 489 l 328 236 q 350 170 328 189 q 422 151 372 151 q 504 165 463 151 l 504 14 q 342 -14 439 -14 z "},"ṭ":{"ha":519,"x_min":15,"x_max":504,"o":"m 342 -14 q 163 47 222 -14 q 104 221 104 108 l 104 489 l 15 489 l 15 658 l 104 658 l 104 796 l 328 856 l 328 658 l 488 658 l 478 489 l 328 489 l 328 236 q 350 170 328 189 q 422 151 372 151 q 504 165 463 151 l 504 14 q 342 -14 439 -14 m 217 -90 l 381 -90 l 381 -242 l 217 -242 l 217 -90 z "},"ṯ":{"ha":519,"x_min":15,"x_max":504,"o":"m 342 -14 q 163 47 222 -14 q 104 221 104 108 l 104 489 l 15 489 l 15 658 l 104 658 l 104 796 l 328 856 l 328 658 l 488 658 l 478 489 l 328 489 l 328 236 q 350 170 328 189 q 422 151 372 151 q 504 165 463 151 l 504 14 q 342 -14 439 -14 m 50 -87 l 492 -87 l 492 -224 l 50 -224 l 50 -87 z "},"u":{"ha":826,"x_min":64,"x_max":756,"o":"m 311 -14 q 128 52 193 -14 q 64 244 64 118 l 64 658 l 288 658 l 288 257 q 314 176 288 201 q 396 150 340 150 q 471 166 435 150 q 532 208 507 182 l 532 658 l 756 658 l 756 0 l 547 0 l 540 56 q 311 -14 447 -14 z "},"ú":{"ha":826,"x_min":64,"x_max":756,"o":"m 415 997 l 599 997 l 471 725 l 299 725 l 415 997 m 311 -14 q 128 52 193 -14 q 64 244 64 118 l 64 658 l 288 658 l 288 257 q 314 176 288 201 q 396 150 340 150 q 471 166 435 150 q 532 208 507 182 l 532 658 l 756 658 l 756 0 l 547 0 l 540 56 q 311 -14 447 -14 z "},"ŭ":{"ha":826,"x_min":64,"x_max":756,"o":"m 415 725 q 240 788 306 725 q 175 964 175 851 l 322 964 q 345 881 322 913 q 415 850 368 850 q 488 881 464 850 q 511 964 511 913 l 658 964 q 592 788 658 851 q 415 725 525 725 m 311 -14 q 128 52 193 -14 q 64 244 64 118 l 64 658 l 288 658 l 288 257 q 314 176 288 201 q 396 150 340 150 q 471 166 435 150 q 532 208 507 182 l 532 658 l 756 658 l 756 0 l 547 0 l 540 56 q 311 -14 447 -14 z "},"ǔ":{"ha":826,"x_min":64,"x_max":756,"o":"m 140 983 l 311 983 l 411 839 l 515 983 l 682 983 l 481 724 l 342 724 l 140 983 m 311 -14 q 128 52 193 -14 q 64 244 64 118 l 64 658 l 288 658 l 288 257 q 314 176 288 201 q 396 150 340 150 q 471 166 435 150 q 532 208 507 182 l 532 658 l 756 658 l 756 0 l 547 0 l 540 56 q 311 -14 447 -14 z "},"û":{"ha":826,"x_min":64,"x_max":756,"o":"m 339 983 l 478 983 l 679 724 l 513 724 l 408 868 l 308 724 l 138 724 l 339 983 m 311 -14 q 128 52 193 -14 q 64 244 64 118 l 64 658 l 288 658 l 288 257 q 314 176 288 201 q 396 150 340 150 q 471 166 435 150 q 532 208 507 182 l 532 658 l 756 658 l 756 0 l 547 0 l 540 56 q 311 -14 447 -14 z "},"ü":{"ha":826,"x_min":64,"x_max":756,"o":"m 185 913 l 349 913 l 349 761 l 185 761 l 185 913 m 471 913 l 635 913 l 635 761 l 471 761 l 471 913 m 311 -14 q 128 52 193 -14 q 64 244 64 118 l 64 658 l 288 658 l 288 257 q 314 176 288 201 q 396 150 340 150 q 471 166 435 150 q 532 208 507 182 l 532 658 l 756 658 l 756 0 l 547 0 l 540 56 q 311 -14 447 -14 z "},"ǘ":{"ha":826,"x_min":64,"x_max":756,"o":"m 400 1096 l 568 1096 l 474 911 l 319 911 l 400 1096 m 176 879 l 335 879 l 335 736 l 176 736 l 176 879 m 465 879 l 624 879 l 624 736 l 465 736 l 465 879 m 311 -14 q 128 52 193 -14 q 64 244 64 118 l 64 658 l 288 658 l 288 257 q 314 176 288 201 q 396 150 340 150 q 471 166 435 150 q 532 208 507 182 l 532 658 l 756 658 l 756 0 l 547 0 l 540 56 q 311 -14 447 -14 z "},"ǚ":{"ha":826,"x_min":64,"x_max":756,"o":"m 169 1075 l 335 1075 l 414 974 l 494 1075 l 656 1075 l 490 899 l 336 899 l 169 1075 m 188 869 l 346 869 l 346 726 l 188 726 l 188 869 m 476 869 l 635 869 l 635 726 l 476 726 l 476 869 m 311 -14 q 128 52 193 -14 q 64 244 64 118 l 64 658 l 288 658 l 288 257 q 314 176 288 201 q 396 150 340 150 q 471 166 435 150 q 532 208 507 182 l 532 658 l 756 658 l 756 0 l 547 0 l 540 56 q 311 -14 447 -14 z "},"ǜ":{"ha":826,"x_min":64,"x_max":756,"o":"m 247 1096 l 415 1096 l 496 911 l 342 911 l 247 1096 m 192 879 l 350 879 l 350 736 l 192 736 l 192 879 m 481 879 l 639 879 l 639 736 l 481 736 l 481 879 m 311 -14 q 128 52 193 -14 q 64 244 64 118 l 64 658 l 288 658 l 288 257 q 314 176 288 201 q 396 150 340 150 q 471 166 435 150 q 532 208 507 182 l 532 658 l 756 658 l 756 0 l 547 0 l 540 56 q 311 -14 447 -14 z "},"ǖ":{"ha":826,"x_min":64,"x_max":756,"o":"m 192 1085 l 633 1085 l 633 950 l 192 950 l 192 1085 m 188 888 l 351 888 l 351 736 l 188 736 l 188 888 m 474 888 l 638 888 l 638 736 l 474 736 l 474 888 m 311 -14 q 128 52 193 -14 q 64 244 64 118 l 64 658 l 288 658 l 288 257 q 314 176 288 201 q 396 150 340 150 q 471 166 435 150 q 532 208 507 182 l 532 658 l 756 658 l 756 0 l 547 0 l 540 56 q 311 -14 447 -14 z "},"ụ":{"ha":826,"x_min":64,"x_max":756,"o":"m 311 -14 q 128 52 193 -14 q 64 244 64 118 l 64 658 l 288 658 l 288 257 q 314 176 288 201 q 396 150 340 150 q 471 166 435 150 q 532 208 507 182 l 532 658 l 756 658 l 756 0 l 547 0 l 540 56 q 311 -14 447 -14 m 324 -97 l 488 -97 l 488 -249 l 324 -249 l 324 -97 z "},"ù":{"ha":826,"x_min":64,"x_max":756,"o":"m 217 997 l 400 997 l 517 725 l 346 725 l 217 997 m 311 -14 q 128 52 193 -14 q 64 244 64 118 l 64 658 l 288 658 l 288 257 q 314 176 288 201 q 396 150 340 150 q 471 166 435 150 q 532 208 507 182 l 532 658 l 756 658 l 756 0 l 547 0 l 540 56 q 311 -14 447 -14 z "},"ủ":{"ha":826,"x_min":64,"x_max":756,"o":"m 325 836 q 422 856 396 840 q 449 900 449 871 q 358 950 449 950 q 275 938 315 950 l 275 1038 q 424 1057 331 1057 q 563 1019 514 1057 q 613 919 613 982 q 585 831 613 861 q 494 785 557 800 l 494 724 l 325 724 l 325 836 m 311 -14 q 128 52 193 -14 q 64 244 64 118 l 64 658 l 288 658 l 288 257 q 314 176 288 201 q 396 150 340 150 q 471 166 435 150 q 532 208 507 182 l 532 658 l 756 658 l 756 0 l 547 0 l 540 56 q 311 -14 447 -14 z "},"ư":{"ha":1035,"x_min":64,"x_max":1022,"o":"m 311 -14 q 128 52 193 -14 q 64 244 64 118 l 64 658 l 288 658 l 288 257 q 314 176 288 201 q 396 150 340 150 q 470 166 435 150 q 531 208 506 182 l 531 658 l 756 658 l 756 594 q 839 634 815 600 q 863 744 863 668 l 1022 744 q 995 575 1022 639 q 910 481 968 511 q 756 446 851 451 l 756 0 l 546 0 l 539 56 q 311 -14 446 -14 z "},"ứ":{"ha":1035,"x_min":64,"x_max":1022,"o":"m 431 997 l 614 997 l 486 725 l 314 725 l 431 997 m 311 -14 q 128 52 193 -14 q 64 244 64 118 l 64 658 l 288 658 l 288 257 q 314 176 288 201 q 396 150 340 150 q 470 166 435 150 q 531 208 506 182 l 531 658 l 756 658 l 756 594 q 839 634 815 600 q 863 744 863 668 l 1022 744 q 995 575 1022 639 q 910 481 968 511 q 756 446 851 451 l 756 0 l 546 0 l 539 56 q 311 -14 446 -14 z "},"ự":{"ha":1035,"x_min":64,"x_max":1022,"o":"m 311 -14 q 128 52 193 -14 q 64 244 64 118 l 64 658 l 288 658 l 288 257 q 314 176 288 201 q 396 150 340 150 q 470 166 435 150 q 531 208 506 182 l 531 658 l 756 658 l 756 594 q 839 634 815 600 q 863 744 863 668 l 1022 744 q 995 575 1022 639 q 910 481 968 511 q 756 446 851 451 l 756 0 l 546 0 l 539 56 q 311 -14 446 -14 m 329 -97 l 493 -97 l 493 -249 l 329 -249 l 329 -97 z "},"ừ":{"ha":1035,"x_min":64,"x_max":1022,"o":"m 183 997 l 367 997 l 483 725 l 313 725 l 183 997 m 311 -14 q 128 52 193 -14 q 64 244 64 118 l 64 658 l 288 658 l 288 257 q 314 176 288 201 q 396 150 340 150 q 470 166 435 150 q 531 208 506 182 l 531 658 l 756 658 l 756 594 q 839 634 815 600 q 863 744 863 668 l 1022 744 q 995 575 1022 639 q 910 481 968 511 q 756 446 851 451 l 756 0 l 546 0 l 539 56 q 311 -14 446 -14 z "},"ử":{"ha":1035,"x_min":64,"x_max":1022,"o":"m 307 836 q 404 856 378 840 q 431 900 431 871 q 340 950 431 950 q 257 938 297 950 l 257 1038 q 406 1057 313 1057 q 545 1019 496 1057 q 594 919 594 982 q 567 831 594 861 q 476 785 539 800 l 476 724 l 307 724 l 307 836 m 311 -14 q 128 52 193 -14 q 64 244 64 118 l 64 658 l 288 658 l 288 257 q 314 176 288 201 q 396 150 340 150 q 470 166 435 150 q 531 208 506 182 l 531 658 l 756 658 l 756 594 q 839 634 815 600 q 863 744 863 668 l 1022 744 q 995 575 1022 639 q 910 481 968 511 q 756 446 851 451 l 756 0 l 546 0 l 539 56 q 311 -14 446 -14 z "},"ữ":{"ha":1035,"x_min":64,"x_max":1022,"o":"m 542 733 q 483 741 513 733 q 413 764 453 749 q 353 783 378 776 q 304 790 328 790 q 174 738 226 790 l 174 886 q 228 918 194 906 q 300 931 263 931 q 356 924 331 931 q 424 901 381 917 q 487 881 463 888 q 538 874 511 874 q 609 888 578 874 q 658 928 640 903 l 658 778 q 613 746 644 758 q 542 733 581 733 m 311 -14 q 128 52 193 -14 q 64 244 64 118 l 64 658 l 288 658 l 288 257 q 314 176 288 201 q 396 150 340 150 q 470 166 435 150 q 531 208 506 182 l 531 658 l 756 658 l 756 594 q 839 634 815 600 q 863 744 863 668 l 1022 744 q 995 575 1022 639 q 910 481 968 511 q 756 446 851 451 l 756 0 l 546 0 l 539 56 q 311 -14 446 -14 z "},"ű":{"ha":826,"x_min":64,"x_max":756,"o":"m 229 974 l 422 974 l 288 724 l 115 724 l 229 974 m 550 974 l 743 974 l 608 724 l 436 724 l 550 974 m 311 -14 q 128 52 193 -14 q 64 244 64 118 l 64 658 l 288 658 l 288 257 q 314 176 288 201 q 396 150 340 150 q 471 166 435 150 q 532 208 507 182 l 532 658 l 756 658 l 756 0 l 547 0 l 540 56 q 311 -14 447 -14 z "},"ū":{"ha":826,"x_min":64,"x_max":756,"o":"m 192 908 l 633 908 l 633 774 l 192 774 l 192 908 m 311 -14 q 128 52 193 -14 q 64 244 64 118 l 64 658 l 288 658 l 288 257 q 314 176 288 201 q 396 150 340 150 q 471 166 435 150 q 532 208 507 182 l 532 658 l 756 658 l 756 0 l 547 0 l 540 56 q 311 -14 447 -14 z "},"ų":{"ha":826,"x_min":64,"x_max":756,"o":"m 704 0 q 617 -135 617 -67 q 678 -187 617 -187 q 715 -183 696 -187 q 747 -172 735 -179 l 747 -285 q 690 -299 726 -293 q 617 -306 654 -306 q 494 -272 542 -306 q 446 -175 446 -239 q 473 -78 446 -124 q 547 0 500 -32 l 540 56 q 311 -14 447 -14 q 128 52 193 -14 q 64 244 64 118 l 64 658 l 288 658 l 288 257 q 314 176 288 201 q 396 150 340 150 q 471 166 435 150 q 532 208 507 182 l 532 658 l 756 658 l 756 0 l 704 0 z "},"ů":{"ha":826,"x_min":64,"x_max":756,"o":"m 410 724 q 277 773 326 724 q 228 897 228 822 q 277 1023 228 974 q 410 1072 326 1072 q 544 1023 494 1072 q 593 897 593 974 q 544 773 593 822 q 410 724 494 724 m 410 821 q 469 842 447 821 q 490 897 490 864 q 469 953 490 931 q 410 975 447 975 q 352 953 374 975 q 331 897 331 931 q 352 842 331 864 q 410 821 374 821 m 311 -14 q 128 52 193 -14 q 64 244 64 118 l 64 658 l 288 658 l 288 257 q 314 176 288 201 q 396 150 340 150 q 471 166 435 150 q 532 208 507 182 l 532 658 l 756 658 l 756 0 l 547 0 l 540 56 q 311 -14 447 -14 z "},"ũ":{"ha":826,"x_min":64,"x_max":756,"o":"m 539 739 q 480 747 510 739 q 410 769 450 754 q 350 789 375 782 q 301 796 325 796 q 171 743 224 796 l 171 892 q 226 924 192 911 q 297 936 260 936 q 353 929 328 936 q 421 907 378 922 q 484 886 460 893 q 535 879 508 879 q 606 894 575 879 q 656 933 638 908 l 656 783 q 610 751 642 764 q 539 739 578 739 m 311 -14 q 128 52 193 -14 q 64 244 64 118 l 64 658 l 288 658 l 288 257 q 314 176 288 201 q 396 150 340 150 q 471 166 435 150 q 532 208 507 182 l 532 658 l 756 658 l 756 0 l 547 0 l 540 56 q 311 -14 447 -14 z "},"v":{"ha":843,"x_min":43,"x_max":800,"o":"m 43 658 l 276 658 l 421 231 l 567 658 l 800 658 l 540 0 l 303 0 l 43 658 z "},"w":{"ha":1069,"x_min":43,"x_max":1026,"o":"m 43 658 l 263 658 l 351 281 l 444 568 l 444 658 l 613 658 l 721 281 l 807 658 l 1026 658 l 853 0 l 650 0 l 538 342 l 422 0 l 217 0 l 43 658 z "},"ẃ":{"ha":1069,"x_min":43,"x_max":1026,"o":"m 556 997 l 739 997 l 611 725 l 439 725 l 556 997 m 43 658 l 263 658 l 351 281 l 444 568 l 444 658 l 613 658 l 721 281 l 807 658 l 1026 658 l 853 0 l 650 0 l 538 342 l 422 0 l 217 0 l 43 658 z "},"ŵ":{"ha":1069,"x_min":43,"x_max":1026,"o":"m 468 983 l 607 983 l 808 724 l 642 724 l 538 868 l 438 724 l 267 724 l 468 983 m 43 658 l 263 658 l 351 281 l 444 568 l 444 658 l 613 658 l 721 281 l 807 658 l 1026 658 l 853 0 l 650 0 l 538 342 l 422 0 l 217 0 l 43 658 z "},"ẅ":{"ha":1069,"x_min":43,"x_max":1026,"o":"m 313 914 l 476 914 l 476 763 l 313 763 l 313 914 m 599 914 l 763 914 l 763 763 l 599 763 l 599 914 m 43 658 l 263 658 l 351 281 l 444 568 l 444 658 l 613 658 l 721 281 l 807 658 l 1026 658 l 853 0 l 650 0 l 538 342 l 422 0 l 217 0 l 43 658 z "},"ẁ":{"ha":1069,"x_min":43,"x_max":1026,"o":"m 310 997 l 493 997 l 610 725 l 439 725 l 310 997 m 43 658 l 263 658 l 351 281 l 444 568 l 444 658 l 613 658 l 721 281 l 807 658 l 1026 658 l 853 0 l 650 0 l 538 342 l 422 0 l 217 0 l 43 658 z "},"x":{"ha":838,"x_min":43,"x_max":793,"o":"m 296 335 l 53 658 l 296 658 l 418 493 l 540 658 l 783 658 l 540 335 l 793 0 l 549 0 l 418 174 l 288 0 l 43 0 l 296 335 z "},"y":{"ha":871,"x_min":43,"x_max":856,"o":"m 267 -244 q 180 -240 215 -244 q 111 -221 144 -235 l 111 -65 q 196 -79 150 -79 q 281 -60 251 -79 q 339 13 310 -40 l 43 658 l 278 658 l 451 240 l 622 658 l 856 658 l 604 54 q 465 -169 543 -93 q 267 -244 388 -244 z "},"ý":{"ha":871,"x_min":43,"x_max":856,"o":"m 471 997 l 654 997 l 526 725 l 354 725 l 471 997 m 267 -244 q 180 -240 215 -244 q 111 -221 144 -235 l 111 -65 q 196 -79 150 -79 q 281 -60 251 -79 q 339 13 310 -40 l 43 658 l 278 658 l 451 240 l 622 658 l 856 658 l 604 54 q 465 -169 543 -93 q 267 -244 388 -244 z "},"ŷ":{"ha":871,"x_min":43,"x_max":856,"o":"m 382 983 l 521 983 l 722 724 l 556 724 l 451 868 l 351 724 l 181 724 l 382 983 m 267 -244 q 180 -240 215 -244 q 111 -221 144 -235 l 111 -65 q 196 -79 150 -79 q 281 -60 251 -79 q 339 13 310 -40 l 43 658 l 278 658 l 451 240 l 622 658 l 856 658 l 604 54 q 465 -169 543 -93 q 267 -244 388 -244 z "},"ÿ":{"ha":871,"x_min":43,"x_max":856,"o":"m 228 936 l 392 936 l 392 785 l 228 785 l 228 936 m 514 936 l 678 936 l 678 785 l 514 785 l 514 936 m 267 -244 q 180 -240 215 -244 q 111 -221 144 -235 l 111 -65 q 196 -79 150 -79 q 281 -60 251 -79 q 339 13 310 -40 l 43 658 l 278 658 l 451 240 l 622 658 l 856 658 l 604 54 q 465 -169 543 -93 q 267 -244 388 -244 z "},"ẏ":{"ha":871,"x_min":43,"x_max":856,"o":"m 369 914 l 532 914 l 532 763 l 369 763 l 369 914 m 267 -244 q 180 -240 215 -244 q 111 -221 144 -235 l 111 -65 q 196 -79 150 -79 q 281 -60 251 -79 q 339 13 310 -40 l 43 658 l 278 658 l 451 240 l 622 658 l 856 658 l 604 54 q 465 -169 543 -93 q 267 -244 388 -244 z "},"ỵ":{"ha":871,"x_min":43,"x_max":856,"o":"m 267 -244 q 180 -240 215 -244 q 111 -221 144 -235 l 111 -65 q 196 -79 150 -79 q 281 -60 251 -79 q 339 13 310 -40 l 43 658 l 278 658 l 451 240 l 622 658 l 856 658 l 604 54 q 465 -169 543 -93 q 267 -244 388 -244 m 597 -90 l 761 -90 l 761 -242 l 597 -242 l 597 -90 z "},"ỳ":{"ha":871,"x_min":43,"x_max":856,"o":"m 235 997 l 418 997 l 535 725 l 364 725 l 235 997 m 267 -244 q 180 -240 215 -244 q 111 -221 144 -235 l 111 -65 q 196 -79 150 -79 q 281 -60 251 -79 q 339 13 310 -40 l 43 658 l 278 658 l 451 240 l 622 658 l 856 658 l 604 54 q 465 -169 543 -93 q 267 -244 388 -244 z "},"ỷ":{"ha":871,"x_min":43,"x_max":856,"o":"m 367 836 q 464 856 438 840 q 490 900 490 871 q 400 950 490 950 q 317 938 357 950 l 317 1038 q 465 1057 372 1057 q 605 1019 556 1057 q 654 919 654 982 q 626 831 654 861 q 536 785 599 800 l 536 724 l 367 724 l 367 836 m 267 -244 q 180 -240 215 -244 q 111 -221 144 -235 l 111 -65 q 196 -79 150 -79 q 281 -60 251 -79 q 339 13 310 -40 l 43 658 l 278 658 l 451 240 l 622 658 l 856 658 l 604 54 q 465 -169 543 -93 q 267 -244 388 -244 z "},"ỹ":{"ha":871,"x_min":43,"x_max":856,"o":"m 576 739 q 517 747 547 739 q 447 769 488 754 q 388 789 413 782 q 339 796 363 796 q 208 743 261 796 l 208 892 q 263 924 229 911 q 335 936 297 936 q 390 929 365 936 q 458 907 415 922 q 522 886 497 893 q 572 879 546 879 q 644 894 613 879 q 693 933 675 908 l 693 783 q 647 751 679 764 q 576 739 615 739 m 267 -244 q 180 -240 215 -244 q 111 -221 144 -235 l 111 -65 q 196 -79 150 -79 q 281 -60 251 -79 q 339 13 310 -40 l 43 658 l 278 658 l 451 240 l 622 658 l 856 658 l 604 54 q 465 -169 543 -93 q 267 -244 388 -244 z "},"z":{"ha":683,"x_min":43,"x_max":640,"o":"m 43 119 l 347 481 l 54 481 l 54 658 l 631 658 l 631 528 l 333 172 l 640 172 l 640 0 l 43 0 l 43 119 z "},"ź":{"ha":683,"x_min":43,"x_max":640,"o":"m 365 997 l 549 997 l 421 725 l 249 725 l 365 997 m 43 119 l 347 481 l 54 481 l 54 658 l 631 658 l 631 528 l 333 172 l 640 172 l 640 0 l 43 0 l 43 119 z "},"ž":{"ha":683,"x_min":43,"x_max":640,"o":"m 65 983 l 236 983 l 336 839 l 440 983 l 607 983 l 406 724 l 267 724 l 65 983 m 43 119 l 347 481 l 54 481 l 54 658 l 631 658 l 631 528 l 333 172 l 640 172 l 640 0 l 43 0 l 43 119 z "},"ż":{"ha":683,"x_min":43,"x_max":640,"o":"m 265 913 l 428 913 l 428 761 l 265 761 l 265 913 m 43 119 l 347 481 l 54 481 l 54 658 l 631 658 l 631 528 l 333 172 l 640 172 l 640 0 l 43 0 l 43 119 z "},"ẓ":{"ha":683,"x_min":43,"x_max":640,"o":"m 43 119 l 347 481 l 54 481 l 54 658 l 631 658 l 631 528 l 333 172 l 640 172 l 640 0 l 43 0 l 43 119 m 253 -97 l 417 -97 l 417 -249 l 253 -249 l 253 -97 z "},"ﬁ":{"ha":783,"x_min":15,"x_max":713,"o":"m 103 489 l 15 489 l 15 658 l 103 658 l 103 710 q 138 838 103 781 q 238 929 172 896 q 394 963 304 963 q 579 935 508 963 l 579 776 q 531 790 564 785 q 471 794 499 794 q 359 773 392 794 q 326 704 326 751 l 326 658 l 713 658 l 713 0 l 489 0 l 489 489 l 326 489 l 326 0 l 103 0 l 103 489 z "},"ﬂ":{"ha":783,"x_min":15,"x_max":713,"o":"m 103 489 l 15 489 l 15 658 l 103 658 l 103 710 q 174 888 103 818 q 369 958 244 958 q 532 935 456 958 l 713 935 l 713 0 l 489 0 l 489 489 l 326 489 l 326 0 l 103 0 l 103 489 m 489 658 l 489 786 q 451 792 472 790 q 415 793 431 794 q 326 704 326 792 l 326 658 l 489 658 z "},"ª":{"ha":467,"x_min":43,"x_max":424,"o":"m 172 528 q 79 556 115 528 q 43 642 43 585 q 194 765 43 765 l 296 765 l 296 771 q 278 806 296 796 q 211 817 260 817 q 89 797 150 817 l 89 883 q 158 901 117 894 q 239 908 200 908 q 374 872 325 908 q 424 763 424 836 l 424 536 l 308 536 l 301 565 q 246 537 276 546 q 172 528 215 528 m 217 608 q 296 646 271 608 l 296 689 l 225 689 q 178 680 192 689 q 164 647 164 671 q 177 617 164 626 q 217 608 190 608 z "},"º":{"ha":500,"x_min":43,"x_max":457,"o":"m 249 528 q 43 718 43 528 q 249 908 43 908 q 457 718 457 908 q 249 528 457 528 m 249 624 q 306 646 289 624 q 324 718 324 668 q 306 789 324 767 q 249 811 289 811 q 192 789 210 811 q 175 718 175 767 q 192 646 175 668 q 249 624 210 624 z "},"ⁿ":{"ha":486,"x_min":50,"x_max":443,"o":"m 50 900 l 171 900 l 174 869 q 314 907 231 907 q 409 873 375 907 q 443 774 443 839 l 443 536 l 314 536 l 314 753 q 301 796 314 783 q 258 808 289 808 q 216 799 240 808 q 179 778 192 790 l 179 536 l 50 536 l 50 900 z "},"Δ":{"ha":889,"x_min":43,"x_max":846,"o":"m 43 119 l 349 894 l 538 894 l 846 118 l 846 0 l 43 0 l 43 119 m 628 171 l 443 640 l 256 171 l 628 171 z "},"Ω":{"ha":1044,"x_min":43,"x_max":1001,"o":"m 53 169 l 211 169 q 43 510 43 285 q 99 750 43 647 q 264 909 156 853 q 522 965 372 965 q 781 909 672 965 q 945 750 889 853 q 1001 510 1001 647 q 833 169 1001 285 l 992 169 l 992 0 l 579 0 l 579 175 q 726 312 679 233 q 774 496 774 390 q 706 698 774 622 q 522 774 639 774 q 338 698 406 774 q 271 496 271 622 q 318 312 271 390 q 465 175 365 233 l 465 0 l 53 0 l 53 169 z "},"μ":{"ha":833,"x_min":71,"x_max":763,"o":"m 71 658 l 294 658 l 294 257 q 321 176 294 201 q 403 150 347 150 q 478 166 442 150 q 539 208 514 182 l 539 658 l 763 658 l 763 0 l 554 0 l 547 56 q 350 -14 465 -14 q 294 -4 319 -14 l 294 -199 l 71 -199 l 71 658 z "},"π":{"ha":949,"x_min":29,"x_max":924,"o":"m 765 -14 q 525 239 525 -14 l 525 486 l 340 486 l 340 0 l 117 0 l 117 486 l 29 486 l 29 658 l 835 658 l 835 486 l 749 486 l 749 253 q 771 186 749 206 q 842 167 793 167 q 924 181 882 167 l 924 14 q 765 -14 857 -14 z "},"ก":{"ha":871,"x_min":43,"x_max":796,"o":"m 72 238 q 176 411 72 376 l 43 449 l 43 638 q 209 728 111 692 q 422 764 307 764 q 703 688 610 764 q 796 451 796 611 l 796 0 l 572 0 l 572 450 q 535 563 572 529 q 410 596 497 596 q 310 581 357 596 q 235 542 264 565 l 235 526 l 385 483 l 385 365 q 315 322 335 351 q 296 235 296 293 l 296 0 l 72 0 l 72 238 z "},"ถ":{"ha":871,"x_min":43,"x_max":796,"o":"m 217 0 q 112 40 151 0 q 72 146 72 81 l 72 238 q 176 411 72 376 l 43 449 l 43 638 q 209 728 111 692 q 422 764 307 764 q 703 688 610 764 q 796 451 796 611 l 796 0 l 572 0 l 572 450 q 535 563 572 529 q 410 596 497 596 q 310 581 357 596 q 235 542 264 565 l 235 526 l 385 483 l 385 365 q 315 324 335 351 q 296 243 296 297 l 296 204 q 308 168 296 179 q 343 157 319 157 l 408 157 l 408 0 l 217 0 z "},"ภ":{"ha":917,"x_min":50,"x_max":842,"o":"m 50 157 l 90 157 q 125 168 115 157 q 135 204 135 179 l 135 243 q 155 349 135 308 q 231 411 175 390 l 96 449 l 96 638 q 263 728 165 692 q 475 764 360 764 q 842 451 842 764 l 842 0 l 617 0 l 617 450 q 581 563 617 529 q 463 596 546 596 q 365 581 411 596 q 288 542 318 565 l 288 526 l 438 483 l 438 365 q 378 324 392 350 q 364 239 364 297 l 364 175 q 189 0 364 0 l 50 0 l 50 157 z "},"ฤ":{"ha":871,"x_min":43,"x_max":796,"o":"m 572 450 q 535 563 572 529 q 410 596 497 596 q 310 581 357 596 q 235 542 264 565 l 235 526 l 385 483 l 385 365 q 315 324 335 351 q 296 243 296 297 l 296 204 q 308 168 296 179 q 343 157 319 157 l 408 157 l 408 0 l 217 0 q 112 40 151 0 q 72 146 72 81 l 72 238 q 176 411 72 376 l 43 449 l 43 638 q 209 728 111 692 q 422 764 307 764 q 703 688 610 764 q 796 451 796 611 l 796 -222 l 572 -222 l 572 450 z "},"ฦ":{"ha":917,"x_min":50,"x_max":842,"o":"m 617 450 q 581 563 617 529 q 463 596 546 596 q 365 581 411 596 q 288 542 318 565 l 288 526 l 438 483 l 438 365 q 378 324 392 350 q 364 239 364 297 l 364 175 q 189 0 364 0 l 50 0 l 50 157 l 90 157 q 125 168 115 157 q 135 204 135 179 l 135 243 q 155 349 135 308 q 231 411 175 390 l 96 449 l 96 638 q 263 728 165 692 q 475 764 360 764 q 842 451 842 764 l 842 -222 l 617 -222 l 617 450 z "},"ฎ":{"ha":917,"x_min":50,"x_max":842,"o":"m 217 -107 q 451 -61 321 -61 q 544 -69 499 -61 q 617 -90 590 -78 l 617 450 q 581 563 617 529 q 463 596 546 596 q 365 581 411 596 q 288 542 318 565 l 288 526 l 438 483 l 438 365 q 378 324 392 350 q 364 239 364 297 l 364 175 q 189 0 364 0 l 50 0 l 50 157 l 90 157 q 125 168 115 157 q 135 204 135 179 l 135 243 q 155 349 135 308 q 231 411 175 390 l 96 449 l 96 638 q 263 728 165 692 q 475 764 360 764 q 842 451 842 764 l 842 -269 l 628 -269 q 432 -229 551 -229 q 319 -242 379 -229 q 217 -275 260 -254 l 217 -107 z "},"ฏ":{"ha":917,"x_min":50,"x_max":842,"o":"m 608 -274 q 504 -256 551 -274 q 429 -208 457 -237 q 293 -269 389 -269 l 157 -269 l 168 -106 l 258 -106 q 316 -92 296 -106 q 347 -49 336 -79 l 485 -49 q 509 -94 493 -79 q 554 -110 525 -110 q 601 -93 585 -110 q 617 -46 617 -76 l 617 450 q 581 563 617 529 q 463 596 546 596 q 365 581 411 596 q 288 542 318 565 l 288 526 l 438 483 l 438 365 q 378 324 392 350 q 364 239 364 297 l 364 175 q 189 0 364 0 l 50 0 l 50 157 l 90 157 q 125 168 115 157 q 135 204 135 179 l 135 243 q 155 349 135 308 q 231 411 175 390 l 96 449 l 96 638 q 263 728 165 692 q 475 764 360 764 q 842 451 842 764 l 842 -50 q 780 -213 842 -153 q 608 -274 718 -274 z "},"ญ":{"ha":1351,"x_min":43,"x_max":1276,"o":"m 931 -112 q 778 -98 858 -112 q 643 -53 699 -83 l 643 106 q 780 61 700 76 q 924 46 860 46 q 1057 63 1015 46 q 1099 114 1099 81 q 1082 150 1099 138 q 914 125 1010 125 q 647 201 740 125 q 554 435 554 276 l 554 450 q 520 563 554 529 q 404 596 486 596 q 309 581 353 596 q 235 542 265 567 l 235 526 l 385 483 l 385 365 q 315 324 335 351 q 296 243 296 297 l 296 204 q 308 168 296 179 q 343 157 319 157 l 408 157 l 408 0 l 217 0 q 112 40 151 0 q 72 146 72 81 l 72 238 q 176 411 72 376 l 43 449 l 43 638 q 207 728 113 692 q 417 764 301 764 q 687 688 599 764 q 775 451 775 613 l 775 428 q 807 322 775 351 q 914 293 839 293 q 1019 328 986 293 q 1053 442 1053 364 l 1053 750 l 1276 750 l 1276 449 q 1213 239 1276 319 q 1255 176 1238 214 q 1272 99 1272 139 q 1182 -59 1272 -6 q 931 -112 1092 -112 z "},"ข":{"ha":840,"x_min":40,"x_max":765,"o":"m 410 -14 q 149 63 242 -14 q 57 275 57 139 l 57 317 q 76 400 57 364 q 126 479 94 436 q 156 524 147 510 q 165 554 165 539 q 156 581 165 574 q 122 589 146 589 l 40 589 l 58 750 l 275 750 q 368 722 339 750 q 397 633 397 693 q 382 556 397 590 q 338 475 367 522 q 294 400 308 432 q 281 331 281 368 l 281 269 q 410 154 281 154 q 542 276 542 154 l 542 750 l 765 750 l 765 279 q 670 64 765 142 q 410 -14 575 -14 z "},"ฃ":{"ha":842,"x_min":39,"x_max":767,"o":"m 411 -14 q 151 56 242 -14 q 60 258 60 125 l 60 278 q 88 374 60 328 q 164 476 115 419 q 208 533 196 515 q 221 567 221 551 q 199 593 221 593 q 167 578 179 593 l 167 522 l 39 522 l 39 750 l 176 750 l 176 711 q 297 750 228 750 q 390 719 358 750 q 421 629 421 689 q 401 536 421 576 q 344 442 382 496 q 299 371 314 401 q 283 306 283 340 l 283 272 q 316 184 283 214 q 411 154 349 154 q 543 276 543 154 l 543 750 l 767 750 l 767 279 q 672 64 767 142 q 411 -14 576 -14 z "},"ช":{"ha":842,"x_min":42,"x_max":767,"o":"m 411 -14 q 151 63 243 -14 q 58 275 58 139 l 58 317 q 77 400 58 364 q 128 479 96 436 q 158 524 149 510 q 167 554 167 539 q 157 581 167 574 q 124 589 147 589 l 42 589 l 60 750 l 275 750 q 368 722 339 750 q 397 633 397 693 q 382 556 397 590 q 338 475 367 522 q 296 399 310 429 q 282 331 282 368 l 282 269 q 411 154 282 154 q 543 276 543 154 l 543 354 q 525 420 543 400 q 469 440 507 440 l 438 440 l 450 596 l 467 596 q 524 617 507 596 q 542 689 542 638 l 542 764 l 767 764 l 767 696 q 747 586 767 628 q 674 519 726 544 q 747 453 726 493 q 767 347 767 413 l 767 279 q 672 64 767 142 q 411 -14 576 -14 z "},"ซ":{"ha":843,"x_min":40,"x_max":768,"o":"m 413 -14 q 152 56 243 -14 q 61 254 61 125 l 61 282 q 89 377 61 332 q 165 478 117 422 q 209 533 196 514 q 222 567 222 551 q 200 593 222 593 q 168 578 181 593 l 168 522 l 40 522 l 40 750 l 178 750 l 178 711 q 299 750 229 750 q 389 718 358 750 q 419 629 419 686 q 401 535 419 576 q 344 440 382 494 q 299 367 314 396 q 285 303 285 338 l 285 269 q 317 183 285 213 q 413 154 350 154 q 544 276 544 154 l 544 354 q 526 420 544 400 q 471 440 508 440 l 439 440 l 451 596 l 468 596 q 526 617 508 596 q 543 689 543 638 l 543 764 l 768 764 l 768 696 q 748 586 768 628 q 675 519 728 544 q 748 453 728 493 q 768 347 768 413 l 768 279 q 673 64 768 142 q 413 -14 578 -14 z "},"ค":{"ha":882,"x_min":71,"x_max":807,"o":"m 71 454 q 164 684 71 604 q 439 764 257 764 q 714 684 621 764 q 807 454 807 604 l 807 0 l 583 0 l 583 463 q 545 560 583 525 q 439 596 507 596 q 331 561 367 596 q 294 463 294 526 l 294 356 q 349 382 318 372 q 411 392 379 392 l 493 392 l 499 215 l 408 215 q 294 183 342 215 l 294 0 l 71 0 l 71 454 z "},"ฅ":{"ha":882,"x_min":71,"x_max":807,"o":"m 71 538 q 121 703 71 643 q 271 764 171 764 q 363 747 319 764 q 438 693 407 729 q 515 747 468 729 q 613 764 563 764 q 807 538 807 764 l 807 0 l 583 0 l 583 526 q 573 579 583 563 q 533 596 563 596 q 474 551 496 596 l 404 551 q 385 585 396 574 q 353 596 374 596 q 294 526 294 596 l 294 356 q 347 382 317 372 q 411 392 378 392 l 493 392 l 499 215 l 407 215 q 294 183 342 215 l 294 0 l 71 0 l 71 538 z "},"ศ":{"ha":921,"x_min":71,"x_max":878,"o":"m 71 454 q 164 684 71 604 q 439 764 257 764 q 574 750 507 764 l 878 750 l 867 583 l 775 583 q 807 435 807 538 l 807 0 l 582 0 l 582 465 q 544 562 582 528 q 439 596 507 596 q 294 465 294 596 l 294 356 q 349 382 318 372 q 411 392 379 392 l 493 392 l 499 215 l 408 215 q 294 183 342 215 l 294 0 l 71 0 l 71 454 z "},"ด":{"ha":913,"x_min":43,"x_max":838,"o":"m 363 -14 q 129 76 215 -14 q 43 354 43 165 q 146 658 43 553 q 450 764 249 764 q 669 722 582 764 q 797 609 756 679 q 838 454 838 539 l 838 0 l 613 0 l 613 436 q 576 555 613 514 q 446 596 539 596 q 310 537 354 596 q 265 354 265 478 q 301 200 265 246 q 410 154 336 154 q 500 165 468 154 l 500 8 q 363 -14 444 -14 z "},"ต":{"ha":917,"x_min":43,"x_max":842,"o":"m 363 -14 q 129 76 215 -14 q 43 354 43 165 q 112 659 43 554 q 308 764 181 764 q 399 746 363 764 q 463 693 436 728 q 542 744 493 725 q 643 764 592 764 q 793 706 744 764 q 842 549 842 649 l 842 0 l 617 0 l 617 508 q 605 575 617 554 q 563 596 593 596 q 524 582 540 596 q 500 542 507 568 l 417 542 q 390 583 403 571 q 354 596 378 596 q 285 533 304 596 q 265 354 265 469 q 301 200 265 246 q 410 154 336 154 q 500 165 468 154 l 500 8 q 363 -14 444 -14 z "},"ท":{"ha":868,"x_min":71,"x_max":793,"o":"m 71 750 l 278 750 l 286 683 q 399 742 335 721 q 536 764 463 764 q 724 692 654 764 q 793 496 793 621 l 793 0 l 568 0 l 568 476 q 540 567 568 539 q 451 594 511 594 q 363 576 407 594 q 294 529 319 558 l 294 0 l 71 0 l 71 750 z "},"ฑ":{"ha":861,"x_min":40,"x_max":786,"o":"m 97 256 q 117 350 97 306 q 174 457 136 394 q 210 522 199 497 q 222 567 222 547 q 200 593 222 593 q 168 578 181 593 l 168 522 l 40 522 l 40 750 l 178 750 l 178 711 q 228 740 203 729 q 290 750 254 750 q 382 711 347 750 q 458 749 414 735 q 550 764 503 764 q 728 699 669 764 q 786 507 786 635 l 786 0 l 563 0 l 563 503 q 547 574 563 553 q 489 594 531 594 q 451 586 471 594 q 417 567 431 578 q 406 500 417 531 q 372 422 396 469 q 333 336 346 372 q 321 251 321 300 l 321 0 l 97 0 l 97 256 z "},"น":{"ha":868,"x_min":71,"x_max":793,"o":"m 331 -14 q 141 58 211 -14 q 71 257 71 129 l 71 750 l 294 750 l 294 276 q 323 183 294 213 q 413 154 351 154 q 499 173 457 154 q 568 219 542 192 l 568 750 l 793 750 l 793 0 l 586 0 l 576 65 q 331 -14 475 -14 z "},"ม":{"ha":868,"x_min":71,"x_max":793,"o":"m 531 -14 q 286 65 388 -14 l 278 0 l 71 0 l 71 750 l 294 750 l 294 219 q 364 173 321 192 q 451 154 407 154 q 540 183 511 154 q 568 276 568 213 l 568 750 l 793 750 l 793 257 q 722 58 793 129 q 531 -14 651 -14 z "},"ฌ":{"ha":1331,"x_min":43,"x_max":1256,"o":"m 1001 -14 q 873 6 929 -14 q 767 65 817 26 l 757 0 l 554 0 l 554 450 q 520 563 554 529 q 404 596 486 596 q 309 581 353 596 q 235 542 265 567 l 235 526 l 385 483 l 385 365 q 315 324 335 351 q 296 243 296 297 l 296 204 q 308 168 296 179 q 343 157 319 157 l 408 157 l 408 0 l 217 0 q 112 40 151 0 q 72 146 72 81 l 72 238 q 176 411 72 376 l 43 449 l 43 638 q 207 728 113 692 q 417 764 301 764 q 687 688 599 764 q 775 451 775 613 l 775 219 q 841 172 801 190 q 922 154 881 154 q 1006 183 981 154 q 1032 276 1032 211 l 1032 750 l 1256 750 l 1256 257 q 1188 57 1256 128 q 1001 -14 1121 -14 z "},"ณ":{"ha":1336,"x_min":43,"x_max":1261,"o":"m 810 -14 q 623 57 690 -14 q 556 257 556 128 l 556 450 q 521 563 556 529 q 404 596 486 596 q 309 581 353 596 q 235 542 265 567 l 235 526 l 385 483 l 385 365 q 315 324 335 351 q 296 243 296 297 l 296 204 q 308 168 296 179 q 343 157 319 157 l 408 157 l 408 0 l 217 0 q 112 40 151 0 q 72 146 72 81 l 72 238 q 176 411 72 376 l 43 449 l 43 638 q 207 728 113 692 q 417 764 301 764 q 687 688 599 764 q 775 451 775 613 l 775 276 q 802 183 775 213 q 888 154 829 154 q 970 172 931 154 q 1036 219 1010 190 l 1036 750 l 1261 750 l 1261 0 l 1054 0 l 1044 65 q 940 6 997 26 q 810 -14 883 -14 z "},"ฒ":{"ha":1376,"x_min":43,"x_max":1301,"o":"m 363 -14 q 129 76 215 -14 q 43 354 43 165 q 109 659 43 554 q 300 764 175 764 q 390 746 354 764 q 453 693 426 728 q 531 744 483 725 q 628 764 578 764 q 821 549 821 764 l 821 219 q 887 172 847 190 q 968 154 926 154 q 1052 183 1026 154 q 1078 276 1078 211 l 1078 750 l 1301 750 l 1301 257 q 1234 57 1301 128 q 1047 -14 1167 -14 q 919 6 975 -14 q 813 65 863 26 l 803 0 l 601 0 l 601 508 q 592 576 601 556 q 551 596 582 596 q 513 582 529 596 q 490 542 497 568 l 407 542 q 381 584 393 572 q 346 596 369 596 q 282 534 299 596 q 265 354 265 472 q 301 200 265 246 q 410 154 336 154 q 500 165 468 154 l 500 8 q 363 -14 444 -14 z "},"ฆ":{"ha":865,"x_min":47,"x_max":790,"o":"m 528 -14 q 283 65 385 -14 l 275 0 l 68 0 l 68 269 q 97 372 68 324 q 175 479 125 421 q 217 534 206 517 q 229 567 229 551 q 207 593 229 593 q 175 578 188 593 l 175 522 l 47 522 l 47 750 l 185 750 l 185 711 q 306 750 236 750 q 398 719 367 750 q 429 629 429 689 q 410 530 429 574 q 356 429 392 486 q 308 346 324 382 q 292 268 292 310 l 292 219 q 361 173 318 192 q 449 154 404 154 q 538 183 508 154 q 567 276 567 213 l 567 750 l 790 750 l 790 257 q 719 58 790 129 q 528 -14 649 -14 z "},"ธ":{"ha":756,"x_min":43,"x_max":713,"o":"m 385 -14 q 204 3 292 -14 q 56 46 117 19 l 56 317 l 256 317 l 256 168 q 309 155 276 160 q 372 150 342 150 q 473 169 440 150 q 506 235 506 189 q 485 283 506 265 q 428 313 464 301 q 321 340 392 324 q 275 351 328 339 q 101 422 158 381 q 43 550 43 464 q 130 708 43 653 q 390 764 217 764 q 552 753 475 764 q 672 729 629 743 l 672 560 q 559 588 628 578 q 426 599 490 599 q 306 590 350 599 q 261 551 261 581 q 293 514 261 528 q 399 483 325 500 q 488 463 446 474 q 613 415 565 442 q 687 346 661 389 q 713 233 713 303 q 626 50 713 114 q 385 -14 540 -14 z "},"ร":{"ha":699,"x_min":43,"x_max":656,"o":"m 331 -14 q 174 -3 249 -14 q 56 28 100 8 l 56 203 q 169 167 106 181 q 288 154 233 154 q 401 166 369 154 q 433 210 433 178 q 407 258 433 242 q 301 301 381 274 l 247 319 q 92 405 142 357 q 43 536 43 453 q 125 702 43 640 q 365 764 207 764 q 497 754 429 764 q 611 731 565 744 l 611 557 q 510 585 568 575 q 406 596 453 596 q 302 583 339 596 q 265 536 265 569 q 290 496 265 510 q 379 461 315 482 q 407 451 390 457 q 447 438 424 446 q 574 378 529 407 q 637 309 618 349 q 656 207 656 269 q 571 43 656 100 q 331 -14 486 -14 z "},"จ":{"ha":789,"x_min":36,"x_max":746,"o":"m 385 -14 q 303 -7 346 -14 q 235 10 261 0 l 142 261 l 36 261 l 44 431 l 272 431 l 376 153 q 524 381 524 161 q 502 509 524 463 q 431 576 481 556 q 292 596 381 596 q 173 586 238 596 q 50 560 108 576 l 50 718 q 194 751 115 739 q 349 764 272 764 q 652 668 558 764 q 746 381 746 572 q 696 167 746 256 q 563 32 646 78 q 385 -14 481 -14 z "},"ว":{"ha":714,"x_min":32,"x_max":678,"o":"m 288 -14 q 32 33 135 -14 l 32 200 q 131 167 78 179 q 233 154 183 154 q 403 206 351 154 q 456 375 456 257 q 403 544 456 492 q 235 596 351 596 q 32 553 129 596 l 32 717 q 289 764 146 764 q 678 375 678 764 q 288 -14 678 -14 z "},"ง":{"ha":793,"x_min":15,"x_max":768,"o":"m 390 -14 q 300 -8 347 -14 q 221 10 253 -1 l 15 515 l 233 515 l 383 147 q 506 213 467 151 q 546 397 546 275 q 531 509 546 469 q 484 565 517 549 q 393 581 451 581 l 338 581 l 338 750 l 432 750 q 768 397 768 750 q 667 88 768 189 q 390 -14 565 -14 z "},"ฐ":{"ha":847,"x_min":36,"x_max":815,"o":"m 385 -14 q 303 -7 346 -14 q 235 10 261 0 l 142 261 l 36 261 l 44 431 l 272 431 l 376 153 q 524 381 524 161 q 502 509 524 463 q 431 576 481 556 q 292 596 381 596 q 173 586 238 596 q 50 560 108 576 l 50 718 q 194 751 115 739 q 349 764 272 764 q 492 750 432 764 l 815 750 l 804 583 l 699 583 q 746 381 746 500 q 696 167 746 256 q 563 32 646 78 q 385 -14 481 -14 m 493 -296 q 388 -278 433 -296 q 314 -229 342 -260 q 179 -293 271 -293 l 58 -293 l 69 -133 l 150 -133 q 208 -119 188 -133 q 239 -74 228 -106 l 381 -74 q 461 -137 396 -137 q 517 -121 497 -137 q 536 -74 536 -104 l 536 -43 l 715 -43 l 715 -74 q 659 -236 715 -176 q 493 -296 603 -296 z "},"ฉ":{"ha":835,"x_min":43,"x_max":760,"o":"m 296 -14 q 115 52 179 -14 q 50 244 50 118 l 50 417 l 274 417 l 274 278 q 301 185 274 215 q 388 154 328 154 q 536 221 479 154 l 536 426 q 516 528 536 492 q 449 580 496 564 q 319 596 403 596 q 183 584 264 596 q 43 556 101 572 l 43 714 q 201 751 111 738 q 376 764 290 764 q 669 680 578 764 q 760 425 760 596 l 760 0 l 553 0 l 544 67 q 296 -14 443 -14 z "},"ล":{"ha":836,"x_min":42,"x_max":761,"o":"m 300 -14 q 113 44 183 -14 q 42 225 42 101 q 118 402 42 340 q 336 464 194 464 l 536 464 l 536 492 q 498 572 536 547 q 371 596 460 596 q 118 557 243 596 l 118 718 q 258 751 178 739 q 413 764 338 764 q 761 464 761 764 l 761 0 l 536 0 l 536 306 l 371 306 q 288 288 315 306 q 260 224 260 269 q 284 163 260 179 q 367 146 308 146 q 450 156 419 146 l 450 6 q 300 -14 394 -14 z "},"ส":{"ha":869,"x_min":42,"x_max":826,"o":"m 300 -14 q 113 42 183 -14 q 42 219 42 97 q 119 399 42 335 q 336 464 196 464 l 538 464 l 538 492 q 499 572 538 547 q 372 596 460 596 q 119 557 244 596 l 119 718 q 259 751 179 739 q 413 764 339 764 q 547 750 481 764 l 826 750 l 815 583 l 733 583 q 754 527 747 563 q 761 453 761 492 l 761 0 l 538 0 l 538 306 l 372 306 q 288 288 315 306 q 260 224 260 269 q 285 163 260 179 q 368 146 310 146 q 451 156 421 146 l 451 6 q 300 -14 393 -14 z "},"บ":{"ha":888,"x_min":71,"x_max":813,"o":"m 442 -14 q 169 68 268 -14 q 71 310 71 150 l 71 750 l 294 750 l 294 303 q 331 190 294 226 q 442 154 367 154 q 552 190 517 154 q 588 303 588 226 l 588 750 l 813 750 l 813 310 q 714 68 813 150 q 442 -14 615 -14 z "},"ป":{"ha":888,"x_min":71,"x_max":813,"o":"m 442 -14 q 169 68 268 -14 q 71 310 71 150 l 71 750 l 294 750 l 294 303 q 331 190 294 226 q 442 154 367 154 q 552 190 517 154 q 588 303 588 226 l 588 972 l 813 972 l 813 310 q 714 68 813 150 q 442 -14 615 -14 z "},"ษ":{"ha":903,"x_min":71,"x_max":894,"o":"m 442 -14 q 169 68 268 -14 q 71 310 71 150 l 71 750 l 296 750 l 296 303 q 331 190 296 226 q 442 154 367 154 q 553 190 517 154 q 589 303 589 226 l 589 376 l 449 376 l 449 547 l 589 547 l 589 750 l 813 750 l 813 547 l 894 547 l 879 376 l 813 376 l 813 310 q 714 68 813 150 q 442 -14 615 -14 z "},"ย":{"ha":864,"x_min":42,"x_max":789,"o":"m 417 -14 q 142 47 243 -14 q 42 233 42 107 q 63 323 42 282 q 128 389 85 364 q 67 448 90 408 q 44 540 44 488 q 115 706 44 649 q 307 764 185 764 q 444 743 389 764 l 444 585 q 356 596 407 596 q 289 581 311 596 q 267 532 267 567 q 290 480 267 494 q 361 465 313 465 l 435 465 l 443 313 l 360 313 q 288 293 311 313 q 264 233 264 274 q 299 174 264 193 q 411 154 333 154 q 564 278 564 154 l 564 750 l 789 750 l 789 292 q 417 -14 789 -14 z "},"ผ":{"ha":903,"x_min":71,"x_max":828,"o":"m 71 611 q 103 712 71 674 q 194 750 135 750 l 388 750 l 396 593 l 328 593 q 274 536 274 593 l 274 282 l 411 521 l 489 521 l 625 282 l 625 750 l 828 750 l 828 0 l 624 0 l 450 315 l 275 0 l 71 0 l 71 611 z "},"ฝ":{"ha":903,"x_min":71,"x_max":828,"o":"m 71 611 q 103 712 71 674 q 194 750 135 750 l 388 750 l 396 593 l 328 593 q 274 536 274 593 l 274 282 l 411 521 l 489 521 l 625 282 l 625 972 l 828 972 l 828 0 l 624 0 l 450 315 l 275 0 l 71 0 l 71 611 z "},"ฟ":{"ha":1017,"x_min":29,"x_max":1021,"o":"m 29 750 l 236 750 l 328 307 l 421 618 l 421 750 l 576 750 l 692 307 l 815 972 l 1021 972 l 810 0 l 621 0 l 513 383 l 394 0 l 206 0 l 29 750 z "},"พ":{"ha":1017,"x_min":29,"x_max":988,"o":"m 29 750 l 236 750 l 328 307 l 421 618 l 421 750 l 576 750 l 692 307 l 782 750 l 988 750 l 810 0 l 621 0 l 513 383 l 394 0 l 206 0 l 29 750 z "},"ห":{"ha":858,"x_min":71,"x_max":783,"o":"m 71 750 l 294 750 l 294 535 l 450 535 q 534 562 510 535 q 558 646 558 589 l 558 750 l 783 750 l 783 640 q 685 451 783 494 q 757 387 735 429 q 779 282 779 344 l 779 0 l 554 0 l 554 253 q 531 339 554 314 q 446 364 507 364 l 294 364 l 294 0 l 71 0 l 71 750 z "},"ฬ":{"ha":1017,"x_min":29,"x_max":1022,"o":"m 29 750 l 236 750 l 329 300 l 425 563 l 425 694 l 574 694 l 693 300 l 751 596 q 757 644 757 622 q 741 694 757 679 q 690 708 725 708 l 642 708 l 667 853 l 726 853 q 792 870 772 853 q 824 932 813 888 l 832 972 l 1022 972 l 1008 904 q 972 817 997 849 q 903 775 947 786 q 953 671 953 744 q 944 607 953 643 l 810 0 l 621 0 l 513 338 l 396 0 l 206 0 l 29 750 z "},"อ":{"ha":824,"x_min":56,"x_max":781,"o":"m 381 -14 q 203 3 289 -14 q 56 46 117 19 l 56 443 l 389 443 l 399 289 l 274 289 l 274 168 q 379 154 317 154 q 519 203 479 154 q 558 371 558 251 q 535 507 558 458 q 462 576 513 556 q 324 596 411 596 q 192 586 261 596 q 64 557 124 576 l 64 718 q 215 751 131 739 q 378 764 300 764 q 683 665 585 764 q 781 371 781 567 q 684 83 781 179 q 381 -14 588 -14 z "},"ฮ":{"ha":879,"x_min":56,"x_max":836,"o":"m 381 -14 q 203 3 289 -14 q 56 46 117 19 l 56 443 l 389 443 l 399 289 l 274 289 l 274 168 q 379 154 317 154 q 519 203 479 154 q 558 371 558 251 q 535 507 558 458 q 462 576 513 556 q 324 596 411 596 q 192 586 261 596 q 64 557 124 576 l 64 718 q 215 751 131 739 q 378 764 300 764 q 517 750 447 764 l 836 750 l 825 583 l 731 583 q 781 371 781 490 q 684 83 781 179 q 381 -14 588 -14 z "},"า":{"ha":621,"x_min":6,"x_max":546,"o":"m 322 453 q 293 562 322 528 q 189 596 264 596 q 6 558 100 596 l 6 717 q 112 751 49 738 q 236 764 175 764 q 472 694 397 764 q 546 476 546 624 l 546 0 l 322 0 l 322 453 z "},"ำ":{"ha":621,"x_min":-364,"x_max":546,"o":"m -185 799 q -312 847 -261 799 q -364 968 -364 894 q -312 1090 -364 1042 q -185 1139 -261 1139 q -58 1090 -110 1139 q -7 968 -7 1042 q -58 847 -7 894 q -185 799 -110 799 m -185 911 q -145 928 -162 911 q -128 968 -128 946 q -145 1009 -128 992 q -185 1026 -162 1026 q -226 1009 -208 1026 q -243 968 -243 992 q -226 928 -243 946 q -185 911 -208 911 m 322 453 q 293 562 322 528 q 189 596 264 596 q 6 558 100 596 l 6 717 q 112 751 49 738 q 236 764 175 764 q 472 694 397 764 q 546 476 546 624 l 546 0 l 322 0 l 322 453 z "},"ๅ":{"ha":621,"x_min":6,"x_max":546,"o":"m 322 453 q 293 562 322 528 q 189 596 264 596 q 6 558 100 596 l 6 717 q 112 751 49 738 q 236 764 175 764 q 472 694 397 764 q 546 476 546 624 l 546 -222 l 322 -222 l 322 453 z "},"ะ":{"ha":450,"x_min":43,"x_max":410,"o":"m 43 658 l 221 658 l 221 592 l 410 592 l 403 433 l 43 433 l 43 658 m 43 293 l 221 293 l 221 225 l 410 225 l 403 68 l 43 68 l 43 293 z "},"เ":{"ha":443,"x_min":72,"x_max":399,"o":"m 228 0 q 111 38 150 0 q 72 150 72 76 l 72 750 l 297 750 l 297 208 q 347 157 297 157 l 399 157 l 399 0 l 228 0 z "},"แ":{"ha":807,"x_min":71,"x_max":764,"o":"m 225 0 q 110 39 149 0 q 71 150 71 78 l 71 750 l 294 750 l 294 208 q 344 157 294 157 l 390 157 l 390 0 l 225 0 m 600 0 q 483 38 522 0 q 444 150 444 76 l 444 750 l 669 750 l 669 208 q 719 157 669 157 l 764 157 l 764 0 l 600 0 z "},"ไ":{"ha":436,"x_min":-19,"x_max":435,"o":"m 242 0 q 126 39 165 0 q 88 150 88 78 l 88 619 q 108 731 88 682 q 165 806 129 779 l -19 806 l -19 964 l 435 964 l 435 819 q 340 747 369 799 q 311 608 311 696 l 311 208 q 361 157 311 157 l 414 157 l 414 0 l 242 0 z "},"ใ":{"ha":426,"x_min":-26,"x_max":425,"o":"m 204 0 q 89 39 128 0 q 50 150 50 78 l 50 451 q 74 562 50 517 q 143 658 99 607 q 181 705 168 686 q 193 743 193 724 q 117 800 193 800 q -26 758 42 800 l -26 913 q 78 953 18 939 q 201 968 139 968 q 367 926 310 968 q 425 800 425 883 q 406 715 425 751 q 350 628 388 679 q 292 537 311 574 q 274 449 274 500 l 274 208 q 324 157 274 157 l 376 157 l 376 0 l 204 0 z "},"โ":{"ha":447,"x_min":-19,"x_max":449,"o":"m 268 0 q 151 38 190 0 q 113 150 113 76 l 113 631 q 81 753 113 708 q -19 819 49 799 l -19 964 l 449 964 l 449 806 l 261 806 q 338 639 338 754 l 338 208 q 388 157 338 157 l 439 157 l 439 0 l 268 0 z "},"ℊ":{"ha":832,"x_min":43,"x_max":760,"o":"m 350 -244 q 254 -240 314 -244 q 167 -231 194 -236 l 167 -65 q 237 -78 193 -74 q 314 -83 281 -83 q 485 -61 435 -83 q 536 18 536 -39 l 536 43 q 452 8 501 21 q 351 -4 403 -4 q 43 306 43 -4 q 84 503 43 421 q 196 629 125 586 q 357 672 267 672 q 470 654 424 672 q 554 601 517 636 l 567 658 l 760 658 l 760 60 q 658 -162 760 -79 q 350 -244 556 -244 m 414 158 q 536 201 486 158 l 536 458 q 415 508 492 508 q 305 459 339 508 q 271 307 271 410 q 302 190 271 221 q 414 158 333 158 z "},"⁄":{"ha":256,"x_min":-207,"x_max":463,"o":"m 233 919 l 463 919 l 22 0 l -207 0 l 233 919 z "},"½":{"ha":950,"x_min":43,"x_max":892,"o":"m 131 758 l 43 742 l 43 860 l 289 908 l 289 514 l 131 514 l 131 758 m 585 894 l 797 894 l 328 0 l 117 0 l 585 894 m 556 67 q 589 106 572 90 q 624 136 606 121 q 651 158 643 151 q 688 187 663 167 q 722 217 714 207 q 729 240 729 228 q 713 270 729 261 q 664 279 697 279 q 564 257 618 279 l 564 368 q 636 386 592 378 q 722 394 681 394 q 845 361 801 394 q 889 275 889 328 q 876 215 889 239 q 828 158 863 190 l 804 138 l 774 111 l 892 111 l 892 0 l 556 0 l 556 67 z "},"⅓":{"ha":961,"x_min":43,"x_max":899,"o":"m 131 758 l 43 742 l 43 860 l 289 908 l 289 514 l 131 514 l 131 758 m 585 894 l 797 894 l 328 0 l 117 0 l 585 894 m 706 -12 q 624 -6 671 -12 q 557 8 578 0 l 557 103 q 664 82 610 82 q 722 90 704 82 q 739 115 739 97 q 724 142 739 133 q 676 150 710 150 l 615 150 l 622 233 l 672 233 q 732 268 732 233 q 663 297 732 297 q 564 276 614 297 l 564 372 q 627 387 585 381 q 707 393 669 393 q 847 363 801 393 q 892 279 892 332 q 844 192 892 218 q 899 108 899 174 q 706 -12 899 -12 z "},"⅔":{"ha":1008,"x_min":43,"x_max":919,"o":"m 43 581 q 77 621 60 604 q 113 652 94 638 q 139 672 132 667 q 174 700 147 679 q 208 731 200 721 q 215 754 215 742 q 200 784 215 775 q 150 793 185 793 q 51 771 106 793 l 51 882 q 122 900 78 892 q 208 908 167 908 q 332 875 288 908 q 376 789 376 842 q 363 728 376 753 q 315 672 350 704 l 289 650 q 260 625 275 640 l 379 625 l 379 514 l 43 514 l 43 581 m 606 894 l 818 894 l 349 0 l 138 0 l 606 894 m 726 -12 q 646 -7 693 -12 q 578 7 599 -1 l 578 103 q 685 82 625 82 q 743 90 726 82 q 760 115 760 97 q 697 150 760 150 l 636 150 l 643 232 l 693 232 q 753 268 753 232 q 683 296 753 296 q 585 275 629 296 l 585 372 q 649 387 607 381 q 728 393 692 393 q 867 362 822 393 q 913 278 913 331 q 865 190 913 217 q 919 108 919 172 q 726 -12 919 -12 z "},"¼":{"ha":929,"x_min":43,"x_max":886,"o":"m 131 758 l 43 742 l 43 860 l 289 908 l 289 514 l 131 514 l 131 758 m 585 894 l 797 894 l 328 0 l 117 0 l 585 894 m 693 64 l 507 64 l 507 161 l 692 394 l 844 394 l 844 167 l 886 167 l 886 64 l 844 64 l 844 0 l 693 0 l 693 64 m 731 167 l 731 279 l 644 167 l 731 167 z "},"¾":{"ha":951,"x_min":43,"x_max":893,"o":"m 192 503 q 110 508 157 503 q 43 522 64 514 l 43 618 q 150 597 89 597 q 208 605 190 597 q 225 631 225 613 q 161 665 225 665 l 100 665 l 107 747 l 158 747 q 217 783 217 747 q 149 811 217 811 q 49 790 93 811 l 49 888 q 114 902 72 896 q 192 908 156 908 q 331 877 286 908 q 376 793 376 846 q 331 706 376 732 q 385 624 385 688 q 192 503 385 503 m 607 894 l 819 894 l 350 0 l 139 0 l 607 894 m 700 64 l 514 64 l 514 161 l 699 394 l 851 394 l 851 167 l 893 167 l 893 64 l 851 64 l 851 0 l 700 0 l 700 64 m 738 167 l 738 279 l 651 167 l 738 167 z "},"⅛":{"ha":960,"x_min":43,"x_max":901,"o":"m 131 758 l 43 742 l 43 860 l 289 908 l 289 514 l 131 514 l 131 758 m 585 894 l 797 894 l 328 0 l 117 0 l 585 894 m 713 -14 q 576 17 626 -14 q 525 104 525 47 q 539 157 525 133 q 579 194 553 181 q 535 275 535 219 q 582 362 535 332 q 713 392 629 392 q 843 362 796 392 q 890 275 890 332 q 846 190 890 219 q 901 104 901 163 q 850 17 901 47 q 713 -14 799 -14 m 726 226 q 757 244 750 235 q 764 272 764 253 q 713 310 764 310 q 661 272 661 310 q 668 247 661 256 q 693 233 675 238 l 726 226 m 713 67 q 774 107 774 67 q 764 132 774 124 q 731 146 754 140 l 693 154 q 663 138 672 147 q 653 108 653 129 q 667 76 653 86 q 713 67 682 67 z "},"⅜":{"ha":975,"x_min":43,"x_max":906,"o":"m 192 503 q 110 508 157 503 q 43 522 64 514 l 43 618 q 150 597 89 597 q 208 605 190 597 q 225 631 225 613 q 161 665 225 665 l 100 665 l 107 747 l 158 747 q 217 783 217 747 q 149 811 217 811 q 49 790 93 811 l 49 888 q 114 902 72 896 q 192 908 156 908 q 331 877 286 908 q 376 793 376 846 q 331 706 376 732 q 385 624 385 688 q 192 503 385 503 m 590 894 l 803 894 l 332 0 l 121 0 l 590 894 m 718 -14 q 581 17 632 -14 q 529 104 529 47 q 544 157 529 133 q 585 194 558 181 q 540 275 540 219 q 588 362 540 332 q 718 392 635 392 q 849 362 801 392 q 896 275 896 332 q 850 190 896 219 q 892 156 879 176 q 906 104 906 135 q 855 17 906 47 q 718 -14 804 -14 m 732 226 q 762 244 754 235 q 769 272 769 253 q 718 310 769 310 q 667 272 667 310 q 674 247 667 256 q 699 233 681 238 l 732 226 m 718 67 q 778 107 778 67 q 768 132 778 124 q 735 146 758 140 l 699 154 q 667 138 676 147 q 657 108 657 129 q 718 67 657 67 z "},"⅝":{"ha":956,"x_min":43,"x_max":901,"o":"m 181 503 q 103 508 142 503 q 43 522 64 513 l 43 621 q 91 606 63 611 q 146 601 119 601 q 207 611 188 601 q 226 640 226 621 q 211 671 226 663 q 158 679 196 679 l 44 679 l 44 749 l 54 894 l 351 894 l 344 799 l 185 799 l 182 761 l 232 761 q 341 731 306 761 q 376 639 376 700 q 327 540 376 576 q 181 503 278 503 m 585 894 l 797 894 l 328 0 l 117 0 l 585 894 m 713 -14 q 576 17 626 -14 q 525 104 525 47 q 539 157 525 133 q 579 194 553 181 q 535 275 535 219 q 582 362 535 332 q 713 392 629 392 q 843 362 796 392 q 890 275 890 332 q 846 190 890 219 q 901 104 901 163 q 850 17 901 47 q 713 -14 799 -14 m 726 226 q 757 244 750 235 q 764 272 764 253 q 713 310 764 310 q 661 272 661 310 q 668 247 661 256 q 693 233 675 238 l 726 226 m 713 67 q 774 107 774 67 q 764 132 774 124 q 731 146 754 140 l 693 154 q 663 138 672 147 q 653 108 653 129 q 667 76 653 86 q 713 67 682 67 z "},"⅞":{"ha":954,"x_min":43,"x_max":894,"o":"m 218 781 l 43 781 l 43 894 l 388 894 l 388 808 l 260 514 l 101 514 l 218 781 m 578 894 l 790 894 l 321 0 l 110 0 l 578 894 m 706 -14 q 569 17 619 -14 q 518 104 518 47 q 532 157 518 133 q 572 194 546 181 q 528 275 528 219 q 575 362 528 332 q 706 392 622 392 q 836 362 789 392 q 883 275 883 332 q 839 190 883 219 q 894 104 894 163 q 843 17 894 47 q 706 -14 792 -14 m 719 226 q 750 244 743 235 q 757 272 757 253 q 706 310 757 310 q 654 272 654 310 q 661 247 654 256 q 686 233 668 238 l 719 226 m 706 67 q 767 107 767 67 q 757 132 767 124 q 724 146 747 140 l 686 154 q 656 138 665 147 q 646 108 646 129 q 660 76 646 86 q 706 67 675 67 z "},"₀":{"ha":507,"x_min":40,"x_max":467,"o":"m 253 -178 q 93 -126 146 -178 q 40 21 40 -75 q 253 228 40 228 q 467 21 467 228 q 413 -126 467 -75 q 253 -178 360 -178 m 253 -68 q 308 -47 292 -68 q 324 21 324 -26 q 308 96 324 74 q 253 118 293 118 q 199 96 214 118 q 183 21 183 74 q 199 -47 183 -26 q 253 -68 214 -68 z "},"₁":{"ha":304,"x_min":28,"x_max":274,"o":"m 115 78 l 28 61 l 28 179 l 274 228 l 274 -167 l 115 -167 l 115 78 z "},"₂":{"ha":422,"x_min":43,"x_max":379,"o":"m 43 -100 q 77 -60 60 -76 q 113 -28 94 -43 q 139 -8 132 -14 q 174 19 147 -1 q 208 51 200 40 q 215 74 215 61 q 200 103 215 94 q 150 113 185 113 q 51 90 106 113 l 51 201 q 122 219 78 211 q 208 228 167 228 q 332 194 288 228 q 376 108 376 161 q 363 48 376 72 q 315 -8 350 24 l 289 -31 q 260 -56 274 -42 l 379 -56 l 379 -167 l 43 -167 l 43 -100 z "},"₃":{"ha":428,"x_min":43,"x_max":385,"o":"m 192 -178 q 110 -172 157 -178 q 43 -158 64 -167 l 43 -62 q 150 -83 89 -83 q 208 -76 190 -83 q 225 -50 225 -68 q 161 -15 225 -15 l 100 -15 l 107 67 l 158 67 q 217 103 217 67 q 149 131 217 131 q 49 110 93 131 l 49 207 q 114 222 72 215 q 192 228 156 228 q 331 197 286 228 q 376 113 376 165 q 331 25 376 51 q 385 -57 385 7 q 192 -178 385 -178 z "},"₄":{"ha":410,"x_min":15,"x_max":393,"o":"m 200 -103 l 15 -103 l 15 -6 l 199 228 l 353 228 l 353 0 l 393 0 l 393 -103 l 353 -103 l 353 -167 l 200 -167 l 200 -103 m 239 0 l 239 113 l 153 0 l 239 0 z "},"₅":{"ha":421,"x_min":43,"x_max":376,"o":"m 181 -178 q 103 -173 142 -178 q 43 -158 64 -168 l 43 -60 q 91 -74 63 -69 q 146 -79 119 -79 q 207 -69 188 -79 q 226 -40 226 -60 q 211 -10 226 -18 q 158 -1 196 -1 l 44 -1 l 44 68 l 54 214 l 351 214 l 344 118 l 185 118 l 182 81 l 232 81 q 341 50 306 81 q 376 -42 376 19 q 327 -141 376 -104 q 181 -178 278 -178 z "},"₆":{"ha":443,"x_min":43,"x_max":400,"o":"m 224 -178 q 92 -138 140 -178 q 43 -21 43 -99 l 43 57 q 96 181 43 135 q 242 228 149 228 q 361 211 319 228 l 361 117 q 254 133 321 133 q 188 118 213 133 q 164 79 164 103 l 164 72 q 254 99 199 99 q 366 65 332 99 q 400 -39 400 32 q 356 -142 400 -106 q 224 -178 311 -178 m 222 -89 q 264 -77 251 -89 q 276 -40 276 -65 q 265 -3 276 -15 q 224 8 254 8 q 164 -12 194 8 l 164 -35 q 178 -76 164 -62 q 222 -89 192 -89 z "},"₇":{"ha":403,"x_min":29,"x_max":374,"o":"m 204 100 l 29 100 l 29 214 l 374 214 l 374 128 l 246 -167 l 88 -167 l 204 100 z "}}}
